<ttFont>
<head>
    <!-- Most of this table will be recalculated by the compiler -->
    <tableVersion value="1.0"/>
    <fontRevision value="2.004"/>
    <checkSumAdjustment value="0x934ccf23"/>
    <magicNumber value="0x5f0f3cf5"/>
    <flags value="00000000 00000011"/>
    <unitsPerEm value="1000"/>
    <created value="Thu Oct  8 10:01:21 2009"/>
    <modified value="Thu Oct  8 10:01:21 2009"/>
    <xMin value="-572"/>
    <yMin value="-313"/>
    <xMax value="1973"/>
    <yMax value="1104"/>
    <macStyle value="00000000 00000001"/>
    <lowestRecPPEM value="3"/>
    <fontDirectionHint value="2"/>
    <indexToLocFormat value="0"/>
    <glyphDataFormat value="0"/>
  </head>
          <CharString index="0">
            579 44 rmoveto
            330 vlineto
            105 -106 74 -140 -59 -61 -7 -28 -74 vhcurveto
            -10 -4 -14 -5 -4 -4 rrcurveto
            -7 -4 0 -7 -3 vvcurveto
            -12 5 -52 2 -13 vhcurveto
            -5 1 1 -11 12 hhcurveto
            5 2 0 13 14 hvcurveto
            33 35 56 39 96 hhcurveto
            54 46 -38 -73 hvcurveto
            -37 vlineto
            -150 -2 -231 -41 -137 vvcurveto
            -88 77 -77 105 93 76 43 48 32 vhcurveto
            -37 -76 callsubr
            -146 131 rmoveto
            -109 -131 0 -4 -59 -44 41 49 75 94 52 144 9 vhcurveto
            return
          </CharString>
          <CharString index="1">
            838 23 rmoveto
            6 -3 7 -2 4 vhcurveto
            -270 618 rlineto
            36 -16 -26 0 -19 hhcurveto
            -116 hlineto
            -19 -26 0 -36 -16 hvcurveto
            -269 -616 rlineto
            -2 -5 -4 -8 -6 vvcurveto
            -23 21 0 15 vhcurveto
            61 hlineto
            45 7 17 30 13 hvcurveto
            35 81 rlineto
            374 hlineto
            36 -81 rlineto
            -31 13 8 -16 44 hhcurveto
            80 hlineto
            15 21 0 23 hvcurveto
            -262 209 rmoveto
            -283 hlineto
            141 324 rlineto
            return
          </CharString>
          <CharString index="2">
            588 320 rmoveto
            97 -57 136 -197 -171 -125 -133 -148 -153 136 -129 178 80 79 23 45 66 vhcurveto
            2 3 1 7 3 vvcurveto
            10 -3 27 -1 11 vhcurveto
            28 -3 -1 7 -12 158 callsubr
            -9 -10 hvcurveto
            -70 -74 -85 -5 -27 hhcurveto
            -82 -93 68 147 hvcurveto
            365 117 callgsubr
            -131 18 rmoveto
            -270 hlineto
            74 18 56 65 72 hhcurveto
            87 32 -67 -72 5 hvcurveto
            return
          </CharString>
          <CharString index="3">
            rmoveto
            18 -13 14 -19 -11 -6 -5 -5 -5 vhcurveto
            -30 -13 -79 10 -59 hhcurveto
            -71 -67 10 11 -14 hvcurveto
            5 -6 -6 4 -9 hhcurveto
            -19 -13 -14 -18 -77 93 -10 112 112 93 10 77 hvcurveto
            return
          </CharString>
          <CharString index="4">
            -96 callsubr
            -405 vlineto
            -20 0 -58 -56 -38 vhcurveto
            -33 -50 -60 -3 -29 hhcurveto
            -26 -59 2 30 -46 hvcurveto
            -37 24 -22 35 60 vvcurveto
            406 -95 callsubr
            -34 callsubr
            -408 vlineto
            -147 159 -106 190 187 155 106 147 vhcurveto
            return
          </CharString>
          <CharString index="5">
            -97 callsubr
            11 33 0 31 hvcurveto
            return
          </CharString>
          <CharString index="6">
            -49 callsubr
            -37 hlineto
            -148 -54 -149 54 rlineto
            -37 hlineto
            -15 -13 0 -14 -8 4 -2 12 -6 hvcurveto
            147 -74 rlineto
            101 hlineto
            147 74 rlineto
            12 6 4 2 8 vvcurveto
            endchar
          </CharString>
          <CharString index="7">
            rmoveto
            6 -4 7 -3 4 vhcurveto
            -34 58 rlineto
            15 -9 -1 0 -21 hhcurveto
            -90 hlineto
            -15 -13 0 -14 -4 2 -6 11 -7 hvcurveto
            111 -73 52 callsubr
            14 0 14 hvcurveto
            -229 hmoveto
            6 -4 7 -3 4 vhcurveto
            -34 58 rlineto
            15 -9 -1 0 -21 hhcurveto
            -90 hlineto
            -15 -13 0 -14 -4 2 -6 11 -7 hvcurveto
            111 -73 52 callsubr
            14 0 14 hvcurveto
            endchar
          </CharString>
          <CharString index="8">
            0 callsubr
            156 -135 131 -170 -174 -132 -133 -154 -151 135 -125 170 173 133 127 149 vhcurveto
            -146 12 rmoveto
            -60 0 -149 -159 -160 0 148 61 57 0 142 159 160 0 -141 -58 vhcurveto
            return
          </CharString>
          <CharString index="9">
            -81 -48 -75 -98 -84 -6 23 63 vhcurveto
            349 -82 callgsubr
            -336 vlineto
            -148 114 -20 87 101 54 59 51 28 vhcurveto
            -56 -56 callsubr
            56 hlineto
            return
          </CharString>
          <CharString index="10">
            32 -32 0 -12 vhcurveto
            -73 hlineto
            -11 -33 0 -31 -32 32 0 12 hvcurveto
            73 hlineto
            return
          </CharString>
          <CharString index="11">
            -34 -10 -8 -36 hvcurveto
            return
          </CharString>
          <CharString index="12">
            vlineto
            -88 callsubr
            return
          </CharString>
          <CharString index="13">
            hlineto
            -50 callsubr
            36 hvcurveto
            return
          </CharString>
          <CharString index="14">
            -49 callsubr
            -108 hlineto
            -133 -73 rlineto
            -14 -8 -2 -1 -8 -7 callsubr
            36 hlineto
            202 73 rlineto
            11 4 8 3 10 vvcurveto
            endchar
          </CharString>
          <CharString index="15">
            495 167 rmoveto
            54 -26 41 -40 32 vhcurveto
            -46 36 -34 6 -92 16 rrcurveto
            -39 7 -61 11 44 vvcurveto
            47 56 13 49 87 46 -32 -24 33 vhcurveto
            -7 8 2 -1 5 hhcurveto
            12 2 10 11 2 hvcurveto
            10 56 rlineto
            1 3 1 7 3 vvcurveto
            11 -7 3 -21 8 vhcurveto
            26 -68 -53 5 -50 hhcurveto
            -195 -31 -110 -59 -51 26 -39 30 -25 hvcurveto
            50 -39 35 -7 89 -15 rrcurveto
            43 -8 65 -12 -49 vvcurveto
            -20 -11 -46 -101 -67 -68 26 55 -50 vhcurveto
            9 -8 137 callgsubr
            -12 -2 -10 -7 -1 hvcurveto
            -3 -15 -13 -65 -11 vvcurveto
            -10 1 -1 27 -13 vhcurveto
            -40 88 74 -5 42 hhcurveto
            188 37 108 69 hvcurveto
            return
          </CharString>
          <CharString index="16">
            30 callsubr
            hintmask 11001100
            -100 callgsubr
            return
          </CharString>
          <CharString index="17">
            -104 callsubr
            endchar
          </CharString>
          <CharString index="18">
            -20 -91 callsubr
            hintmask 00110000
            return
          </CharString>
          <CharString index="19">
            34 -8 10 -36 vhcurveto
            return
          </CharString>
          <CharString index="20">
            16 callsubr
            hintmask 0011001100000000
            -96 callsubr
            -32 vlineto
            33 -23 -43 43 -73 hhcurveto
            -146 -128 -122 -156 -142 128 -103 139 95 37 80 28 11 hvcurveto
            hintmask 1000000010000000
            1 -1 rlineto
            -121 vlineto
            -72 -61 -24 -60 -74 -66 15 32 -65 vhcurveto
            6 -12 -5 3 -5 hhcurveto
            hintmask 0100000000000000
            -14 0 -14 -15 hvcurveto
            -43 vlineto
            -25 1 -1 29 -7 vhcurveto
            hintmask 1011001010000000
            -10 39 66 -17 105 hhcurveto
            165 103 90 108 hvcurveto
            -144 293 rmoveto
            -3 0 -89 -22 -59 vhcurveto
            -42 -16 -28 -36 -50 hhcurveto
            -79 -72 71 98 115 79 87 87 40 31 -22 -34 20 hvcurveto
            hintmask 0000000100000000
            10 -16 0 -1 -18 vvcurveto
            return
          </CharString>
          <CharString index="21">
            -34 8 -10 36 -69 callgsubr
            return
          </CharString>
          <CharString index="22">
            hlineto
            -96 callsubr
            return
          </CharString>
          <CharString index="23">
            789 5 callsubr
            -38 -85 callsubr
            -537 vlineto
            -333 545 rlineto
            36 -22 -26 0 -21 hhcurveto
            -108 -44 callsubr
            537 vlineto
            333 -545 rlineto
            -36 22 26 0 21 hhcurveto
            108 -94 callsubr
            return
          </CharString>
          <CharString index="24">
            -49 callsubr
            -90 hlineto
            -21 -1 0 -15 -9 hvcurveto
            -34 -58 rlineto
            -3 -4 -4 -7 -6 vvcurveto
            -14 14 56 callgsubr
            111 73 rlineto
            11 7 2 6 4 vvcurveto
            229 hmoveto
            -51 callgsubr
            -90 hlineto
            -21 -1 0 -15 -9 hvcurveto
            -34 -58 rlineto
            -3 -4 -4 -7 -6 vvcurveto
            -14 14 56 callgsubr
            111 73 rlineto
            11 7 2 6 4 vvcurveto
            endchar
          </CharString>
          <CharString index="25">
            vlineto
            26 -1 2 -27 vhcurveto
            -86 hlineto
            -26 -2 -2 -26 hvcurveto
            -86 vlineto
            -28 1 0 36 vhcurveto
            return
          </CharString>
          <CharString index="26">
            -74 callsubr
            hintmask 00110000
            return
          </CharString>
          <CharString index="27">
            861 665 rmoveto
            19 -17 0 -15 vhcurveto
            -84 hlineto
            -18 -33 0 -33 -29 hvcurveto
            -210 -240 -211 240 rlineto
            33 -29 -34 0 -17 hhcurveto
            -105 hlineto
            -15 -17 0 -19 -6 2 -4 8 -9 hvcurveto
            328 -372 rlineto
            -230 vlineto
            12 callgsubr
            230 vlineto
            327 373 rlineto
            11 11 0 2 6 vvcurveto
            return
          </CharString>
          <CharString index="28">
            572 67 rmoveto
            9 -6 59 -1 9 vhcurveto
            8 -2 -4 5 -8 hhcurveto
            -5 -2 0 -18 -18 hvcurveto
            -59 -62 -70 -11 -47 hhcurveto
            -75 -80 53 148 89 28 115 131 78 36 -17 -40 52 hvcurveto
            -11 13 2 0 5 hhcurveto
            11 1 8 14 3 hvcurveto
            10 54 157 callsubr
            2 3 vvcurveto
            9 -7 4 0 vhcurveto
            7 -13 -71 38 -121 hhcurveto
            -197 -109 -147 -137 -147 125 -132 175 57 79 10 55 87 hvcurveto
            2 3 1 5 4 vvcurveto
            return
          </CharString>
          <CharString index="29">
            260 43 rmoveto
            599 vlineto
            40 -19 2 -25 vhcurveto
            -72 hlineto
            -21 -23 0 -41 hvcurveto
            -600 vlineto
            -38 14 -5 30 vhcurveto
            72 hlineto
            29 15 4 39 hvcurveto
            return
          </CharString>
          <CharString index="30">
            -77 callgsubr
            hintmask 00010000
            -23 -5 -36 -1 -14 hhcurveto
            hintmask 00001000
            -36 -17 40 -67 hhcurveto
            -81 -43 -49 -48 hvcurveto
            hintmask 00010000
            -18 10 0 19 vhcurveto
            19 hlineto
            21 4 0 16 3 hvcurveto
            hintmask 00001000
            23 5 35 1 7 hhcurveto
            hintmask 00010000
            -1 56 2 -39 78 hhcurveto
            75 41 50 47 hvcurveto
            endchar
          </CharString>
          <CharString index="31">
            vlineto
            -86 callsubr
            return
          </CharString>
          <CharString index="32">
            7 -2 5 -5 2 vhcurveto
            -141 62 -8 2 rlineto
            -174 hlineto
            -7 -8 -6 -7 -10 5 -3 7 -2 hvcurveto
            244 -62 rlineto
            72 hlineto
            8 9 3 9 hvcurveto
            endchar
          </CharString>
          <CharString index="33">
            -20 -79 callgsubr
            return
          </CharString>
          <CharString index="34">
            hstemhm
            76 146 90 42 callgsubr
            hintmask 01000010
            767 566 rmoveto
            86 -82 callsubr
            -1 -4 -10 -29 -8 -23 19 callgsubr
            -58 hlineto
            -34 -10 -8 -36 hvcurveto
            -279 vlineto
            hintmask 11001100
            -98 callsubr
            hintmask 00000010
            -50 callsubr
            36 hvcurveto
            302 -29 callgsubr
            return
          </CharString>
          <CharString index="35">
            98 callsubr
            -34 8 -10 36 vhcurveto
            56 hlineto
            -50 callsubr
            36 hvcurveto
            return
          </CharString>
          <CharString index="36">
            115 callgsubr
            104 -20 -1 callsubr
            hintmask 11001100
            -107 callsubr
            hintmask 00110000
            return
          </CharString>
          <CharString index="37">
            rmoveto
            -9 -9 -3 -8 vhcurveto
            -72 hlineto
            -244 62 rlineto
            -7 2 -5 3 10 vvcurveto
            7 8 6 7 vhcurveto
            174 hlineto
            8 -2 141 -62 rlineto
            5 -2 2 -5 -7 vvcurveto
            endchar
          </CharString>
          <CharString index="38">
            -34 8 -10 36 -47 callsubr
            return
          </CharString>
          <CharString index="39">
            rmoveto
            -25 -39 0 -37 -37 -39 0 25 25 39 0 37 37 39 0 -25 vhcurveto
            77 hmoveto
            37 -92 15 -61 -62 -91 -15 -37 -37 92 -15 61 62 91 15 37 vhcurveto
            return
          </CharString>
          <CharString index="40">
            932 639 rmoveto
            40 -19 2 -25 vhcurveto
            -794 hlineto
            -21 -23 0 -41 -40 19 -2 25 hvcurveto
            317 -554 -6 callgsubr
            554 317 91 callsubr
            hvcurveto
            return
          </CharString>
          <CharString index="41">
            150 callsubr
            342 vlineto
            127 -83 35 -103 -105 -62 -57 -51 -31 vhcurveto
            210 -63 callsubr
            -606 -29 callsubr
            return
          </CharString>
          <CharString index="42">
            89 callgsubr
            104 -93 callgsubr
            return
          </CharString>
          <CharString index="43">
            -77 callgsubr
            hintmask 01000000
            -23 -5 -36 -1 -14 hhcurveto
            hintmask 00100000
            -36 -17 40 -67 hhcurveto
            -81 -43 -49 -48 hvcurveto
            hintmask 01000000
            -18 10 0 19 vhcurveto
            19 hlineto
            21 4 0 16 3 hvcurveto
            hintmask 00100000
            23 5 35 1 7 hhcurveto
            hintmask 01000000
            -1 56 2 -39 78 hhcurveto
            75 41 50 47 hvcurveto
            endchar
          </CharString>
          <CharString index="44">
            -52 callsubr
            -34 -10 -8 -36 hvcurveto
            return
          </CharString>
          <CharString index="45">
            770 42 rmoveto
            41 -23 0 -21 vhcurveto
            -444 hlineto
            469 522 rlineto
            12 13 0 5 18 vvcurveto
            38 -14 5 -30 vhcurveto
            -580 hlineto
            -21 -23 0 -40 -40 23 0 21 hvcurveto
            418 hlineto
            -469 -523 rlineto
            -12 -13 0 -5 -19 vvcurveto
            -78 callgsubr
            606 hlineto
            24 20 1 41 hvcurveto
            return
          </CharString>
          <CharString index="46">
            720 41 rmoveto
            40 -19 2 -25 vhcurveto
            -415 557 hlineto
            -27 callsubr
            531 55 callsubr
            return
          </CharString>
          <CharString index="47">
            86 vlineto
            28 -1 0 -36 vhcurveto
            32 91 rlineto
            4 11 1 2 4 73 callgsubr
            -15 hlineto
            -21 -1 0 -15 -9 hvcurveto
            -68 -117 rlineto
            -104 vlineto
            -26 1 -2 27 vhcurveto
            86 -38 callgsubr
            return
          </CharString>
          <CharString index="48">
            0 callsubr
            98 -53 78 -52 40 vhcurveto
            7 12 62 86 rlineto
            8 11 3 4 9 vvcurveto
            22 -27 17 -15 -10 -10 -3 -15 -10 vhcurveto
            -73 -102 rlineto
            22 -46 -49 8 -40 hhcurveto
            -174 -132 -133 -154 -40 10 -91 95 -77 hvcurveto
            -14 -22 -54 -74 rlineto
            -8 -12 -4 -5 -10 vvcurveto
            -22 27 -17 15 17 7 10 7 5 vhcurveto
            38 51 0 2 37 52 rrcurveto
            -21 46 48 -7 40 hhcurveto
            54 callsubr
            -217 192 rmoveto
            -236 -328 rlineto
            -30 42 -4 55 39 vvcurveto
            45 0 166 182 49 37 -17 -2 2 vhcurveto
            93 -193 rmoveto
            -44 0 -156 -181 -12 -38 0 17 -37 vhcurveto
            234 326 rlineto
            31 -45 3 -58 -40 vvcurveto
            return
          </CharString>
          <CharString index="49">
            -87 callgsubr
            266 hmoveto
            -103 callgsubr
            endchar
          </CharString>
          <CharString index="50">
            39 callsubr
            -606 -76 callsubr
            return
          </CharString>
          <CharString index="51">
            vlineto
            -78 callgsubr
            return
          </CharString>
          <CharString index="52">
            -85 callsubr
            -594 -56 callsubr
            return
          </CharString>
          <CharString index="53">
            hstemhm
            77 -50 callgsubr
            return
          </CharString>
          <CharString index="54">
            33 callsubr
            159 rmoveto
            -105 callgsubr
          </CharString>
          <CharString index="55">
            -95 callsubr
            -56 hlineto
            return
          </CharString>
          <CharString index="56">
            33 callsubr
            94 -70 callsubr
          </CharString>
          <CharString index="57">
            34 10 8 return
          </CharString>
          <CharString index="58">
            rmoveto
            -51 callgsubr
            return
          </CharString>
          <CharString index="59">
            -18 -100 rlineto
            -2 -8 0 -4 0 vvcurveto
            -9 7 -4 0 vhcurveto
            -6 11 129 -64 170 hhcurveto
            188 121 111 115 hvcurveto
            return
          </CharString>
          <CharString index="60">
            vhcurveto
            58 -94 callsubr
            return
          </CharString>
          <CharString index="61">
            -68 callsubr
            endchar
          </CharString>
          <CharString index="62">
            rmoveto
            104 -82 callsubr
            -32 -91 rlineto
            -4 -11 -1 -2 -4 vvcurveto
            -14 13 0 15 vhcurveto
            15 hlineto
            21 1 0 15 9 hvcurveto
            return
          </CharString>
          <CharString index="63">
            -52 callgsubr
            38 -94 callsubr
            return
          </CharString>
          <CharString index="64">
            rlineto
            11 19 0 2 17 vvcurveto
            86 -82 callsubr
            return
          </CharString>
          <CharString index="65">
            hintmask 11001000
            -78 callsubr
            return
          </CharString>
          <CharString index="66">
            150 callsubr
            342 vlineto
            127 -83 35 -103 -98 -65 -49 -61 -36 vhcurveto
            14 callgsubr
            return
          </CharString>
          <CharString index="67">
            1015 5 callsubr
            -102 hlineto
            -22 -24 0 -37 -18 hvcurveto
            -241 -494 -242 494 rlineto
            37 -18 -24 0 -22 hhcurveto
            -102 -44 callsubr
            509 1 vlineto
            242 -495 rlineto
            -37 18 24 0 22 hhcurveto
            30 hlineto
            22 24 0 37 18 hvcurveto
            244 499 rlineto
            1 -513 13 callsubr
            43 -94 callsubr
            return
          </CharString>
          <CharString index="68">
            -24 callgsubr
            -13 -11 -1 -1 -6 -7 callsubr
            54 hlineto
            20 1 1 13 12 hvcurveto
            59 69 rlineto
            14 16 0 151 callgsubr
          </CharString>
          <CharString index="69">
            -96 callsubr
            -450 10 callsubr
            return
          </CharString>
          <CharString index="70">
            1069 -72 19 32 76 574 76 51 -20 hstemhm
            76 136 -30 136 432 136 -30 136 hintmask 00111010
            992 339 rmoveto
            115 -70 106 -101 64 vhcurveto
            53 64 rlineto
            7 8 5 8 10 vvcurveto
            22 -29 20 -15 -14 -6 -8 -9 -8 vhcurveto
            -64 -77 rlineto
            29 -69 -71 14 -76 hhcurveto
            -264 -194 -173 -193 -114 64 -95 106 -72 hvcurveto
            -6 -7 -42 -51 -4 -4 rrcurveto
            hintmask 11000101
            -7 -9 -5 -6 -11 vvcurveto
            -22 29 -20 15 15 5 7 17 15 vhcurveto
            57 69 rlineto
            -28 68 73 -14 75 hhcurveto
            262 196 131 callgsubr
            -296 260 rmoveto
            -394 -473 rlineto
            hintmask 01101001
            -33 29 -57 60 124 vvcurveto
            190 133 100 189 71 56 -15 -15 35 vhcurveto
            160 -260 rmoveto
            -183 -128 -101 -194 -44 -65 6 24 -53 vhcurveto
            392 472 rlineto
            80 -66 12 -95 -57 vvcurveto
            endchar
          </CharString>
          <CharString index="71">
            68 callsubr
            128 104 462 -20 return
          </CharString>
          <CharString index="72">
            -21 104 -89 callsubr
            return
          </CharString>
          <CharString index="73">
            -72 -85 callsubr
            return
          </CharString>
          <CharString index="74">
            646 -11 77 -66 21 662 21 hstemhm
            77 144 102 144 -43 145 -107 145 hintmask 00001000
            607 218 rmoveto
            97 -44 111 -96 63 vhcurveto
            hintmask 00000100
            31 14 71 34 64 vvcurveto
            hintmask 01111000
            76 -146 27 -100 -24 -64 0 -21 -65 vhcurveto
            -93 -30 0 -33 -28 vvcurveto
            -548 -76 callsubr
            543 vlineto
            23 0 18 102 vhcurveto
            hintmask 00000100
            24 77 0 -29 -57 -90 -3 -18 -1 hvcurveto
            -19 -1 0 -7 -21 vvcurveto
            -19 vlineto
            -18 0 -9 15 -1 vhcurveto
            hintmask 10000010
            106 -9 44 -108 -128 vvcurveto
            -25 0 -126 -95 -4 -29 0 13 -35 vhcurveto
            -3 1 -5 1 0 vvcurveto
            -11 -2 -6 -19 -7 hvcurveto
            hintmask 01000010
            -3 -7 -8 -22 -6 vvcurveto
            -23 85 -8 24 129 109 96 132 vhcurveto
            endchar
          </CharString>
          <CharString index="75">
            rmoveto
            -10 36 rlineto
            -25 callgsubr
            return
          </CharString>
          <CharString index="76">
            150 callsubr
            -26 callgsubr
            return
          </CharString>
          <CharString index="77">
            1323 -21 76 -55 86 228 80 207 83 -55 76 hstemhm
            24 158 453 157 hintmask 01110010
            1265 43 rmoveto
            38 -14 5 -30 vhcurveto
            -429 228 371 hlineto
            21 23 0 40 40 -23 0 -21 hvcurveto
            -371 207 410 85 callgsubr
            40 -19 2 -25 hvcurveto
            -492 hlineto
            -38 -49 7 4 -26 hvcurveto
            hintmask 10001100
            10 -72 -32 0 -12 hhcurveto
            -261 -196 -172 -194 -195 201 -165 255 18 30 0 11 70 hvcurveto
            hintmask 01000000
            5 41 43 5 28 hhcurveto
            511 hlineto
            29 15 4 39 hvcurveto
            -630 162 rmoveto
            hintmask 10001110
            -132 -41 -18 -103 -200 -109 158 141 137 113 138 196 103 41 -18 -132 vhcurveto
            endchar
          </CharString>
          <CharString index="78">
            vlineto
            -14 callsubr
            return
          </CharString>
          <CharString index="79">
            638 -87 callgsubr
            266 hmoveto
            -103 callgsubr
            return
          </CharString>
          <CharString index="80">
            34 -8 10 -36 66 callgsubr
            return
          </CharString>
          <CharString index="81">
            197 -41 callgsubr
            -66 -4 rlineto
            -24 -1 0 -6 -22 vvcurveto
            -20 vlineto
            -26 1 -2 27 vhcurveto
            69 hlineto
            94 50 -55 -84 -97 -63 -42 -78 -53 -91 14 67 -83 hvcurveto
            13 -14 -2 0 -4 hhcurveto
            -11 -2 -9 -19 -4 hvcurveto
            -3 -12 -5 -22 -3 vvcurveto
            -5 3 -5 0 vhcurveto
            -76 94 96 -23 82 hhcurveto
            176 122 106 112 hvcurveto
            endchar
          </CharString>
          <CharString index="82">
            117 -91 91 -108 -111 -90 -92 -116 -116 91 -92 110 108 91 91 117 vhcurveto
            return
          </CharString>
          <CharString index="83">
            -9 9 -3 8 vhcurveto
            22 hlineto
            -36 -102 rlineto
            -12 -4 7 -7 12 hhcurveto
            43 hlineto
            5 2 2 6 3 hvcurveto
            return
          </CharString>
          <CharString index="84">
            889 0 26 658 -20 hstem
            43 801 vstem
            844 19 rmoveto
            7 -1 0 -12 13 vhcurveto
            -310 324 256 282 rlineto
            11 12 0 8 0 vvcurveto
            19 -18 0 -14 vhcurveto
            -106 hlineto
            -16 -17 0 -18 -16 hvcurveto
            -167 -192 -168 192 rlineto
            18 -16 -17 0 -16 hhcurveto
            -121 hlineto
            -15 -18 0 -19 -5 2 -5 13 -13 hvcurveto
            269 -279 -293 -325 rlineto
            -11 -11 0 -2 -6 vvcurveto
            -19 16 0 16 vhcurveto
            106 hlineto
            31 4 5 16 14 hvcurveto
            204 243 206 -244 rlineto
            -20 17 14 0 19 hhcurveto
            122 hlineto
            15 17 0 19 hvcurveto
            endchar
          </CharString>
          <CharString index="85">
            854 0 86 227 80 206 85 return
          </CharString>
          <CharString index="86">
            931 43 rmoveto
            38 -14 5 -30 vhcurveto
            -224 hlineto
            11 26 17 34 64 58 rrcurveto
            86 76 75 71 104 vvcurveto
            141 -184 109 -236 -236 -184 -109 -141 -72 37 -64 78 -74 vhcurveto
            88 -81 28 -26 22 -52 rrcurveto
            -224 13 callgsubr
            267 hlineto
            18 26 0 37 84 -53 78 -43 64 hvcurveto
            -41 60 -43 63 68 vvcurveto
            102 113 73 147 148 112 -73 -102 -68 -44 -64 -39 -59 vhcurveto
            -44 -64 -53 -78 -84 vvcurveto
            -37 26 0 18 vhcurveto
            267 68 callgsubr
          </CharString>
          <CharString index="87">
            903 0 104 214 76 186 104 hstem
            101 157 413 155 vstem
            826 196 rmoveto
            94 -141 53 -110 16 vhcurveto
            81 15 131 43 85 vvcurveto
            105 -164 77 -169 vhcurveto
            -309 -52 callgsubr
            346 hlineto
            175 160 85 111 hvcurveto
            -192 304 rmoveto
            -62 -113 -44 -102 vhcurveto
            -161 186 159 hlineto
            58 159 -17 -63 hvcurveto
            37 -303 rmoveto
            -64 -132 -29 -86 vhcurveto
            -195 214 165 hlineto
            141 107 -55 -66 hvcurveto
            endchar
          </CharString>
          <CharString index="88">
            -4 14 -17 -6 0 vvcurveto
            -11 -28 -25 -6 -24 hhcurveto
            return
          </CharString>
          <CharString index="89">
            -107 callgsubr
            -26 257 -77 callgsubr
            return
          </CharString>
          <CharString index="90">
            197 rmoveto
            80 -74 68 -106 30 vhcurveto
            63 16 98 50 86 vvcurveto
            96 -110 92 -157 -160 -108 -94 -94 -86 98 -50 61 -16 vhcurveto
            -1 vlineto
            hintmask 11010010
            -105 -29 -73 -68 -80 vvcurveto
            -113 121 -105 165 169 118 106 112 vhcurveto
            -160 330 rmoveto
            -47 -3 -67 -123 vhcurveto
            hintmask 10101100
            -122 -5 64 50 64 15 48 111 110 17 -45 -67 hvcurveto
            9 -330 rmoveto
            -54 0 -84 -135 vhcurveto
            hintmask 01010010
            -134 -2 80 58 48 0 92 135 136 0 -92 -48 hvcurveto
            endchar
          </CharString>
          <CharString index="91">
            -292 -21 110 127 return
          </CharString>
          <CharString index="92">
            197 rmoveto
            80 -74 68 -106 30 vhcurveto
            63 16 98 50 86 vvcurveto
            96 -110 92 -157 -160 -108 -94 -94 -86 98 -50 61 -16 vhcurveto
            -1 vlineto
            -105 -29 -73 -68 -80 vvcurveto
            -113 121 -105 165 vhcurveto
            hintmask 01110100
            169 118 106 112 hvcurveto
            -160 330 rmoveto
            -47 -3 -67 -123 -122 -5 64 50 64 15 48 111 vhcurveto
            hintmask 11001000
            110 17 -45 -67 hvcurveto
            9 -330 rmoveto
            -54 0 -84 -135 -134 -2 80 58 48 0 92 135 136 0 -92 -48 vhcurveto
            endchar
          </CharString>
          <CharString index="93">
            -69 callsubr
            289 vlineto
            -68 callgsubr
            return
          </CharString>
          <CharString index="94">
            rmoveto
            40 -19 2 -25 vhcurveto
            -485 13 callgsubr
            374 hlineto
            -261 -212 -23 -273 -90 vvcurveto
            -38 14 -5 30 vhcurveto
            65 hlineto
            14 return
          </CharString>
          <CharString index="95">
            rmoveto
            62 -13 -215 5 -106 hhcurveto
            -37 hlineto
            -6 -1 -280 -1 15 -68 rrcurveto
            -12 2 14 -3 10 25 23 2 26 hhcurveto
            16 16 -1 -3 16 hvcurveto
            -4 53 53 0 53 hhcurveto
            72 70 1 6 70 hvcurveto
            104 hlineto
            15 7 5 12 -3 hvcurveto
            endchar
          </CharString>
          <CharString index="96">
            -9 callgsubr
            hintmask 00100000
            return
          </CharString>
          <CharString index="97">
            260 627 -91 callgsubr
            return
          </CharString>
          <CharString index="98">
            278 rmoveto
            82 -17 83 -56 59 vhcurveto
            57 -56 -82 18 -80 hhcurveto
            -80 -82 -18 -57 -56 hvcurveto
            -56 -59 -17 -83 -82 vvcurveto
            -82 17 -83 56 -59 vhcurveto
            -57 56 82 -18 80 hhcurveto
            80 82 18 57 56 hvcurveto
            56 59 17 83 82 vvcurveto
            -147 hmoveto
            -58 -5 -60 -31 -49 vhcurveto
            -36 -24 -41 -20 -43 hhcurveto
            -43 -41 20 36 -24 hvcurveto
            -31 49 -5 60 58 vvcurveto
            58 5 60 31 49 vhcurveto
            36 24 41 20 43 hhcurveto
            43 41 -20 -36 24 hvcurveto
            31 -49 5 -60 -58 vvcurveto
            endchar
          </CharString>
          <CharString index="99">
            682 -87 callgsubr
            266 hmoveto
            -103 callgsubr
            return
          </CharString>
          <CharString index="100">
            vvcurveto
            -6 callsubr
            return
          </CharString>
          <CharString index="101">
            -14 12 0 16 vhcurveto
            return
          </CharString>
          <CharString index="102">
            vlineto
            -35 callgsubr
            return
          </CharString>
          <CharString index="103">
            32 callgsubr
            335 117 -45 callsubr
            endchar
          </CharString>
          <CharString index="104">
            rmoveto
            34 vlineto
            26 -1 2 -27 vhcurveto
            -211 hlineto
            -26 -2 -2 -26 hvcurveto
            -33 vlineto
            -27 2 -2 27 vhcurveto
            210 -34 callgsubr
          </CharString>
          <CharString index="105">
            rmoveto
            2 4 0 5 -2 4 -153 298 rcurveline
            5 -2 -5 3 -5 hhcurveto
            -48 hlineto
            -10 -6 -9 -9 2 hvcurveto
            82 -294 -82 -295 rlineto
            -9 -2 6 -9 10 hhcurveto
            48 hlineto
            5 5 3 5 2 hvcurveto
            return
          </CharString>
          <CharString index="106">
            hstemhm
            52 143 238 146 return
          </CharString>
          <CharString index="107">
            649 266 rmoveto
            return
          </CharString>
          <CharString index="108">
            865 21 -21 252 90 238 104 hstem
            101 160 372 155 vstem
            788 461 rmoveto
            123 -147 100 -173 vhcurveto
            -323 -52 callgsubr
            72 hlineto
            -50 callsubr
            36 hvcurveto
            208 208 vlineto
            170 149 92 117 hvcurveto
            -155 hmoveto
            -95 -86 -24 -99 vhcurveto
            -189 238 191 hlineto
            101 82 -24 -95 hvcurveto
            endchar
          </CharString>
          <CharString index="109">
            -21 104 37 callgsubr
            return
          </CharString>
          <CharString index="110">
            198 rmoveto
            40 -23 0 -21 vhcurveto
            -83 422 51 callgsubr
            -92 hlineto
            -30 -4 -5 -15 -10 hvcurveto
            -294 -431 rlineto
            -10 -15 0 -3 -19 vvcurveto
            -14 -56 callsubr
            311 -114 13 callsubr
            41 -94 callsubr
            114 83 vlineto
            21 23 0 40 hvcurveto
            -253 40 rmoveto
            -243 hlineto
            243 357 rlineto
            endchar
          </CharString>
          <CharString index="111">
            -20 hstemhm
            38 146 319 146 hintmask 10011000
            -99 callsubr
            hintmask 01100000
            54 return
          </CharString>
          <CharString index="112">
            44 rmoveto
            596 -95 callsubr
            return
          </CharString>
          <CharString index="113">
            hstemhm
            100 160 -42 callsubr
            return
          </CharString>
          <CharString index="114">
            51 callgsubr
            -53 -85 callsubr
            return
          </CharString>
          <CharString index="115">
            hlineto
            -35 callgsubr
            return
          </CharString>
          <CharString index="116" raw="1">
            fb349a15 fb4bfb14 fb03fb39 fb39fb14
            f703f74b f743f718 ecf735f7 35f7182a
            fb431e13 300b  
          </CharString>
          <CharString index="117">
            -62 callgsubr
            289 vlineto
            return
          </CharString>
          <CharString index="118">
            894 -21 104 601 -20 return
          </CharString>
          <CharString index="119">
            681 -161 76 -49 76 83 76 371 76 return
          </CharString>
          <CharString index="120">
            hlineto
            -78 callgsubr
            return
          </CharString>
          <CharString index="121">
            -10 -11 callgsubr
            return
          </CharString>
          <CharString index="122">
            -62 callgsubr
            147 vlineto
            -45 42 48 -17 48 hhcurveto
            143 130 118 162 hvcurveto
            -146 hmoveto
            -121 -82 -83 -84 -48 -33 28 23 -18 vhcurveto
            311 vlineto
            8 8 43 33 61 hhcurveto
            85 68 -90 -109 hvcurveto
            endchar
          </CharString>
          <CharString index="123">
            rmoveto
            467 -52 callsubr
            return
          </CharString>
          <CharString index="124">
            982 339 rmoveto
            return
          </CharString>
          <CharString index="125">
            21 callsubr
            endchar
          </CharString>
          <CharString index="126">
            13 -3 -13 1 -11 hhcurveto
            -98 hlineto
            -4 -5 0 -1 -4 hvcurveto
            -8 -2 -4 -10 -3 -7 -29 -48 rcurveline
            -4 -6 -7 -7 2 -9 1 -3 rcurveline
            -10 4 16 -2 9 7 5 1 6 hhcurveto
            11 hlineto
            16 16 14 9 13 hvcurveto
            26 17 65 32 -4 18 rrcurveto
            return
          </CharString>
          <CharString index="127">
            -12 -9 -9 -12 hvcurveto
            -42 vlineto
            -12 9 -9 12 vhcurveto
            return
          </CharString>
          <CharString index="128">
            688 651 -21 104 27 callgsubr
            return
          </CharString>
          <CharString index="129">
            24 callgsubr
            endchar
          </CharString>
          <CharString index="130">
            -25 callsubr
            -470 hmoveto
            -25 callsubr
            return
          </CharString>
          <CharString index="131">
            688 474 79 return
          </CharString>
          <CharString index="132">
            151 -78 154 -143 154 181 154 -151 151 hintmask 00110000
            return
          </CharString>
          <CharString index="133">
            361 28 callgsubr
            return
          </CharString>
          <CharString index="134">
            rmoveto
            29 -20 16 -36 vhcurveto
            -804 hlineto
            145 callgsubr
            11 hvcurveto
            802 hlineto
            11 46 0 46 hvcurveto
            return
          </CharString>
          <CharString index="135">
            31 callsubr
            -134 return
          </CharString>
          <CharString index="136">
            557 644 -107 callgsubr
            return
          </CharString>
          <CharString index="137">
            hstemhm
            17 callgsubr
            return
          </CharString>
          <CharString index="138">
            -107 callgsubr
            hintmask 00000010
            return
          </CharString>
          <CharString index="139">
            588 320 rmoveto
            97 -57 136 -197 -171 -125 -133 -148 -153 136 -129 178 vhcurveto
            11 hlineto
            -31 -28 -32 -40 -40 vvcurveto
            -56 44 -30 49 56 33 11 23 51 vhcurveto
            return
          </CharString>
          <CharString index="140">
            -104 callsubr
            -32 return
          </CharString>
          <CharString index="141">
            912 vlineto
            14 0 30 -30 -31 0 -29 -15 vhcurveto
            -912 47 callgsubr
            return
          </CharString>
          <CharString index="142">
            hhcurveto
            -174 -132 -133 -154 -151 135 -125 170 return
          </CharString>
          <CharString index="143">
            898 21 59 callsubr
            return
          </CharString>
          <CharString index="144">
            -20 -54 callsubr
            hintmask 00110000
            return
          </CharString>
          <CharString index="145">
            51 callsubr
            385 146 return
          </CharString>
          <CharString index="146">
            rmoveto
            606 -63 callsubr
            return
          </CharString>
          <CharString index="147">
            145 169 145 return
          </CharString>
          <CharString index="148">
            26 33 2 8 35 hvcurveto
            -306 -90 vlineto
            -14 -17 0 -23 -23 17 0 14 hvcurveto
            281 hlineto
            return
          </CharString>
          <CharString index="149">
            -20 -10 -20 -11 -17 -14 -54 -44 rcurveline
            hintmask 10010000
            14 -17 rlineto
            41 49 53 30 51 hhcurveto
            40 29 -17 -20 35 hvcurveto
            -17 29 31 -17 40 hhcurveto
            hintmask 01000000
            25 26 8 10 22 hvcurveto
            return
          </CharString>
          <CharString index="150">
            rrcurveto
            -15 -13 -10 -20 -22 vvcurveto
            -40 33 -33 40 18 17 7 11 13 vhcurveto
            47 41 118 -24 89 -19 rrcurveto
            -9 43 43 -7 44 hhcurveto
            113 93 89 111 hvcurveto
            endchar
          </CharString>
          <CharString index="151">
            rmoveto
            126 -113 108 -149 -37 -38 -7 -14 -35 vhcurveto
            return
          </CharString>
          <CharString index="152">
            hstemhm
            76 146 -3 146 return
          </CharString>
          <CharString index="153">
            -56 callsubr
            58 hlineto
            44 0 18 34 hvcurveto
            -57 53 57 -5 28 hhcurveto
            142 131 117 163 hvcurveto
            -146 2 rmoveto
            -43 -2 -59 -33 -44 vhcurveto
            return
          </CharString>
          <CharString index="154">
            899 21 -21 316 80 288 -20 return
          </CharString>
          <CharString index="155">
            -1 callgsubr
            -470 54 callgsubr
            return
          </CharString>
          <CharString index="156">
            69 479 -20 hstemhm
            76 146 90 42 callgsubr
            return
          </CharString>
          <CharString index="157">
            651 85 callsubr
            return
          </CharString>
          <CharString index="158">
            hstemhm
            101 160 return
          </CharString>
          <CharString index="159">
            rlineto
            37 hlineto
            15 return
          </CharString>
          <CharString index="160">
            rmoveto
            35 -28 28 -35 -35 -28 -28 -35 -35 28 -28 35 35 28 28 35 vhcurveto
            return
          </CharString>
          <CharString index="161">
            173 133 127 149 hvcurveto
            return
          </CharString>
          <CharString index="162">
            85 callgsubr
            hvcurveto
            return
          </CharString>
          <CharString index="163">
            vvcurveto
            57 callgsubr
          </CharString>
          <CharString index="164">
            -77 -38 -56 -41 -76 0 89 43 45 0 88 76 43 36 -59 -73 vhcurveto
            return
          </CharString>
          <CharString index="165">
            917 -10 59 callgsubr
            return
          </CharString>
          <CharString index="166">
            -21 304 76 200 104 return
          </CharString>
          <CharString index="167">
            24 -22 0 -15 vhcurveto
            return
          </CharString>
          <CharString index="168">
            151 -151 154 268 151 hintmask 01111000
            return
          </CharString>
          <CharString index="169">
            -22 callsubr
            82 -21 return
          </CharString>
          <CharString index="170">
            21 -21 462 76 90 76 hstem
            119 144 return
          </CharString>
          <CharString index="171">
            -8 -1 -6 -11 -3 hvcurveto
            -2 -7 -4 -13 -2 vvcurveto
            -3 2 -3 0 vhcurveto
            -46 68 69 -14 59 hhcurveto
            127 88 64 67 hvcurveto
            return
          </CharString>
          <CharString index="172">
            -55 -32 34 17 -13 hvcurveto
            312 vlineto
            23 23 41 20 49 hhcurveto
            50 47 -23 -39 26 hvcurveto
            24 -37 5 -47 -54 vvcurveto
            endchar
          </CharString>
          <CharString index="173">
            rmoveto
            24 -17 0 -15 vhcurveto
            -60 253 hlineto
            20 -6 6 -25 vhcurveto
            -67 hlineto
            -21 -3 -3 -9 -7 hvcurveto
            -212 -258 rlineto
            return
          </CharString>
          <CharString index="174">
            hstem
            120 142 vstem
            262 return
          </CharString>
          <CharString index="175">
            889 21 -21 return
          </CharString>
          <CharString index="176">
            -29 -25 21 -45 39 hhcurveto
            13 13 6 10 8 hvcurveto
            440 152 rmoveto
            -174 hlineto
            174 214 rlineto
            endchar
          </CharString>
          <CharString index="177">
            -21 76 -76 80 344 76 160 76 hstemhm
            return
          </CharString>
          <CharString index="178">
            79 393 76 154 -20 return
          </CharString>
          <CharString index="179">
            101 158 407 155 return
          </CharString>
          <CharString index="180">
            rmoveto
            60 callsubr
            return
          </CharString>
          <CharString index="181">
            vmoveto
            76 callsubr
          </CharString>
          <CharString index="182">
            hlineto
            -56 -143 rlineto
            -7 -15 -9 -23 -10 vvcurveto
            -22 18 -23 28 30 10 24 11 4 vhcurveto
            80 201 rlineto
            return
          </CharString>
          <CharString index="183">
            -102 callsubr
            endchar
          </CharString>
          <CharString index="184">
            426 299 rmoveto
            23 -19 0 -12 vhcurveto
            -83 357 hlineto
            return
          </CharString>
          <CharString index="185" raw="1">
            806f7285 731be21d 0b 
          </CharString>
          <CharString index="186">
            95 -95 98 533 95 return
          </CharString>
          <CharString index="187">
            24 7 5 21 hvcurveto
            69 60 vlineto
            15 17 0 24 hvcurveto
            -73 516 rmoveto
            29 25 -21 45 -38 hhcurveto
            return
          </CharString>
          <CharString index="188">
            76 0 76 330 76 146 -20 97 callsubr
            return
          </CharString>
          <CharString index="189">
            604 -149 93 594 -20 return
          </CharString>
          <CharString index="190">
            681 21 -21 470 78 return
          </CharString>
          <CharString index="191">
            840 0 83 521 80 return
          </CharString>
          <CharString index="192">
            -21 104 -20 hstem
            return
          </CharString>
          <CharString index="193">
            -152 -32 callsubr
            return
          </CharString>
          <CharString index="194">
            25 -24 rlineto
            -3 3 4 -4 5 hhcurveto
            5 3 3 2 2 hvcurveto
            13 13 41 40 75 hhcurveto
            return
          </CharString>
          <CharString index="195">
            hstemhm
            101 158 109 161 137 155 return
          </CharString>
          <CharString index="196">
            -36 callsubr
            92 -21 return
          </CharString>
          <CharString index="197">
            0 callgsubr
            61 -21 return
          </CharString>
          <CharString index="198">
            vlineto
            -8 callgsubr
            return
          </CharString>
          <CharString index="199">
            hlineto
            -3 -4 0 -1 -3 hvcurveto
            -18 -2 -5 -23 3 -18 rrcurveto
            -18 4 14 -15 26 hhcurveto
            return
          </CharString>
          <CharString index="200">
            993 0 86 543 76 hstem
            76 160 180 160 180 160 return
          </CharString>
          <CharString index="201">
            97 callsubr
            121 106 callsubr
            return
          </CharString>
          <CharString index="202">
            688 -83 -21 94 76 411 76 90 -20 return
          </CharString>
          <CharString index="203">
            899 28 callgsubr
            return
          </CharString>
          <CharString index="204">
            hstemhm
            46 146 return
          </CharString>
          <CharString index="205">
            450 -63 callsubr
            -450 vlineto
            return
          </CharString>
          <CharString index="206">
            -36 callsubr
            81 89 30 -20 138 callgsubr
            return
          </CharString>
          <CharString index="207">
            394 rmoveto
            58 -73 35 -54 12 vhcurveto
            19 7 80 31 68 vvcurveto
            57 -85 43 return
          </CharString>
          <CharString index="208">
            hstem
            76 146 236 146 return
          </CharString>
          <CharString index="209">
            hlineto
            32 5 22 27 -6 hvcurveto
            1 -247 rmoveto
            22 -5 -19 10 -20 hhcurveto
            return
          </CharString>
          <CharString index="210">
            497 -10 71 callsubr
            return
          </CharString>
          <CharString index="211">
            87 callgsubr
            34 33 40 33 21 hvcurveto
            return
          </CharString>
          <CharString index="212">
            142 67 callsubr
            return
          </CharString>
          <CharString index="213">
            146 -2 146 return
          </CharString>
          <CharString index="214">
            hlineto
            -7 -6 -5 -7 -1 hvcurveto
            -13 -76 rlineto
            -10 -1 7 -6 7 hhcurveto
            return
          </CharString>
          <CharString index="215">
            854 -204 79 -79 86 118 86 227 80 206 85 return
          </CharString>
          <CharString index="216">
            688 0 142 hstemhm
            185 142 0 142 -17 142 return
          </CharString>
          <CharString index="217">
            75 -35 75 hstemhm
            return
          </CharString>
          <CharString index="218">
            -10 36 rlineto
            -19 callsubr
            return
          </CharString>
          <CharString index="219">
            135 callsubr
            hstemhm
            109 return
          </CharString>
          <CharString index="220">
            hlineto
            28 -2 -9 8 -33 hhcurveto
            -56 hlineto
            -31 -11 -7 -29 -2 hvcurveto
            return
          </CharString>
          <CharString index="221">
            145 callgsubr
            10 hvcurveto
            return
          </CharString>
          <CharString index="222">
            778 148 callsubr
            return
          </CharString>
          <CharString index="223">
            110 161 vstem
            271 return
          </CharString>
          <CharString index="224">
            hvcurveto
            -550 -644 rlineto
            return
          </CharString>
          <CharString index="225">
            -21 434 114 return
          </CharString>
          <CharString index="226">
            -160 80 0 81 197 77 -77 81 221 76 hstemhm
            return
          </CharString>
          <CharString index="227">
            51 callsubr
            270 89 -15 89 -89 160 -79 89 return
          </CharString>
          <CharString index="228">
            648 rmoveto
            35 -7 12 -37 vhcurveto
            -59 hlineto
            -36 -8 -11 -36 return
          </CharString>
          <CharString index="229">
            rmoveto
            -80 775 hlineto
            2 13 rlineto
            77 -755 hlineto
            endchar
          </CharString>
          <CharString index="230">
            535 -187 -21 972 -20 21 -20 hstemhm
            hintmask 00100000
            return
          </CharString>
          <CharString index="231">
            56 33 11 23 51 hvcurveto
            16 7 -4 7 -1 4 rrcurveto
            return
          </CharString>
          <CharString index="232">
            27 50 27 hstem
            -476 77 152 77 vstem
            -247 return
          </CharString>
          <CharString index="233">
            3 16 -14 23 hhcurveto
            82 hlineto
            25 11 13 19 -4 hvcurveto
            return
          </CharString>
          <CharString index="234">
            192 hlineto
            162 131 -66 -177 hvcurveto
            endchar
          </CharString>
          <CharString index="235">
            430 142 122 -20 hstem
            return
          </CharString>
          <CharString index="236">
            80 156 76 348 76 hstemhm
            return
          </CharString>
          <CharString index="237">
            1271 14 -21 return
          </CharString>
          <CharString index="238">
            21 -21 694 -20 return
          </CharString>
          <CharString index="239">
            1375 18 -21 236 91 236 -20 hstem
            return
          </CharString>
          <CharString index="240">
            -20 94 callsubr
            return
          </CharString>
          <CharString index="241">
            -78 callgsubr
            72 -94 callsubr
            return
          </CharString>
          <CharString index="242">
            45 callgsubr
            684 -20 return
          </CharString>
          <CharString index="243">
            27 50 27 140 -20 return
          </CharString>
          <CharString index="244">
            17 14 14 17 return
          </CharString>
          <CharString index="245">
            143 -99 160 151 160 hintmask 00111000
            return
          </CharString>
          <CharString index="246">
            110 callsubr
            38 146 319 146 return
          </CharString>
          <CharString index="247">
            rlineto
            22 -10 -15 0 -13 hhcurveto
            -61 hlineto
            -21 -6 return
          </CharString>
          <CharString index="248">
            75 -35 75 30 callsubr
            return
          </CharString>
          <CharString index="249">
            -7 callgsubr
            hstemhm
            76 146 return
          </CharString>
          <CharString index="250">
            879 -10 83 538 83 return
          </CharString>
          <CharString index="251">
            46 111 227 111 return
          </CharString>
          <CharString index="252">
            42 159 callsubr
            -12 vhcurveto
            return
          </CharString>
          <CharString index="253">
            -404 161 vstem
            -243 return
          </CharString>
          <CharString index="254">
            635 -21 107 598 -20 return
          </CharString>
          <CharString index="255">
            0 83 601 -20 return
          </CharString>
          <CharString index="256">
            688 620 -21 return
          </CharString>
          <CharString index="257">
            604 44 rmoveto
            return
          </CharString>
          <CharString index="258">
            151 0 151 -52 151 hintmask 10000100
            return
          </CharString>
          <CharString index="259">
            hhcurveto
            39 hlineto
            21 -4 17 14 3 hvcurveto
            27 return
          </CharString>
          <CharString index="260">
            hlineto
            -23 -19 -13 -16 -17 19 -13 23 hvcurveto
            return
          </CharString>
          <CharString index="261">
            126 149 126 149 126 return
          </CharString>
          <CharString index="262">
            hlineto
            10 0 47 -45 -46 0 -46 -11 vhcurveto
            return
          </CharString>
          <CharString index="263">
            11 callsubr
            112 -21 return
          </CharString>
          <CharString index="264">
            rlineto
            2 8 0 return
          </CharString>
          <CharString index="265">
            hhcurveto
            -6 -4 -4 return
          </CharString>
          <CharString index="266">
            vlineto
            12 -9 9 return
          </CharString>
        <CharString name=".notdef">
          280 endchar
        </CharString>
        <CharString name="A">
          -36 callsubr
          hstem
          50 788 vstem
          -106 callsubr
          endchar
        </CharString>
        <CharString name="AE">
          77 callgsubr
          hstemhm
          562 159 hintmask 10010100
          38 callgsubr
          hintmask 11011100
          -36 callgsubr
          endchar
        </CharString>
        <CharString name="AE.dup">
          77 callgsubr
          hstemhm
          562 159 hintmask 10010100
          38 callgsubr
          hintmask 11011100
          -36 callgsubr
          endchar
        </CharString>
        <CharString name="AEacute">
          77 callgsubr
          92 -21 90 -20 hstemhm
          562 159 hintmask 10010001
          38 callgsubr
          hintmask 11011001
          -36 callgsubr
          hintmask 00000110
          253 231 rmoveto
          -105 callgsubr
        </CharString>
        <CharString name="Aacute">
          -36 callsubr
          102 -21 90 -89 callgsubr
          241 276 rmoveto
          -105 callgsubr
        </CharString>
        <CharString name="Abreve">
          889 21 -21 128 104 462 -20 81 89 30 -89 callgsubr
          216 286 -90 callsubr
        </CharString>
        <CharString name="Abreveacute">
          -36 callsubr
          81 89 170 -89 callgsubr
          216 286 -53 callsubr
        </CharString>
        <CharString name="Abrevedotbelow">
          99 callsubr
          -475 161 hintmask 11111100
          -106 callsubr
          216 286 -104 callsubr
          hintmask 00000010
          -126 -1011 -102 callgsubr
        </CharString>
        <CharString name="Abrevegrave">
          889 21 -21 128 104 462 -20 81 89 30 -89 callgsubr
          216 286 -51 callsubr
        </CharString>
        <CharString name="Abrevehookabove">
          -36 callsubr
          81 89 30 89 0 89 52 -20 138 callgsubr
          hintmask 11100001
          -106 callsubr
          hintmask 00011010
          216 286 -104 callsubr
          -83 177 rmoveto
          27 -14 24 -23 14 vhcurveto
          16 -26 -31 4 -36 hhcurveto
          hintmask 00000100
          -43 -40 -19 -33 -27 hvcurveto
          -2 -2 -1 -3 -4 vvcurveto
          1 -4 12 -34 rlineto
          0 1 -3 2 -1 vhcurveto
          10 -5 11 -6 2 6 rrcurveto
          34 11 29 24 34 hhcurveto
          28 19 -3 -9 15 hvcurveto
          10 -7 6 -12 -14 -49 -95 29 -49 vvcurveto
          -22 vlineto
          -7 7 -7 7 vhcurveto
          5 hlineto
          8 6 7 7 hvcurveto
          22 vlineto
          26 3 26 8 24 12 rrcurveto
          22 11 16 21 24 vvcurveto
          endchar
        </CharString>
        <CharString name="Abrevetilde">
          -36 callsubr
          81 89 100 75 -35 75 138 callgsubr
          hintmask 11100010
          -106 callsubr
          hintmask 00010100
          216 286 -104 callsubr
          -17 199 -77 callgsubr
          hintmask 00001000
          -23 -5 -36 -1 -14 hhcurveto
          hintmask 00000100
          -36 -17 40 -67 hhcurveto
          -81 -43 -49 -48 hvcurveto
          hintmask 00001000
          -18 10 0 19 vhcurveto
          19 hlineto
          21 4 0 16 3 hvcurveto
          hintmask 00000100
          23 5 35 1 7 hhcurveto
          hintmask 00001000
          -1 56 2 -39 78 hhcurveto
          75 41 50 47 hvcurveto
          endchar
        </CharString>
        <CharString name="Acaron">
          89 callsubr
          104 -57 callgsubr
          279 -101 callsubr
        </CharString>
        <CharString name="Acircumflex">
          89 callsubr
          104 -57 callgsubr
          203 -98 callgsubr
        </CharString>
        <CharString name="Acircumflexacute">
          89 callsubr
          244 -57 callgsubr
          203 -107 callgsubr
          -41 217 rmoveto
          -105 callgsubr
        </CharString>
        <CharString name="Acircumflexdotbelow">
          89 callsubr
          104 -20 138 callgsubr
          -475 161 hintmask 11111100
          -106 callsubr
          224 203 28 callsubr
          -928 -102 callgsubr
        </CharString>
        <CharString name="Acircumflexgrave">
          89 callsubr
          104 -57 callgsubr
          203 -107 callgsubr
          -40 152 -70 callsubr
        </CharString>
        <CharString name="Acircumflexhookabove">
          89 callsubr
          334 -57 callgsubr
          203 -107 callgsubr
          30 235 -106 callgsubr
        </CharString>
        <CharString name="Acircumflextilde">
          89 callsubr
          174 75 -35 75 138 callgsubr
          hintmask 11100010
          -106 callsubr
          hintmask 00010100
          224 203 -48 callgsubr
        </CharString>
        <CharString name="Adblgrave">
          -36 callsubr
          102 -21 104 -89 callgsubr
          163 213 -100 callsubr
        </CharString>
        <CharString name="Adieresis">
          -36 callsubr
          71 57 138 callgsubr
          -622 40 callsubr
          hintmask 11101000
          -106 callsubr
          hintmask 00010110
          -73 217 -73 callgsubr
        </CharString>
        <CharString name="Adotbelow">
          -36 callsubr
          138 callgsubr
          -475 161 hintmask 11110000
          -106 callsubr
          hintmask 00001000
          90 -725 -102 callgsubr
        </CharString>
        <CharString name="Agrave">
          -36 callsubr
          102 -21 90 -89 callgsubr
          126 211 rmoveto
          -75 callsubr
        </CharString>
        <CharString name="Ahookabove">
          -36 callsubr
          82 -21 200 -89 callgsubr
          132 294 -106 callgsubr
        </CharString>
        <CharString name="Alpha">
          -36 callsubr
          hstem
          50 788 vstem
          -106 callsubr
          endchar
        </CharString>
        <CharString name="Amacron">
          -36 callsubr
          91 90 138 callgsubr
          hintmask 11101000
          -106 callsubr
          hintmask 00010000
          259 237 -90 callgsubr
        </CharString>
        <CharString name="Aogonek">
          889 -204 79 hstem
          603 89 66 89 vstem
          847 -152 -33 callgsubr
          44 hlineto
          15 21 0 23 6 -3 7 -2 4 hvcurveto
          -270 618 rlineto
          36 -16 -26 0 -19 hhcurveto
          -116 hlineto
          -19 -26 0 -36 -16 hvcurveto
          -269 -616 rlineto
          -2 -5 -4 -8 -6 vvcurveto
          -23 21 0 15 vhcurveto
          61 hlineto
          45 7 17 30 13 hvcurveto
          35 81 rlineto
          374 hlineto
          36 -81 8 -19 6 -14 14 -7 rlinecurve
          -34 -27 -48 -50 -48 -44 callgsubr
          rrcurveto
          -271 384 rmoveto
          -283 hlineto
          141 324 rlineto
          endchar
        </CharString>
        <CharString name="Aogonekacute">
          889 -204 79 901 -21 90 -20 hstemhm
          603 89 66 89 hintmask 10011000
          847 -152 -33 callgsubr
          44 hlineto
          15 21 0 23 6 -3 7 -2 4 hvcurveto
          -270 618 rlineto
          36 -16 -26 0 -19 hhcurveto
          -116 hlineto
          -19 -26 0 -36 -16 hvcurveto
          -269 -616 rlineto
          -2 -5 -4 -8 -6 vvcurveto
          -23 21 0 15 vhcurveto
          61 hlineto
          45 7 17 30 13 hvcurveto
          35 81 rlineto
          374 hlineto
          36 -81 8 -19 6 -14 14 -7 rlinecurve
          -34 -27 -48 -50 -48 -44 callgsubr
          rrcurveto
          -271 384 rmoveto
          -283 hlineto
          141 324 rlineto
          hintmask 01100000
          241 276 rmoveto
          -105 callgsubr
        </CharString>
        <CharString name="Aring">
          68 callsubr
          128 104 462 27 50 27 138 callgsubr
          -547 77 152 77 hintmask 11101000
          -106 callsubr
          hintmask 00110110
          86 190 -46 callsubr
        </CharString>
        <CharString name="Aringacute">
          68 callsubr
          128 104 462 136 callsubr
          138 callgsubr
          -547 77 152 77 hintmask 11100100
          -106 callsubr
          hintmask 00111011
          86 190 -68 callsubr
          20 179 rmoveto
          -105 callgsubr
        </CharString>
        <CharString name="Atilde">
          -36 callsubr
          71 75 -35 75 -92 callgsubr
          hintmask 00001000
          198 286 -77 callsubr
        </CharString>
        <CharString name="B">
          -20 callsubr
        </CharString>
        <CharString name="Beta">
          -20 callsubr
        </CharString>
        <CharString name="C">
          143 callsubr
          hstem
          76 160 vstem
          -83 callgsubr
          endchar
        </CharString>
        <CharString name="Cacute">
          143 callsubr
          82 147 callgsubr
          hintmask 11001000
          -83 callgsubr
          hintmask 00110000
          -94 773 rmoveto
          -105 callgsubr
        </CharString>
        <CharString name="Ccaron">
          143 callsubr
          72 -21 104 -20 hstemhm
          76 160 hintmask 11001000
          -83 callgsubr
          hintmask 00110000
          -110 776 -101 callsubr
        </CharString>
        <CharString name="Ccedilla">
          879 -164 83 60 83 560 83 hstem
          355 160 -146 160 -146 160 cntrmask 00011100
          65 callgsubr
          -187 -117 139 141 151 129 129 170 33 callgsubr
          -284 -180 -180 -183 -181 178 -182 287 126 callgsubr
          -265 -109 -39 callsubr
        </CharString>
        <CharString name="Ccircumflex">
          143 callsubr
          72 -21 104 -20 hstemhm
          76 160 hintmask 11001000
          -83 callgsubr
          hintmask 00110000
          -111 700 -98 callgsubr
        </CharString>
        <CharString name="Cdotaccent">
          143 callsubr
          66 63 hstemhm
          76 160 166 161 hintmask 11010000
          -83 callgsubr
          hintmask 00101000
          -244 732 -102 callgsubr
        </CharString>
        <CharString name="Chi">
          -23 callsubr
        </CharString>
        <CharString name="D">
          146 callgsubr
          hstem
          101 158 485 158 vstem
          -39 callgsubr
          endchar
        </CharString>
        <CharString name="Dcaron">
          146 callgsubr
          82 -21 104 -20 hstemhm
          101 158 485 158 hintmask 11001100
          -39 callgsubr
          hintmask 00110000
          -175 498 -101 callsubr
        </CharString>
        <CharString name="Dcroat">
          -23 callgsubr
        </CharString>
        <CharString name="Ddotbelow">
          146 callgsubr
          hstemhm
          101 158 15 161 309 158 hintmask 11101000
          -39 callgsubr
          hintmask 00010000
          -309 -506 -102 callgsubr
        </CharString>
        <CharString name="Delta">
          1146 0 143 551 -20 hstem
          73 999 vstem
          1072 21 rmoveto
          7 -3 5 -3 5 vhcurveto
          -365 621 rlineto
          35 -21 -28 0 -18 hhcurveto
          -123 hlineto
          -18 -28 0 -35 -21 hvcurveto
          -364 -619 rlineto
          -3 -5 -4 -6 -8 vvcurveto
          -21 20 0 14 vhcurveto
          931 hlineto
          14 20 0 21 hvcurveto
          -254 122 rmoveto
          -513 hlineto
          256 437 rlineto
          endchar
        </CharString>
        <CharString name="Dlinebelow">
          979 -213 90 123 104 476 104 hstemhm
          101 158 485 158 hintmask 01111000
          -39 callgsubr
          hintmask 10000000
          -141 -522 -90 callgsubr
        </CharString>
        <CharString name="E">
          -22 callsubr
          hstem
          101 160 vstem
          -99 callgsubr
          endchar
        </CharString>
        <CharString name="Eacute">
          -22 callsubr
          92 -21 90 -20 51 callsubr
          hintmask 11100100
          -99 callgsubr
          hintmask 00011000
          -139 789 rmoveto
          -105 callgsubr
        </CharString>
        <CharString name="Ebreve">
          -22 callsubr
          71 89 30 -20 51 callsubr
          hintmask 11100100
          -99 callgsubr
          hintmask 00011000
          -164 799 -90 callsubr
        </CharString>
        <CharString name="Ecaron">
          854 0 86 227 80 206 85 82 7 callgsubr
          -155 792 -101 callsubr
        </CharString>
        <CharString name="Ecircumflex">
          854 0 86 227 80 206 85 82 7 callgsubr
          29 callgsubr
          endchar
        </CharString>
        <CharString name="Ecircumflexacute">
          62 callsubr
          244 -20 51 callsubr
          hintmask 11100100
          -99 callgsubr
          hintmask 00011100
          29 callgsubr
          -41 217 rmoveto
          -105 callgsubr
        </CharString>
        <CharString name="Ecircumflexdotbelow">
          62 callsubr
          104 -20 51 callsubr
          85 161 hintmask 11111100
          -99 callgsubr
          29 callgsubr
          hintmask 00000010
          -133 -928 -102 callgsubr
        </CharString>
        <CharString name="Ecircumflexgrave">
          854 0 86 227 80 206 85 82 7 callgsubr
          29 callgsubr
          -40 152 -70 callsubr
        </CharString>
        <CharString name="Ecircumflexhookabove">
          62 callsubr
          334 -20 51 callsubr
          hintmask 11100100
          -99 callgsubr
          hintmask 00011000
          29 callgsubr
          30 235 -106 callgsubr
        </CharString>
        <CharString name="Ecircumflextilde">
          62 callsubr
          174 75 -35 75 51 callsubr
          hintmask 11100010
          -99 callgsubr
          hintmask 00010100
          -156 716 -48 callgsubr
        </CharString>
        <CharString name="Edblgrave">
          -22 callsubr
          92 7 callgsubr
          -178 726 -100 callsubr
        </CharString>
        <CharString name="Edieresis">
          -22 callsubr
          61 57 51 callsubr
          -63 40 callsubr
          hintmask 11101000
          -99 callgsubr
          hintmask 00010110
          -453 730 -73 callgsubr
        </CharString>
        <CharString name="Edotaccent">
          -22 callsubr
          76 63 51 callsubr
          85 161 hintmask 11101000
          -99 callgsubr
          hintmask 00010100
          -289 748 -102 callgsubr
        </CharString>
        <CharString name="Edotbelow">
          -22 callsubr
          51 callsubr
          85 161 hintmask 11110000
          -99 callgsubr
          hintmask 00001000
          -289 -212 -102 callgsubr
        </CharString>
        <CharString name="Egrave">
          -22 callsubr
          92 -21 90 -20 51 callsubr
          hintmask 11100100
          -99 callgsubr
          hintmask 00011000
          -254 724 rmoveto
          -75 callsubr
        </CharString>
        <CharString name="Ehookabove">
          -22 callsubr
          72 -21 200 -20 51 callsubr
          hintmask 11100100
          -99 callgsubr
          hintmask 00011000
          -248 807 -106 callgsubr
        </CharString>
        <CharString name="Emacron">
          -22 callsubr
          81 90 51 callsubr
          hintmask 11101000
          -99 callgsubr
          hintmask 00010000
          -121 750 -90 callgsubr
        </CharString>
        <CharString name="Eng">
          899 559 146 hstem
          101 116 -116 160 -116 116 cntrmask 01110000
          797 342 rmoveto
          190 -123 173 -179 -85 -82 -20 -38 -67 vhcurveto
          28 -1 -10 9 -33 hhcurveto
          -72 -52 callgsubr
          72 hlineto
          -50 callsubr
          36 hvcurveto
          407 vlineto
          75 27 105 33 102 hhcurveto
          96 46 -109 -108 -89 -31 -88 -64 -30 hvcurveto
          -25 -11 -22 -21 -27 vvcurveto
          -48 vlineto
          -28 22 -21 26 4 vhcurveto
          153 28 101 158 173 vvcurveto
          endchar
        </CharString>
        <CharString name="Eogonek">
          108 callsubr
          120 callsubr
          hintmask 0011110100000000
          796 43 rmoveto
          38 -14 5 -30 vhcurveto
          -491 227 433 hlineto
          21 23 0 40 40 -23 0 -21 hvcurveto
          -433 206 472 85 callgsubr
          40 -19 2 -25 hvcurveto
          -588 -55 callsubr
          460 hlineto
          hintmask 0100001001000000
          -33 -28 -41 -46 -44 -44 callgsubr
          rrcurveto
          hintmask 1000000010000000
          111 callsubr
          hintmask 0010001001000000
          104 callsubr
          66 68 callgsubr
        </CharString>
        <CharString name="Eogonekacute">
          108 callsubr
          92 -21 90 -20 120 callsubr
          hintmask 0011100101000000
          796 43 rmoveto
          38 -14 5 -30 vhcurveto
          -491 227 433 hlineto
          21 23 0 40 40 -23 0 -21 hvcurveto
          -433 206 472 85 callgsubr
          40 -19 2 -25 hvcurveto
          -588 -55 callsubr
          460 hlineto
          hintmask 0100000010010000
          -33 -28 -41 -46 -44 -44 callgsubr
          rrcurveto
          hintmask 1000000000100000
          111 callsubr
          hintmask 0010000010010000
          104 callsubr
          66 hlineto
          29 15 4 39 hvcurveto
          hintmask 0000011000000000
          -139 789 rmoveto
          -105 callgsubr
        </CharString>
        <CharString name="Epsilon">
          -22 callsubr
          hstem
          101 160 vstem
          -99 callgsubr
          endchar
        </CharString>
        <CharString name="Ereversed">
          854 0 86 227 80 hstem
          636 160 vstem
          796 44 rmoveto
          594 vlineto
          36 -10 8 -34 vhcurveto
          -588 hlineto
          -25 -19 -2 -40 -41 23 0 21 hvcurveto
          472 -206 -433 hlineto
          -21 -23 0 -40 -40 23 0 21 hvcurveto
          433 -227 -491 hlineto
          -30 -14 -5 -38 -39 15 -4 29 hvcurveto
          607 hlineto
          36 8 10 34 hvcurveto
          endchar
        </CharString>
        <CharString name="Eta">
          47 callsubr
          hstem
          101 160 376 160 vstem
          -72 callgsubr
          endchar
        </CharString>
        <CharString name="Eth">
          -23 callgsubr
        </CharString>
        <CharString name="Etilde">
          -22 callsubr
          61 75 -35 75 51 callsubr
          hintmask 11100100
          -99 callgsubr
          hintmask 00001000
          -182 799 -77 callsubr
        </CharString>
        <CharString name="Euro">
          823 290 104 -100 84 -72 84 hstem
          152 160 cntrmask 11100000
          754 49 rmoveto
          -9 98 rlineto
          7 -6 6 -8 -4 -4 -3 -3 -3 vhcurveto
          -57 -40 -66 -34 -69 hhcurveto
          -64 -59 32 49 -41 hvcurveto
          -15 18 -13 19 -10 21 rrcurveto
          290 108 callgsubr
          -333 hlineto
          -1 12 -1 12 12 vvcurveto
          12 1 12 1 12 vhcurveto
          350 108 callgsubr
          -335 hlineto
          10 21 13 19 15 18 rrcurveto
          49 41 59 32 64 hhcurveto
          62 57 -36 -55 27 hvcurveto
          -5 2 5 -3 6 hhcurveto
          7 5 5 6 1 hvcurveto
          22 122 rlineto
          8 -4 5 -5 2 vhcurveto
          23 -59 -63 12 -63 hhcurveto
          -103 -99 -36 -70 -76 hvcurveto
          -36 -33 -29 -40 -19 -44 rrcurveto
          -86 107 callsubr
          71 hlineto
          -1 -12 -1 -12 -12 vvcurveto
          -12 1 -12 1 -12 vhcurveto
          -57 107 callsubr
          100 hlineto
          19 -44 29 -40 36 -33 rrcurveto
          -70 76 99 -36 103 hhcurveto
          71 70 20 37 61 hvcurveto
          5 3 2 5 5 vvcurveto
          endchar
        </CharString>
        <CharString name="F">
          816 21 -21 301 80 218 85 hstem
          101 160 vstem
          758 640 rmoveto
          40 -19 2 -25 vhcurveto
          -569 -55 callsubr
          72 hlineto
          -50 callsubr
          36 hvcurveto
          257 395 vlineto
          21 23 0 40 40 -23 0 -21 hvcurveto
          -395 218 453 55 callsubr
          endchar
        </CharString>
        <CharString name="G">
          58 callsubr
          hstem
          76 160 441 146 vstem
          -97 callgsubr
          endchar
        </CharString>
        <CharString name="Gacute">
          58 callsubr
          82 147 callgsubr
          441 146 hintmask 11100110
          -97 callgsubr
          hintmask 00011010
          -134 781 rmoveto
          -105 callgsubr
        </CharString>
        <CharString name="Gamma">
          778 21 -21 599 83 hstem
          101 160 vstem
          720 640 rmoveto
          40 -19 2 -25 vhcurveto
          -531 -55 callsubr
          72 hlineto
          -50 callsubr
          36 hvcurveto
          555 415 91 callsubr
          hvcurveto
          endchar
        </CharString>
        <CharString name="Gbreve">
          58 callsubr
          61 89 30 -20 hstemhm
          76 160 441 146 hintmask 11100110
          -97 callgsubr
          hintmask 00011000
          -159 791 -90 callsubr
        </CharString>
        <CharString name="Gcaron">
          58 callsubr
          72 -21 104 -20 hstemhm
          76 160 441 146 hintmask 11100110
          -97 callgsubr
          hintmask 00011000
          -151 784 -101 callsubr
        </CharString>
        <CharString name="Gcedilla">
          917 -16 callsubr
          66 59 callgsubr
          hstem
          76 160 441 146 vstem
          -97 callgsubr
          -300 -229 -104 callgsubr
        </CharString>
        <CharString name="Gcircumflex">
          58 callsubr
          72 -21 104 -20 hstemhm
          76 160 441 146 hintmask 11100110
          -97 callgsubr
          hintmask 00011000
          -151 708 -98 callgsubr
        </CharString>
        <CharString name="Gcommaaccent">
          917 -16 callsubr
          66 59 callgsubr
          hstemhm
          76 160 441 146 hintmask 00111110
          -97 callgsubr
          hintmask 11000000
          -300 -229 -104 callgsubr
        </CharString>
        <CharString name="Gdotaccent">
          58 callsubr
          66 63 hstemhm
          76 160 141 161 139 146 hintmask 11101010
          -97 callgsubr
          hintmask 00010100
          -285 740 -102 callgsubr
        </CharString>
        <CharString name="H">
          47 callsubr
          hstem
          101 160 376 160 vstem
          -72 callgsubr
          endchar
        </CharString>
        <CharString name="H_uni0303">
          47 callsubr
          81 75 -35 75 51 callsubr
          376 160 hintmask 11100110
          -72 callgsubr
          hintmask 00001000
          -160 798 -77 callgsubr
          hintmask 00010000
          -23 -5 -36 -1 -14 hhcurveto
          hintmask 00001000
          -36 -17 40 -67 hhcurveto
          -81 -43 -49 -48 hvcurveto
          hintmask 00010000
          -18 10 0 19 vhcurveto
          19 hlineto
          21 4 0 16 3 hvcurveto
          hintmask 00001000
          23 5 35 1 7 hhcurveto
          hintmask 00010010
          -1 56 2 -39 78 hhcurveto
          75 41 50 47 hvcurveto
          endchar
        </CharString>
        <CharString name="Hbar">
          899 21 -21 316 80 75 84 129 -20 hstem
          101 160 376 160 vstem
          894 502 rmoveto
          22 vlineto
          17 -14 14 -17 vhcurveto
          -66 85 51 callgsubr
          -34 callsubr
          -85 -376 85 -95 callsubr
          -34 callsubr
          -85 -66 vlineto
          30 callgsubr
          66 -427 -6 callgsubr
          272 376 -272 vlineto
          134 callsubr
          427 66 vlineto
          137 callsubr
          hvcurveto
          -257 -106 rmoveto
          -376 75 376 hlineto
          endchar
        </CharString>
        <CharString name="Hbrevebelow">
          899 -227 89 30 -20 149 -21 316 80 288 -20 51 callsubr
          376 160 hintmask 00111110
          -72 callgsubr
          hintmask 11000000
          -142 -184 -90 callsubr
        </CharString>
        <CharString name="Hcircumflex">
          47 callsubr
          102 -21 104 -20 51 callsubr
          376 160 hintmask 11100110
          -72 callgsubr
          hintmask 00011000
          -134 715 -98 callgsubr
        </CharString>
        <CharString name="Hdieresis">
          47 callsubr
          81 57 51 callsubr
          -40 40 callsubr
          -43 160 hintmask 11101001
          -72 callgsubr
          hintmask 00011000
          -431 729 rmoveto
          29 -29 0 -11 vhcurveto
          -65 hlineto
          hintmask 00000100
          -10 -30 0 -28 hvcurveto
          hintmask 00011000
          -29 29 0 11 vhcurveto
          65 hlineto
          hintmask 00010110
          10 30 0 28 hvcurveto
          314 hmoveto
          -103 callgsubr
          endchar
        </CharString>
        <CharString name="Hdotbelow">
          47 callsubr
          51 callsubr
          108 161 107 160 hintmask 11110100
          -72 callgsubr
          hintmask 00001000
          -267 -213 -102 callgsubr
        </CharString>
        <CharString name="I">
          26 callsubr
          hstem
          100 160 vstem
          -78 callsubr
          endchar
        </CharString>
        <CharString name="I.alt">
          361 0 86 515 83 hstem
          100 160 18 callgsubr
          endchar
        </CharString>
        <CharString name="I_J">
          960 -21 107 598 -20 hstem
          100 160 440 158 vstem
          -78 callsubr
          598 104 -67 callgsubr
          endchar
        </CharString>
        <CharString name="I_J.alt">
          960 0 86 515 83 hstem
          100 160 440 158 18 callgsubr
          522 104 -67 callgsubr
          endchar
        </CharString>
        <CharString name="Iacute">
          23 callgsubr
          185 789 rmoveto
          -105 callgsubr
        </CharString>
        <CharString name="Ibreve">
          26 callsubr
          91 89 30 37 callgsubr
          126 799 -90 callsubr
        </CharString>
        <CharString name="Icaron">
          26 callsubr
          102 2 callsubr
          134 792 -101 callsubr
        </CharString>
        <CharString name="Icircumflex">
          26 callsubr
          102 2 callsubr
          134 716 -98 callgsubr
        </CharString>
        <CharString name="Idblgrave">
          26 callsubr
          112 2 callsubr
          112 726 -100 callsubr
        </CharString>
        <CharString name="Idieresis">
          26 callsubr
          81 57 hstemhm
          -48 129 callgsubr
          -42 callsubr
          hintmask 00110100
          -163 730 -73 callgsubr
        </CharString>
        <CharString name="Idieresisacute">
          26 callsubr
          81 57 92 -21 90 -20 hstemhm
          -48 129 callgsubr
          hintmask 11000010
          -78 callsubr
          hintmask 00111101
          -163 730 -91 callgsubr
          177 vmoveto
          -105 callgsubr
        </CharString>
        <CharString name="Idotaccent">
          26 callsubr
          96 63 hstemhm
          100 160 -160 161 49 callgsubr
          hintmask 00110000
          1 748 rmoveto
          -97 callsubr
          hintmask 00001000
          -45 callgsubr
          endchar
        </CharString>
        <CharString name="Idotbelow">
          26 callsubr
          hstemhm
          100 160 -160 161 hintmask 11100000
          -78 callsubr
          hintmask 00100000
          1 -212 rmoveto
          -97 callsubr
          hintmask 00010000
          -45 callgsubr
          endchar
        </CharString>
        <CharString name="Igrave">
          23 callgsubr
          724 vmoveto
          -75 callsubr
        </CharString>
        <CharString name="Ihookabove">
          26 callsubr
          92 -21 200 37 callgsubr
          42 807 -106 callgsubr
        </CharString>
        <CharString name="Imacron">
          25 callgsubr
          169 750 -90 callgsubr
        </CharString>
        <CharString name="Imacron.alt">
          25 callgsubr
          54 750 -3 callsubr
        </CharString>
        <CharString name="Iogonek">
          361 -204 79 146 75 callgsubr
          hstem
          100 160 vstem
          302 -152 -33 callgsubr
          3 hlineto
          29 15 4 39 hvcurveto
          599 vlineto
          40 -19 2 -25 vhcurveto
          -72 hlineto
          -21 -23 0 -41 hvcurveto
          -600 vlineto
          -33 10 -8 23 -2 vhcurveto
          -34 -28 -41 -45 -45 -44 callgsubr
          rrcurveto
          endchar
        </CharString>
        <CharString name="Iogonek.alt">
          361 -204 79 -79 86 118 86 515 83 hstemhm
          100 160 -128 160 hintmask 00100100
          336 43 rmoveto
          38 -14 5 -30 vhcurveto
          hintmask 00111000
          -32 515 hlineto
          hintmask 00010100
          32 85 callgsubr
          40 -19 2 -25 hvcurveto
          -224 hlineto
          -21 -23 0 -41 -40 19 -2 25 hvcurveto
          hintmask 00111000
          32 -515 -32 13 callgsubr
          hintmask 01100100
          64 hlineto
          -33 -28 -41 -46 -44 -4 callgsubr
          hintmask 10100100
          -11 -28 -25 -6 -24 hhcurveto
          104 callsubr
          79 68 callgsubr
        </CharString>
        <CharString name="Iogonekacute">
          361 -204 79 146 75 callgsubr
          112 -21 90 -20 hstemhm
          100 160 hintmask 11100100
          302 -152 -33 callgsubr
          3 hlineto
          29 15 4 39 hvcurveto
          599 vlineto
          40 -19 2 -25 vhcurveto
          -72 hlineto
          -21 -23 0 -41 hvcurveto
          -600 vlineto
          -33 10 -8 23 -2 vhcurveto
          -34 -28 -41 -45 -45 -44 callgsubr
          rrcurveto
          hintmask 00011100
          143 984 rmoveto
          -105 callgsubr
        </CharString>
        <CharString name="Iota">
          26 callsubr
          hstem
          100 160 vstem
          -78 callsubr
          endchar
        </CharString>
        <CharString name="Itilde">
          26 callsubr
          81 75 -35 75 6 callsubr
          hintmask 00010000
          108 799 -96 callgsubr
        </CharString>
        <CharString name="J">
          147 callsubr
          hstem
          375 158 vstem
          -31 callgsubr
          endchar
        </CharString>
        <CharString name="J_uni030C.cap">
          635.42105 -21 107 382 -21 110 127 hstem
          375 158 vstem
          -31 callgsubr
          179 435 -104 callgsubr
        </CharString>
        <CharString name="Jacute">
          147 callsubr
          112 -21 90 -20 hstemhm
          375 158 hintmask 11001000
          -31 callgsubr
          hintmask 00111000
          187 685 rmoveto
          -105 callgsubr
        </CharString>
        <CharString name="Jcircumflex">
          147 callsubr
          102 -21 104 -20 hstemhm
          375 158 hintmask 11001000
          -31 callgsubr
          hintmask 00110000
          134 612 -98 callgsubr
        </CharString>
        <CharString name="K">
          927 28 callgsubr
          hstem
          109 136 vstem
          -56 callgsubr
          endchar
        </CharString>
        <CharString name="Kappa">
          927 28 callgsubr
          hstem
          109 136 vstem
          -56 callgsubr
          endchar
        </CharString>
        <CharString name="Kcedilla">
          927 135 callsubr
          hstem
          109 136 vstem
          -56 callgsubr
          -333 -197 -104 callgsubr
        </CharString>
        <CharString name="Kcommaaccent">
          927 112 callsubr
          136 hintmask 00111000
          -56 callgsubr
          hintmask 11000000
          -333 -197 -104 callgsubr
        </CharString>
        <CharString name="L">
          115 callsubr
          hstem
          101 160 vstem
          -61 callsubr
          endchar
        </CharString>
        <CharString name="L_uni0303">
          115 callsubr
          81 75 -35 75 51 callsubr
          hintmask 11001000
          -61 callsubr
          hintmask 00010000
          -352 801 -96 callgsubr
        </CharString>
        <CharString name="Lacute">
          115 callsubr
          112 -21 90 -20 51 callsubr
          hintmask 11001000
          -61 callsubr
          hintmask 00111000
          -274 791 rmoveto
          -105 callgsubr
        </CharString>
        <CharString name="Lambda">
          813 131 callsubr
          hstem
          49 714 vstem
          763 23 rmoveto
          3 0 3 -5 13 vhcurveto
          -236 613 rlineto
          26 -10 -9 13 -40 hhcurveto
          -114 hlineto
          -21 -23 0 -38 -15 hvcurveto
          -236 -614 rlineto
          -5 -13 0 -3 -3 vvcurveto
          -23 22 0 14 vhcurveto
          59 hlineto
          25 21 1 38 14 hvcurveto
          192 500 192 -500 rlineto
          -21 8 7 -18 44 hhcurveto
          80 hlineto
          14 22 0 23 hvcurveto
          endchar
        </CharString>
        <CharString name="Lcaron">
          778 0 83 385 -21 110 127 hstem
          101 160 vstem
          -61 callsubr
          -255 541 -104 callgsubr
        </CharString>
        <CharString name="Lcedilla">
          778 -16 callsubr
          76 83 601 -20 hstem
          101 160 vstem
          -61 callsubr
          -267 -219 -104 callgsubr
        </CharString>
        <CharString name="Lcommaaccent">
          778 -16 callsubr
          76 83 601 -20 51 callsubr
          hintmask 00111000
          -61 callsubr
          hintmask 11000000
          -267 -219 -104 callgsubr
        </CharString>
        <CharString name="Ldot">
          778 0 83 253 63 285 -20 hstem
          101 160 228 161 vstem
          -61 callsubr
          -70 326 -102 callgsubr
        </CharString>
        <CharString name="Ldotbelow">
          115 callsubr
          51 callsubr
          47 161 hintmask 11100000
          -61 callsubr
          hintmask 00010000
          -251 -210 -102 callgsubr
        </CharString>
        <CharString name="Ldotbelowmacron">
          115 callsubr
          101 90 51 callsubr
          47 161 hintmask 11011000
          -61 callsubr
          -251 -210 -101 callgsubr
          hintmask 00100000
          -40 962 -90 callgsubr
        </CharString>
        <CharString name="Lslash">
          892 148 callsubr
          hstem
          214 160 vstem
          833 41 rmoveto
          40 -19 2 -25 vhcurveto
          -415 275 hlineto
          220 152 11 7 4 15 -7 10 rlinecurve
          -20 29 -7 10 -17 -1 -12 -7 rlinecurve
          -172 -119 rlineto
          186 -95 callsubr
          -34 callsubr
          -292 vlineto
          -122 -84 -15 -10 -4 -22 11 -14 rlinecurve
          10 -13 12 -15 19 1 15 10 rlinecurve
          74 51 rlineto
          -208 -56 callsubr
          531 55 callsubr
          endchar
        </CharString>
        <CharString name="M">
          1129 28 callgsubr
          hstem
          112 126 646 131 vstem
          -40 callsubr
          endchar
        </CharString>
        <CharString name="Mdotbelow">
          1129 28 callgsubr
          hstemhm
          112 126 245 161 240 131 hintmask 11101000
          -40 callsubr
          hintmask 00010000
          -371 -213 -102 callgsubr
        </CharString>
        <CharString name="Mu">
          1129 28 callgsubr
          hstem
          112 126 646 131 vstem
          -40 callsubr
          endchar
        </CharString>
        <CharString name="N">
          96 callsubr
          hstem
          55 callgsubr
          vstem
          -84 callsubr
          endchar
        </CharString>
        <CharString name="Nacute">
          96 callsubr
          112 -21 90 -20 114 callgsubr
          hintmask 11001100
          -84 callsubr
          hintmask 00110000
          -109 788 rmoveto
          -105 callgsubr
        </CharString>
        <CharString name="Ncaron">
          96 callsubr
          102 -21 104 -20 114 callgsubr
          hintmask 11001100
          -84 callsubr
          hintmask 00110100
          -126 791 -101 callsubr
        </CharString>
        <CharString name="Ncedilla">
          899 135 callsubr
          hstem
          55 callgsubr
          vstem
          -84 callsubr
          -275 -222 -104 callgsubr
        </CharString>
        <CharString name="Ncommaaccent">
          899 112 callsubr
          126 428 126 hintmask 00111100
          -84 callsubr
          hintmask 11000000
          -275 -222 -104 callgsubr
        </CharString>
        <CharString name="Ndotaccent">
          96 callsubr
          96 63 125 callgsubr
          hintmask 11010100
          -84 callsubr
          hintmask 00101000
          -259 747 -102 callgsubr
        </CharString>
        <CharString name="Ndotbelow">
          96 callsubr
          125 callgsubr
          hintmask 11101000
          -84 callsubr
          hintmask 00010000
          -259 -213 -102 callgsubr
        </CharString>
        <CharString name="Ntilde">
          96 callsubr
          81 75 -35 75 114 callgsubr
          hintmask 11001100
          -84 callsubr
          hintmask 00010000
          -152 798 -96 callgsubr
        </CharString>
        <CharString name="Nu">
          96 callsubr
          hstem
          55 callgsubr
          vstem
          -84 callsubr
          endchar
        </CharString>
        <CharString name="O">
          0 callgsubr
          hstem
          76 160 586 160 vstem
          -100 callgsubr
          endchar
        </CharString>
        <CharString name="OE">
          -30 callsubr
        </CharString>
        <CharString name="OE.dup">
          -30 callsubr
        </CharString>
        <CharString name="Oacute">
          0 callgsubr
          71 -21 90 -89 callsubr
          -62 478 rmoveto
          -105 callgsubr
        </CharString>
        <CharString name="Obreve">
          0 callgsubr
          50 89 30 -89 callsubr
          -87 488 -90 callsubr
        </CharString>
        <CharString name="Ocaron">
          1059 -21 81 566 79 61 -35 callsubr
          -79 481 -101 callsubr
        </CharString>
        <CharString name="Ocircumflex">
          1059 -21 81 566 79 61 -35 callsubr
          -79 405 -98 callgsubr
        </CharString>
        <CharString name="Ocircumflexacute">
          90 callsubr
          244 -89 callsubr
          -79 405 -107 callgsubr
          -41 217 rmoveto
          -105 callgsubr
        </CharString>
        <CharString name="Ocircumflexdotbelow">
          90 callsubr
          104 -20 88 callgsubr
          hintmask 11111010
          -100 callgsubr
          -79 405 -107 callgsubr
          hintmask 00000100
          -133 -928 -102 callgsubr
        </CharString>
        <CharString name="Ocircumflexgrave">
          1059 -21 81 566 79 61 -35 callsubr
          -79 405 -107 callgsubr
          -40 152 -70 callsubr
        </CharString>
        <CharString name="Ocircumflexhookabove">
          90 callsubr
          334 -89 callsubr
          -79 405 -107 callgsubr
          30 235 -106 callgsubr
        </CharString>
        <CharString name="Ocircumflextilde">
          90 callsubr
          174 141 callsubr
          hintmask 11000110
          -100 callgsubr
          hintmask 00101000
          -79 405 rmoveto
          8 -4 2 -12 6 vhcurveto
          -147 74 rlineto
          -101 hlineto
          -147 -74 rlineto
          -12 -6 -4 -2 -8 vvcurveto
          -14 13 0 15 vhcurveto
          37 hlineto
          148 54 149 -54 rlineto
          37 hlineto
          15 13 0 14 hvcurveto
          -26 257 -77 callsubr
        </CharString>
        <CharString name="Odblgrave">
          0 callgsubr
          71 -35 callsubr
          -101 415 -100 callsubr
        </CharString>
        <CharString name="Odieresis">
          0 callgsubr
          40 57 hstemhm
          76 160 65 40 callsubr
          62 160 hintmask 11010010
          -100 callgsubr
          hintmask 00101100
          -376 419 -73 callgsubr
        </CharString>
        <CharString name="Odotbelow">
          0 callgsubr
          88 callgsubr
          hintmask 11101000
          -100 callgsubr
          hintmask 00010000
          -212 -523 -102 callgsubr
        </CharString>
        <CharString name="Ograve">
          0 callgsubr
          71 -21 90 -89 callsubr
          -177 413 rmoveto
          -75 callsubr
        </CharString>
        <CharString name="Ohookabove">
          0 callgsubr
          51 -21 200 -89 callsubr
          -171 496 -106 callgsubr
        </CharString>
        <CharString name="Ohorn">
          0 callgsubr
          hstem
          76 160 586 160 vstem
          -15 callgsubr
          endchar
        </CharString>
        <CharString name="Ohornacute">
          0 callgsubr
          71 -21 90 -53 callgsubr
          -100 478 rmoveto
          -105 callgsubr
        </CharString>
        <CharString name="Ohorndotbelow">
          0 callgsubr
          88 callgsubr
          hintmask 11101000
          -17 callgsubr
          -212 -523 -102 callgsubr
        </CharString>
        <CharString name="Ohorngrave">
          0 callgsubr
          71 -21 90 -53 callgsubr
          -177 413 rmoveto
          -75 callsubr
        </CharString>
        <CharString name="Ohornhookabove">
          0 callgsubr
          51 -21 200 -53 callgsubr
          -171 496 -106 callgsubr
        </CharString>
        <CharString name="Ohorntilde">
          0 callgsubr
          40 141 callsubr
          hintmask 11001100
          -17 callgsubr
          -143 488 -96 callgsubr
        </CharString>
        <CharString name="Ohungarumlaut">
          0 callgsubr
          71 -35 callsubr
          -293 491 -83 callsubr
        </CharString>
        <CharString name="Omacron">
          0 callgsubr
          60 90 30 callsubr
          hintmask 11011000
          -100 callgsubr
          hintmask 00100000
          -44 439 -90 callgsubr
        </CharString>
        <CharString name="Omega">
          93 callsubr
          cntrmask 00111000
          -21 callsubr
        </CharString>
        <CharString name="Omicron">
          0 callgsubr
          hstem
          76 160 586 160 vstem
          -100 callgsubr
          endchar
        </CharString>
        <CharString name="Oogonek">
          1059 -204 79 104 81 566 79 hstem
          76 160 586 160 vstem
          -20 callgsubr
          endchar
        </CharString>
        <CharString name="Oogonekacute">
          1059 -204 79 104 81 566 79 71 -21 90 -20 30 callsubr
          hintmask 11100110
          -20 callgsubr
          hintmask 00011000
          -62 478 rmoveto
          -105 callgsubr
        </CharString>
        <CharString name="Orogate">
          1059 124 callgsubr
          184 -174 165 -241 16 vhcurveto
          88 vlineto
          17 -14 14 -31 150 callgsubr
          vhcurveto
          -88 vlineto
          -241 -16 -174 -165 -184 vvcurveto
          -182 175 -161 240 -16 vhcurveto
          -88 vlineto
          -17 14 -14 31 137 callsubr
          vhcurveto
          88 vlineto
          240 16 175 161 182 vvcurveto
          -160 15 rmoveto
          -183 -128 -111 -165 -165 -128 111 183 175 132 97 161 161 132 -97 -175 vhcurveto
          endchar
        </CharString>
        <CharString name="Oslash">
          -37 callsubr
        </CharString>
        <CharString name="Oslash.dup">
          -37 callsubr
        </CharString>
        <CharString name="Oslashacute">
          1069 -72 19 32 76 574 76 51 -20 40 -21 90 -20 hstemhm
          76 136 -30 136 432 136 -30 136 hintmask 0011001010000000
          992 339 rmoveto
          115 -70 106 -101 64 vhcurveto
          53 64 rlineto
          7 8 5 8 10 vvcurveto
          22 -29 20 -15 -14 -6 -8 -9 -8 vhcurveto
          -64 -77 rlineto
          29 -69 -71 14 -76 hhcurveto
          -264 -194 -173 -193 -114 64 -95 106 -72 hvcurveto
          -6 -7 -42 -51 -4 -4 rrcurveto
          hintmask 1100000101000000
          -7 -9 -5 -6 -11 vvcurveto
          -22 29 -20 15 15 5 7 17 15 vhcurveto
          57 69 rlineto
          -28 68 73 -14 75 hhcurveto
          262 196 131 callgsubr
          -296 260 rmoveto
          -394 -473 rlineto
          hintmask 0110001001000000
          -33 29 -57 60 124 vvcurveto
          190 133 100 189 71 56 -15 -15 35 vhcurveto
          160 -260 rmoveto
          -183 -128 -101 -194 -44 -65 6 24 -53 vhcurveto
          392 472 rlineto
          80 -66 12 -95 -57 vvcurveto
          hintmask 0000110010000000
          -91 493 rmoveto
          -105 callgsubr
        </CharString>
        <CharString name="Otilde">
          0 callgsubr
          40 75 -35 75 -91 callsubr
          hintmask 00010000
          -105 488 -96 callgsubr
        </CharString>
        <CharString name="P">
          1 callsubr
        </CharString>
        <CharString name="Phi">
          993 21 -21 106 77 318 77 106 -20 hstem
          76 158 182 157 185 158 vstem
          916 342 rmoveto
          115 -143 99 -200 21 vhcurveto
          63 -95 callsubr
          -69 -85 callsubr
          -63 vlineto
          -193 -21 -147 -97 -117 vvcurveto
          -117 147 -97 193 -21 vhcurveto
          -63 -56 callsubr
          69 -94 callsubr
          63 vlineto
          200 21 143 99 115 vvcurveto
          -500 -159 rmoveto
          -35 4 -147 19 136 vvcurveto
          136 147 19 35 4 vhcurveto
          342 -159 rmoveto
          -139 -153 -17 -32 -3 vhcurveto
          318 vlineto
          56 -6 129 -25 -128 vvcurveto
          endchar
        </CharString>
        <CharString name="Pi">
          899 21 -21 602 80 hstem
          101 160 376 160 vstem
          797 44 rmoveto
          594 -95 callsubr
          -608 -55 callsubr
          72 hlineto
          -50 callsubr
          36 hvcurveto
          558 376 -558 vlineto
          134 callsubr
          endchar
        </CharString>
        <CharString name="Psi">
          1069 21 -21 107 82 346 78 71 -20 hstem
          151 157 146 157 149 157 vstem
          992 575 rmoveto
          38 -25 0 -19 vhcurveto
          -74 hlineto
          -96 -17 -84 -113 -1 hvcurveto
          -66 -12 -127 -137 -34 vhcurveto
          451 -95 callsubr
          -69 -85 callsubr
          -451 vlineto
          -145 38 -1 144 53 vvcurveto
          132 -1 -32 57 -81 hhcurveto
          -74 hlineto
          -19 -25 0 -38 -8 0 -27 29 -3 hvcurveto
          22 -2 23 -3 1 -135 rrcurveto
          -58 28 -83 46 -47 vhcurveto
          52 -52 65 -36 112 -14 rrcurveto
          -63 -56 callsubr
          69 -94 callsubr
          63 vlineto
          128 15 63 49 22 20 rrcurveto
          89 85 4 97 23 vvcurveto
          51 1 85 39 5 vhcurveto
          15 1 20 3 34 vvcurveto
          endchar
        </CharString>
        <CharString name="Q">
          1059 -101 -21 101 79 568 79 hstem
          76 158 380 158 52 158 vstem
          17 callsubr
          193 -192 173 -261 -61 callgsubr
          11 50 0 12 57 vhcurveto
          93 -99 rlineto
          -14 15 13 0 18 hhcurveto
          97 hlineto
          13 18 0 18 7 -1 1 -22 21 hvcurveto
          -119 109 rlineto
          121 62 89 112 131 vvcurveto
          -158 hmoveto
          -89 -36 -95 -90 -52 vhcurveto
          -84 77 rlineto
          12 -13 -5 0 -20 hhcurveto
          -62 hlineto
          -14 -18 0 -19 -11 39 -38 20 -21 hvcurveto
          5 -4 32 -36 0 vvcurveto
          -5 -45 0 -4 -165 -130 104 177 179 129 108 166 166 129 -108 -179 vhcurveto
          endchar
        </CharString>
        <CharString name="R">
          36 callsubr
          hstem
          72 callsubr
          vstem
          -88 callgsubr
          endchar
        </CharString>
        <CharString name="Racute">
          36 callsubr
          92 -21 90 -20 hstemhm
          72 callsubr
          hintmask 11100110
          -88 callgsubr
          hintmask 00011000
          13 352 rmoveto
          -105 callgsubr
        </CharString>
        <CharString name="Rcaron">
          36 callsubr
          82 -21 104 -20 hstemhm
          72 callsubr
          hintmask 11100110
          -88 callgsubr
          hintmask 00011000
          -4 355 -101 callsubr
        </CharString>
        <CharString name="Rcedilla">
          898 45 callgsubr
          304 76 200 104 hstem
          72 callsubr
          vstem
          -88 callgsubr
          -153 -658 -104 callgsubr
        </CharString>
        <CharString name="Rcommaaccent">
          898 45 callgsubr
          304 76 200 104 hstemhm
          72 callsubr
          hintmask 00111110
          -88 callgsubr
          hintmask 11000000
          -153 -658 -104 callgsubr
        </CharString>
        <CharString name="Rdblgrave">
          36 callsubr
          92 -21 104 -20 hstemhm
          72 callsubr
          hintmask 11100110
          -88 callgsubr
          hintmask 00011000
          -64 289 -100 callsubr
        </CharString>
        <CharString name="Rdotaccent">
          36 callsubr
          76 63 88 callsubr
          hintmask 11101010
          -88 callgsubr
          hintmask 00010100
          -137 311 -102 callgsubr
        </CharString>
        <CharString name="Rdotbelow">
          36 callsubr
          88 callsubr
          hintmask 11110100
          -88 callgsubr
          hintmask 00001000
          -137 -649 -102 callgsubr
        </CharString>
        <CharString name="Rdotbelowmacron">
          36 callsubr
          81 90 88 callsubr
          hintmask 11101110
          -88 callgsubr
          -137 -649 -101 callgsubr
          hintmask 00010000
          168 962 -90 callgsubr
        </CharString>
        <CharString name="Rho">
          1 callsubr
        </CharString>
        <CharString name="S">
          91 callgsubr
          26 callgsubr
          hintmask 01111100
          -94 callgsubr
          hintmask 10001100
          -48 callsubr
          endchar
        </CharString>
        <CharString name="S_S">
          1528 -21 79 callsubr
          26 callgsubr
          153 129 173 129 51 129 hintmask 0111110000000000
          -94 callgsubr
          hintmask 1010111110000000
          -48 callsubr
          764 hmoveto
          57 -26 47 -37 35 vhcurveto
          -67 62 -56 10 -156 28 rrcurveto
          -53 9 -87 15 57 vvcurveto
          47 80 38 97 115 52 -49 -42 40 vhcurveto
          -8 8 2 -2 6 hhcurveto
          11 2 9 12 2 hvcurveto
          18 100 rlineto
          2 8 110 callgsubr
          9 -7 4 0 vhcurveto
          -6 3 -55 24 -65 12 rrcurveto
          3 -16 -39 8 -66 hhcurveto
          -189 -121 -103 -110 -45 20 -49 46 -39 hvcurveto
          65 -54 65 -11 81 -15 96 -17 rcurveline
          48 -10 61 -27 -51 vvcurveto
          hintmask 0100000000000000
          -51 -75 -46 -102 -61 -112 15 96 -99 vhcurveto
          3 -3 137 callgsubr
          -11 -2 -9 -12 -2 hvcurveto
          hintmask 1000000110000000
          -48 callsubr
          endchar
        </CharString>
        <CharString name="Sacute">
          91 callgsubr
          71 -21 90 -20 26 callgsubr
          hintmask 01100111
          -94 callgsubr
          hintmask 10000011
          -48 callsubr
          hintmask 00011000
          -75 627 rmoveto
          -105 callgsubr
        </CharString>
        <CharString name="Scaron">
          91 callgsubr
          61 -21 104 -20 26 callgsubr
          hintmask 01100111
          -94 callgsubr
          hintmask 10000011
          -48 callsubr
          hintmask 00011000
          -92 630 -101 callsubr
        </CharString>
        <CharString name="Scedilla">
          91 callgsubr
          26 callgsubr
          hintmask 01111100
          -94 callgsubr
          hintmask 10001100
          -48 callsubr
          -245 -263 -39 callsubr
        </CharString>
        <CharString name="Scircumflex">
          91 callgsubr
          61 -21 104 -20 26 callgsubr
          hintmask 01100111
          -94 callgsubr
          hintmask 10000011
          -48 callsubr
          hintmask 00011000
          -92 554 -98 callgsubr
        </CharString>
        <CharString name="Sdotbelow">
          91 callgsubr
          hstemhm
          76 129 96 161 -84 129 51 129 hintmask 01110110
          -94 callgsubr
          hintmask 10000110
          -48 callsubr
          hintmask 00001000
          -225 -374 -102 callgsubr
        </CharString>
        <CharString name="Sigma">
          993 0 98 503 83 hstem
          76 840 vstem
          916 44 rmoveto
          10 -95 callsubr
          -529 hlineto
          228 217 rlineto
          11 10 3 9 8 vvcurveto
          13 -6 6 -8 7 vhcurveto
          -244 233 rlineto
          545 85 callgsubr
          40 -19 2 -25 hvcurveto
          -752 hlineto
          -24 -20 -1 -41 -16 0 -8 15 -14 hvcurveto
          286 -272 -286 -273 rlineto
          -8 -8 -7 -6 -13 vvcurveto
          -32 31 0 13 vhcurveto
          770 hlineto
          26 6 0 22 16 vvcurveto
          endchar
        </CharString>
        <CharString name="T">
          84 callgsubr
          hstem
          411 160 vstem
          -67 callsubr
          endchar
        </CharString>
        <CharString name="T_uni0303">
          84 callgsubr
          61 110 callsubr
          411 160 hintmask 11001000
          -67 callsubr
          hintmask 00010000
          -253 203 -96 callgsubr
        </CharString>
        <CharString name="T_uni0308">
          84 callgsubr
          61 57 hstemhm
          263 129 callgsubr
          hintmask 11001000
          -67 callsubr
          hintmask 00110100
          -524 134 -73 callgsubr
        </CharString>
        <CharString name="Tau">
          84 callgsubr
          hstem
          411 160 vstem
          -67 callsubr
          endchar
        </CharString>
        <CharString name="Tcaron">
          84 callgsubr
          82 -21 104 -20 hstemhm
          411 160 hintmask 11001000
          -67 callsubr
          hintmask 00110000
          -227 196 -101 callsubr
        </CharString>
        <CharString name="Tcedilla">
          983 -143 120 44 158 callgsubr
          hstemhm
          341 188 -118 160 hintmask 11101000
          -67 callsubr
          -403 -676 -24 callgsubr
          hintmask 10010000
          -13 -11 -1 -1 -6 -7 callsubr
          54 hlineto
          20 1 1 13 12 hvcurveto
          59 69 rlineto
          14 16 0 151 callgsubr
        </CharString>
        <CharString name="Tdotbelow">
          84 callgsubr
          hstemhm
          410 161 -160 160 hintmask 11010000
          -67 callsubr
          hintmask 00100000
          -361 -808 -102 callgsubr
        </CharString>
        <CharString name="Theta">
          1069 -21 78 214 144 -76 76 214 76 hstemhm
          76 157 602 157 hintmask 10111100
          992 339 rmoveto
          193 -194 173 -264 -264 -194 -173 -193 -192 196 -168 262 262 196 168 192 vhcurveto
          -157 hmoveto
          -175 -131 -107 -170 -172 -129 108 174 180 132 110 169 170 131 -111 -179 vhcurveto
          -77 -24 rmoveto
          56 vlineto
          36 -11 8 -36 vhcurveto
          -354 hlineto
          -35 -12 -7 -37 hvcurveto
          -56 vlineto
          hintmask 01000000
          -36 11 -8 36 vhcurveto
          354 hlineto
          35 12 7 37 hvcurveto
          endchar
        </CharString>
        <CharString name="Thorn">
          765 21 -21 134 97 238 97 118 -20 hstem
          101 160 272 155 vstem
          688 343 rmoveto
          123 -147 100 -173 vhcurveto
          -107 74 hlineto
          32 -12 12 -32 66 callgsubr
          72 hlineto
          -50 callsubr
          36 hvcurveto
          90 108 vlineto
          170 149 92 117 hvcurveto
          -155 7 rmoveto
          -95 -86 -24 -99 vhcurveto
          -89 238 91 hlineto
          101 82 -24 -95 hvcurveto
          endchar
        </CharString>
        <CharString name="Tlinebelow">
          983 -213 90 144 158 callgsubr
          hstemhm
          411 160 hintmask 01110000
          -67 callsubr
          hintmask 10000000
          -192 -824 -90 callgsubr
        </CharString>
        <CharString name="U">
          11 callsubr
          hstem
          101 160 385 146 vstem
          792 232 rmoveto
          408 vlineto
          34 -8 10 -36 vhcurveto
          -58 hlineto
          -103 callsubr
          endchar
        </CharString>
        <CharString name="U_uni032F">
          894 -206 -21 30 89 87 104 601 -20 38 callsubr
          hintmask 00111100
          792 232 rmoveto
          408 vlineto
          34 -8 10 -36 vhcurveto
          -58 hlineto
          -103 callsubr
          hintmask 11000000
          -140 -427 -58 callgsubr
        </CharString>
        <CharString name="Uacute">
          156 callsubr
          90 -81 callsubr
          -115 600 rmoveto
          -105 callgsubr
        </CharString>
        <CharString name="Ubreve">
          11 callsubr
          91 89 30 -81 callsubr
          -140 610 -90 callsubr
        </CharString>
        <CharString name="Ucaron">
          11 callsubr
          102 -21 104 -81 callsubr
          -131 603 -101 callsubr
        </CharString>
        <CharString name="Ucircumflex">
          11 callsubr
          102 -21 104 -74 callsubr
          hintmask 00111000
          -132 527 -98 callgsubr
        </CharString>
        <CharString name="Udblgrave">
          156 callsubr
          104 -81 callsubr
          -154 537 -100 callsubr
        </CharString>
        <CharString name="Udieresis">
          11 callsubr
          81 57 51 callsubr
          -43 40 callsubr
          -31 146 hintmask 11010010
          792 232 rmoveto
          408 vlineto
          34 -8 10 -36 vhcurveto
          -58 hlineto
          -103 callsubr
          hintmask 00101100
          -10 callgsubr
          endchar
        </CharString>
        <CharString name="Udieresisacute">
          11 callsubr
          81 57 92 -21 90 -20 51 callsubr
          -43 40 callsubr
          -31 146 hintmask 1100010010000000
          792 232 rmoveto
          408 vlineto
          34 -8 10 -36 vhcurveto
          -58 hlineto
          -103 callsubr
          hintmask 0011101100000000
          -10 callgsubr
          177 vmoveto
          -105 callgsubr
        </CharString>
        <CharString name="Udieresiscaron">
          11 callsubr
          81 57 82 -21 104 -20 51 callsubr
          -43 40 callsubr
          -31 146 hintmask 1100010010000000
          792 232 rmoveto
          408 vlineto
          34 -8 10 -36 vhcurveto
          -58 hlineto
          -103 callsubr
          hintmask 0010101100000000
          -10 callgsubr
          -17 180 -49 callsubr
          -37 hlineto
          -148 -54 -149 54 rlineto
          hintmask 0001110000000000
          -37 hlineto
          -15 -13 0 -14 -8 4 -2 12 -6 hvcurveto
          147 -74 rlineto
          101 hlineto
          147 74 rlineto
          12 6 4 2 8 vvcurveto
          endchar
        </CharString>
        <CharString name="Udieresisgrave">
          11 callsubr
          81 57 92 -21 90 -20 51 callsubr
          -43 40 callsubr
          -31 146 hintmask 1100010010000000
          792 232 rmoveto
          408 vlineto
          34 -8 10 -36 vhcurveto
          -58 hlineto
          -103 callsubr
          hintmask 0011101100000000
          -10 callgsubr
          -115 112 rmoveto
          -75 callsubr
        </CharString>
        <CharString name="Udotbelow">
          11 callsubr
          51 callsubr
          105 161 119 146 hintmask 11101000
          792 232 rmoveto
          408 vlineto
          34 -8 10 -36 vhcurveto
          -58 hlineto
          -103 callsubr
          hintmask 00010000
          -265 -401 -102 callgsubr
        </CharString>
        <CharString name="Ugrave">
          156 callsubr
          90 -81 callsubr
          -230 535 rmoveto
          -75 callsubr
        </CharString>
        <CharString name="Uhookabove">
          11 callsubr
          92 -21 200 -81 callsubr
          -224 618 -106 callgsubr
        </CharString>
        <CharString name="Uhorn">
          83 callgsubr
          38 callsubr
          -102 160 hintmask 01001000
          955 712 rmoveto
          86 -82 callsubr
          -1 -4 -10 -29 -8 -23 rrcurveto
          hintmask 01010000
          19 callgsubr
          hintmask 01001000
          -58 hlineto
          hintmask 11110000
          -103 callsubr
          260 -29 callgsubr
          endchar
        </CharString>
        <CharString name="Uhornacute">
          83 callgsubr
          92 -21 90 -20 38 callsubr
          -102 160 hintmask 01000010
          955 712 rmoveto
          86 -82 callsubr
          -1 -4 -10 -29 -8 -23 rrcurveto
          hintmask 01000100
          19 callgsubr
          hintmask 01000010
          -58 hlineto
          hintmask 11001100
          -103 callsubr
          260 -29 callgsubr
          hintmask 00110000
          -316 120 rmoveto
          -105 callgsubr
        </CharString>
        <CharString name="Uhorndotbelow">
          83 callgsubr
          51 callsubr
          105 161 119 146 -102 160 hintmask 01000100
          955 712 rmoveto
          86 -82 callsubr
          -1 -4 -10 -29 -8 -23 rrcurveto
          hintmask 01001000
          19 callgsubr
          hintmask 01000100
          -58 hlineto
          hintmask 11101000
          -103 callsubr
          260 -29 callgsubr
          hintmask 00010000
          -428 -881 -102 callgsubr
        </CharString>
        <CharString name="Uhorngrave">
          83 callgsubr
          92 -21 90 -20 38 callsubr
          -102 160 hintmask 01000010
          955 712 rmoveto
          86 -82 callsubr
          -1 -4 -10 -29 -8 -23 rrcurveto
          hintmask 01000100
          19 callgsubr
          hintmask 01000010
          -58 hlineto
          hintmask 11001100
          -103 callsubr
          260 -29 callgsubr
          hintmask 00110000
          -393 55 rmoveto
          -75 callsubr
        </CharString>
        <CharString name="Uhornhookabove">
          83 callgsubr
          72 -21 200 -20 38 callsubr
          -102 160 hintmask 01000010
          955 712 rmoveto
          86 -82 callsubr
          -1 -4 -10 -29 -8 -23 rrcurveto
          hintmask 01000100
          19 callgsubr
          hintmask 01000010
          -58 hlineto
          hintmask 11001100
          -103 callsubr
          260 -29 callgsubr
          hintmask 00110000
          -387 138 -106 callgsubr
        </CharString>
        <CharString name="Uhorntilde">
          83 callgsubr
          61 75 -35 75 38 callsubr
          -102 160 hintmask 01000010
          955 712 rmoveto
          86 -82 callsubr
          -1 -4 -10 -29 -8 -23 rrcurveto
          hintmask 01000100
          19 callgsubr
          hintmask 01000010
          -58 hlineto
          hintmask 11001100
          -103 callsubr
          260 -29 callgsubr
          hintmask 00010000
          -321 130 -96 callgsubr
        </CharString>
        <CharString name="Uhungarumlaut">
          156 callsubr
          104 -81 callsubr
          -346 613 -83 callsubr
        </CharString>
        <CharString name="Umacron">
          11 callsubr
          101 90 38 callsubr
          hintmask 11011000
          792 232 rmoveto
          408 vlineto
          34 -8 10 -36 vhcurveto
          -58 hlineto
          -103 callsubr
          hintmask 00100000
          -97 561 -90 callgsubr
        </CharString>
        <CharString name="Uogonek">
          894 -204 79 104 104 601 -20 51 callsubr
          59 160 108 160 -102 146 hintmask 00000010
          792 232 rmoveto
          408 vlineto
          hintmask 00100100
          -88 callsubr
          -58 hlineto
          hintmask 11111010
          -96 callsubr
          -405 vlineto
          -20 0 -58 -56 -38 vhcurveto
          -33 -50 -60 -3 -29 hhcurveto
          -26 -59 2 30 -46 hvcurveto
          -37 24 -22 35 60 vvcurveto
          406 -95 callsubr
          -34 callsubr
          -408 vlineto
          -133 131 -100 167 -17 vhcurveto
          -28 -28 -27 -36 -36 vvcurveto
          -56 44 -30 49 56 33 11 23 51 vhcurveto
          hintmask 10001100
          16 7 -4 7 -1 4 -10 36 rcurveline
          -25 callgsubr
          25 18 28 23 22 hvcurveto
          hintmask 00000010
          176 8 142 103 141 vvcurveto
          endchar
        </CharString>
        <CharString name="Upsilon">
          1069 21 -21 585 120 hstem
          76 146 232 160 232 146 cntrmask 00111000
          992 551 rmoveto
          93 -108 61 -124 -141 -61 -128 -93 -23 vhcurveto
          -1 hlineto
          98 -25 -63 123 -138 hhcurveto
          -125 -107 -61 -93 -35 27 0 15 hvcurveto
          62 hlineto
          15 23 0 29 4 hvcurveto
          19 2 3 21 76 hhcurveto
          151 0 -213 -25 hvcurveto
          -303 vlineto
          134 callsubr
          303 vlineto
          25 0 213 151 76 2 -20 -21 3 vhcurveto
          -28 4 23 0 15 hhcurveto
          62 hlineto
          15 27 0 35 hvcurveto
          endchar
        </CharString>
        <CharString name="Uring">
          11 callsubr
          30 27 50 27 51 callsubr
          33 77 152 77 46 146 hintmask 11001001
          792 232 rmoveto
          408 vlineto
          34 -8 10 -36 vhcurveto
          -58 hlineto
          -103 callsubr
          hintmask 00110110
          -269 514 -46 callsubr
        </CharString>
        <CharString name="Utilde">
          11 callsubr
          81 75 -35 75 -79 callgsubr
          hintmask 00010000
          -158 610 -96 callgsubr
        </CharString>
        <CharString name="V">
          889 14 -21 691 -20 hstem
          32 824 vstem
          856 662 rmoveto
          22 -20 0 -15 vhcurveto
          -64 hlineto
          -18 -27 0 -34 -16 hvcurveto
          -243 -525 -242 520 rlineto
          22 -10 -8 17 -45 hhcurveto
          -81 hlineto
          -20 -15 0 -28 hvcurveto
          290 -624 rlineto
          -22 10 8 -17 45 hhcurveto
          118 hlineto
          21 25 0 37 17 hvcurveto
          284 614 rlineto
          6 12 0 2 4 vvcurveto
          endchar
        </CharString>
        <CharString name="W">
          128 callgsubr
          hstem
          29 1212 vstem
          -76 callgsubr
          endchar
        </CharString>
        <CharString name="Wacute">
          128 callgsubr
          112 -21 90 -20 hstemhm
          29 1212 hintmask 11001000
          -76 callgsubr
          hintmask 00110000
          -375 172 rmoveto
          -105 callgsubr
        </CharString>
        <CharString name="Wcircumflex">
          128 callgsubr
          102 -21 104 -20 hstemhm
          29 1212 hintmask 11001000
          -76 callgsubr
          hintmask 00110000
          -392 99 -98 callgsubr
        </CharString>
        <CharString name="Wdieresis">
          128 callgsubr
          81 57 hstemhm
          29 1212 -834 40 callsubr
          hintmask 11010000
          -76 callgsubr
          hintmask 00101100
          -689 113 -73 callgsubr
        </CharString>
        <CharString name="Wgrave">
          128 callgsubr
          112 -21 90 -20 hstemhm
          29 1212 hintmask 11001000
          -76 callgsubr
          hintmask 00110000
          -490 107 rmoveto
          -75 callsubr
        </CharString>
        <CharString name="X">
          -23 callsubr
        </CharString>
        <CharString name="Xi">
          917 0 130 159 130 132 130 hstem
          57 802 vstem
          851 595 rmoveto
          42 -95 callsubr
          -698 -85 callsubr
          -42 -56 callsubr
          698 -94 callsubr
          8 -551 rmoveto
          42 -95 callsubr
          -714 -85 callsubr
          -42 -56 callsubr
          714 -94 callsubr
          -96 289 rmoveto
          42 -95 callsubr
          -522 -85 callsubr
          -42 -56 callsubr
          522 -94 callsubr
          endchar
        </CharString>
        <CharString name="Y">
          889 28 callgsubr
          hstem
          365 158 vstem
          -80 callsubr
          endchar
        </CharString>
        <CharString name="Yacute">
          889 28 callgsubr
          112 -21 90 -20 hstemhm
          365 158 hintmask 11001000
          -80 callsubr
          hintmask 00110000
          -186 167 rmoveto
          -105 callgsubr
        </CharString>
        <CharString name="Ycircumflex">
          889 28 callgsubr
          102 -21 104 -20 hstemhm
          365 158 hintmask 11001000
          -80 callsubr
          hintmask 00110000
          -203 94 -98 callgsubr
        </CharString>
        <CharString name="Ydieresis">
          889 28 callgsubr
          81 57 hstemhm
          216 145 4 158 7 145 hintmask 11001000
          -80 callsubr
          hintmask 00110100
          -500 108 -73 callgsubr
        </CharString>
        <CharString name="Ydotbelow">
          889 28 callgsubr
          hstemhm
          363 161 -159 158 hintmask 11010000
          -80 callsubr
          hintmask 00100000
          -337 -834 -102 callgsubr
        </CharString>
        <CharString name="Ygrave">
          889 28 callgsubr
          112 -21 90 -20 hstemhm
          365 158 hintmask 11001000
          -80 callsubr
          hintmask 00110000
          -301 102 rmoveto
          -75 callsubr
        </CharString>
        <CharString name="Yhookabove">
          889 28 callgsubr
          92 -21 200 -20 hstemhm
          365 158 hintmask 11001000
          -80 callsubr
          hintmask 00110000
          -295 185 -106 callgsubr
        </CharString>
        <CharString name="Ytilde">
          889 28 callgsubr
          81 110 callsubr
          365 158 hintmask 11001000
          -80 callsubr
          hintmask 00010000
          -229 177 -96 callgsubr
        </CharString>
        <CharString name="Z">
          84 callsubr
          hstem
          76 694 vstem
          -62 callsubr
          endchar
        </CharString>
        <CharString name="Zacute">
          84 callsubr
          92 -21 90 -20 hstemhm
          76 694 hintmask 11001000
          -62 callsubr
          hintmask 00110000
          -120 790 rmoveto
          -105 callgsubr
        </CharString>
        <CharString name="Zcaron">
          84 callsubr
          82 -21 104 -20 hstemhm
          76 694 hintmask 11001000
          -62 callsubr
          hintmask 00110000
          -136 793 -101 callsubr
        </CharString>
        <CharString name="Zdotaccent">
          84 callsubr
          76 63 hstemhm
          76 694 -431 161 hintmask 11010000
          -62 callsubr
          hintmask 00101000
          -270 749 -102 callgsubr
        </CharString>
        <CharString name="Zdotbelow">
          84 callsubr
          hstemhm
          76 694 -431 161 hintmask 11100000
          -62 callsubr
          hintmask 00010000
          -270 -211 -102 callgsubr
        </CharString>
        <CharString name="Zeta">
          84 callsubr
          hstem
          76 694 vstem
          -62 callsubr
          endchar
        </CharString>
        <CharString name="a">
          11 callgsubr
          hstem
          52 143 238 146 vstem
          -107 callsubr
          endchar
        </CharString>
        <CharString name="aacute">
          -71 callsubr
          80 428 -93 callsubr
        </CharString>
        <CharString name="abreve">
          11 callgsubr
          70 89 30 -20 -1 callsubr
          hintmask 11001100
          -107 callsubr
          hintmask 00110000
          95 418 -90 callsubr
        </CharString>
        <CharString name="abreveacute">
          11 callgsubr
          70 89 170 -20 -1 callsubr
          hintmask 11001100
          -107 callsubr
          hintmask 00110000
          95 418 -53 callsubr
        </CharString>
        <CharString name="abrevedotbelow">
          11 callgsubr
          70 89 30 -20 hstemhm
          52 143 47 161 30 146 hintmask 11111010
          -107 callsubr
          95 418 -104 callsubr
          hintmask 00000100
          -125 -879 -102 callgsubr
        </CharString>
        <CharString name="abrevegrave">
          11 callgsubr
          70 89 30 -20 -1 callsubr
          hintmask 11001100
          -107 callsubr
          hintmask 00110000
          95 418 -51 callsubr
        </CharString>
        <CharString name="abrevehookabove">
          11 callgsubr
          70 89 30 89 0 89 52 -20 -1 callsubr
          hintmask 11000011
          -107 callsubr
          hintmask 00110100
          95 418 -104 callsubr
          -83 177 rmoveto
          27 -14 24 -23 14 vhcurveto
          16 -26 -31 4 -36 hhcurveto
          hintmask 00001000
          -43 -40 -19 -33 -27 hvcurveto
          -2 -2 -1 -3 -4 vvcurveto
          1 -4 12 -34 rlineto
          0 1 -3 2 -1 vhcurveto
          10 -5 11 -6 2 6 rrcurveto
          34 11 29 24 34 hhcurveto
          28 19 -3 -9 15 hvcurveto
          10 -7 6 -12 -14 -49 -95 29 -49 vvcurveto
          -22 vlineto
          -7 7 -7 7 vhcurveto
          5 hlineto
          8 6 7 7 hvcurveto
          22 vlineto
          26 3 26 8 24 12 rrcurveto
          22 11 16 21 24 vvcurveto
          endchar
        </CharString>
        <CharString name="abrevetilde">
          11 callgsubr
          70 89 100 143 callgsubr
          hintmask 11000110
          -107 callsubr
          hintmask 00101000
          95 418 -104 callsubr
          -17 199 -77 callsubr
        </CharString>
        <CharString name="acaron">
          -71 callsubr
          103 428 -101 callsubr
        </CharString>
        <CharString name="acircumflex">
          -71 callsubr
          103 352 -98 callgsubr
        </CharString>
        <CharString name="acircumflexacute">
          115 callgsubr
          244 -20 -1 callsubr
          hintmask 11001100
          -107 callsubr
          hintmask 00110000
          103 352 -107 callgsubr
          -41 217 rmoveto
          -105 callgsubr
        </CharString>
        <CharString name="acircumflexdotbelow">
          115 callgsubr
          104 -20 hstemhm
          52 143 47 161 30 146 hintmask 11111010
          -107 callsubr
          103 352 -107 callgsubr
          hintmask 00000100
          -133 -813 -102 callgsubr
        </CharString>
        <CharString name="acircumflexgrave">
          -71 callsubr
          103 352 -107 callgsubr
          -40 152 -70 callsubr
        </CharString>
        <CharString name="acircumflexhookabove">
          115 callgsubr
          334 -20 -1 callsubr
          hintmask 11001100
          -107 callsubr
          hintmask 00110100
          103 352 -107 callgsubr
          30 235 -106 callgsubr
        </CharString>
        <CharString name="acircumflextilde">
          115 callgsubr
          174 143 callgsubr
          hintmask 11000110
          -107 callsubr
          hintmask 00101000
          103 352 rmoveto
          8 -4 2 -12 6 vhcurveto
          -147 74 rlineto
          -101 hlineto
          -147 -74 rlineto
          -12 -6 -4 -2 -8 vvcurveto
          -14 13 0 15 vhcurveto
          37 hlineto
          148 54 149 -54 rlineto
          37 hlineto
          15 13 0 14 hvcurveto
          -26 257 -77 callsubr
        </CharString>
        <CharString name="acute">
          82 callgsubr
          534 720 -93 callsubr
        </CharString>
        <CharString name="acute.cap">
          688 630 -21 90 -20 hstem
          574 686 rmoveto
          -105 callgsubr
        </CharString>
        <CharString name="acute.dup">
          82 callgsubr
          534 720 -93 callsubr
        </CharString>
        <CharString name="acute.ts1">
          688 652 -21 105 -20 hstem
          572 721 rmoveto
          11 -2 -11 3 -10 hhcurveto
          -76 hlineto
          -7 -7 1 -8 hhcurveto
          -6 -6 -1 -1 -5 hvcurveto
          7 1 -160 -65 5 -25 rrcurveto
          -11 3 8 -3 13 hhcurveto
          28 hlineto
          14 11 3 4 12 hvcurveto
          181 66 9 3 10 3 -3 11 rlinecurve
          endchar
        </CharString>
        <CharString name="adblgrave">
          -71 callsubr
          81 352 -100 callsubr
        </CharString>
        <CharString name="adieresis">
          11 callgsubr
          101 57 hstemhm
          52 143 -77 50 callgsubr
          -96 146 hintmask 11010010
          -107 callsubr
          hintmask 00101100
          -170 390 -58 callsubr
        </CharString>
        <CharString name="adotbelow">
          11 callgsubr
          hstemhm
          52 143 47 161 30 146 hintmask 11101000
          -107 callsubr
          hintmask 00010000
          -30 -461 -102 callgsubr
        </CharString>
        <CharString name="ae">
          -49 callgsubr
        </CharString>
        <CharString name="ae.dup">
          -49 callgsubr
        </CharString>
        <CharString name="aeacute">
          993 -10 76 9 76 114 57 -41 57 -16 57 -41 76 63 76 98 -21 104 -20 hstemhm
          43 143 237 146 0 143 109 133 hintmask 0000011000000000
          954 320 rmoveto
          109 -63 124 -178 -92 -64 -40 -28 -33 vhcurveto
          43 -50 -60 25 -91 hhcurveto
          -83 -57 -14 -21 -57 hvcurveto
          -31 -12 -1 -1 -12 vvcurveto
          -12 5 -52 2 -13 vhcurveto
          -5 1 1 -11 12 hhcurveto
          4 2 0 14 16 hvcurveto
          42 48 59 27 79 hhcurveto
          hintmask 1100100001100000
          52 48 -32 -72 hvcurveto
          -57 vlineto
          -76 -304 -19 -153 -67 53 -93 130 73 146 12 73 65 hvcurveto
          -69 76 84 -16 61 hhcurveto
          80 71 26 42 61 hvcurveto
          2 3 1 7 3 vvcurveto
          10 -3 27 -1 11 vhcurveto
          28 -3 -1 7 -12 hhcurveto
          -5 -1 -1 -14 -15 hvcurveto
          -73 -73 -85 0 -14 hhcurveto
          hintmask 0001000000101000
          -76 -88 69 146 hvcurveto
          341 117 callgsubr
          -133 18 rmoveto
          -244 hlineto
          hintmask 1101001001011000
          80 18 55 59 62 hhcurveto
          88 18 -87 -52 3 hvcurveto
          -375 -173 rmoveto
          -82 -10 -103 -17 -44 hhcurveto
          -64 -39 42 43 hvcurveto
          hintmask 0010000000100000
          54 67 49 170 11 vhcurveto
          2 -35 5 -28 16 -37 rrcurveto
          hintmask 0000000110000000
          241 555 -93 callsubr
        </CharString>
        <CharString name="agrave">
          -71 callsubr
          -15 352 rmoveto
          -65 callgsubr
        </CharString>
        <CharString name="ahookabove">
          11 callgsubr
          80 -21 200 -20 -1 callsubr
          hintmask 11001100
          -107 callsubr
          hintmask 00110000
          11 435 -106 callgsubr
        </CharString>
        <CharString name="amacron">
          11 callgsubr
          84 90 -1 callsubr
          hintmask 11011000
          -107 callsubr
          hintmask 00100000
          138 373 -90 callgsubr
        </CharString>
        <CharString name="ampersand">
          1028 -21 83 -33 76 160 76 298 76 hstemhm
          57 150 289 121 hintmask 01000000
          951 29 rmoveto
          48 vlineto
          15 0 13 -14 -3 -2 0 -8 -10 vhcurveto
          hintmask 10111100
          -26 -42 -43 -9 -37 hhcurveto
          -27 -53 4 33 -64 hvcurveto
          32 24 49 39 56 74 rrcurveto
          89 119 34 121 6 vvcurveto
          6 -4 5 -7 2 vhcurveto
          2 -5 -57 16 -3 hhcurveto
          -11 -1 -5 -24 -9 hvcurveto
          -66 -200 -122 -101 -55 -35 -44 33 -77 63 -62 91 rrcurveto
          128 76 96 64 78 vvcurveto
          88 -84 74 -111 -107 -106 -76 -122 -63 18 -66 22 -47 vhcurveto
          -16 -10 -108 -63 -3 -3 rrcurveto
          -43 -32 -22 -40 -44 vvcurveto
          -102 103 -68 148 96 87 27 28 58 vhcurveto
          -49 106 95 -6 49 hhcurveto
          73 53 17 4 11 hvcurveto
          hintmask 01010100
          15 5 0 3 21 vvcurveto
          -455 522 rmoveto
          -41 -33 -47 -106 -60 vhcurveto
          -19 45 -13 48 49 vvcurveto
          73 64 21 32 48 27 -46 -42 vhcurveto
          -38 -464 rmoveto
          hintmask 10000000
          -23 -73 -57 -2 -17 hhcurveto
          -75 -33 58 46 60 37 22 45 26 hvcurveto
          37 -58 56 -69 80 -60 rrcurveto
          endchar
        </CharString>
        <CharString name="anglearc">
          1069 -160 -21 918 -20 hstem
          742 90 vstem
          992 45 rmoveto
          21 -14 17 -19 5 vhcurveto
          -143 41 rlineto
          11 48 5 50 51 vvcurveto
          51 -5 50 -11 48 vhcurveto
          143 41 rlineto
          19 5 14 17 21 vvcurveto
          25 -20 20 -25 -4 -4 -1 -1 -4 vhcurveto
          -144 -40 -26 74 -38 70 -50 62 rlinecurve
          10 -8 -13 7 -14 hhcurveto
          -25 -20 -20 -25 -11 4 -9 6 -8 hvcurveto
          42 -53 33 -59 23 -63 -596 -168 rcurveline
          -19 -5 -14 -17 -21 vvcurveto
          -21 14 -17 19 -5 vhcurveto
          596 -168 -23 -63 -33 -59 -42 -53 rlinecurve
          -6 -8 -4 -9 -11 vvcurveto
          -25 20 -20 25 14 13 7 10 8 vhcurveto
          50 62 38 70 26 74 144 -40 rcurveline
          -1 4 4 -1 4 hhcurveto
          25 20 20 25 hvcurveto
          -250 233 rmoveto
          -42 -4 -42 -9 -41 vhcurveto
          -442 125 442 125 rlineto
          9 -41 4 -42 -42 vvcurveto
          endchar
        </CharString>
        <CharString name="angleleft">
          123 callsubr
          458 -163 rmoveto
          -6 26 -19 29 -12 25 -73 149 rcurveline
          -70 144 -8 18 -15 22 -4 16 rlinecurve
          3 vlineto
          -1 5 3 4 2 4 183 376 rcurveline
          9 19 16 20 -5 24 rrcurveto
          24 -6 -25 20 -24 hhcurveto
          hintmask 11000000
          -3 -1 -1 -3 hhcurveto
          -24 -4 -7 -22 -9 -19 -166 -340 rcurveline
          -27 -57 -6 -12 -8 -11 2 -15 rlinecurve
          -4 vlineto
          4 -18 16 -25 9 -21 180 -368 rcurveline
          -30 15 14 -26 33 hhcurveto
          27 14 21 24 -5 hvcurveto
          endchar
        </CharString>
        <CharString name="angleright">
          123 callsubr
          383 273 rmoveto
          -1 3 -4 20 -16 29 -12 23 rlinecurve
          -177 364 rlineto
          26 -14 -15 27 -32 hhcurveto
          hintmask 11000000
          -3 -1 -1 -3 hhcurveto
          -23 -4 -11 -19 5 -23 2 -6 rcurveline
          27 -64 35 -64 31 -63 34 -70 32 -72 37 -69 2 -6 5 -8 1 -6 1 -2 rcurveline
          1 -4 -4 -4 -1 -4 -44 -91 rcurveline
          -125 -256 -24 -48 -6 -13 -7 -12 3 -18 rlinecurve
          6 -24 23 -21 25 -1 rrcurveto
          27 9 22 20 9 hvcurveto
          62 127 106 217 28 57 5 12 8 11 -1 15 rlinecurve
          endchar
        </CharString>
        <CharString name="aogonek">
          646 -204 79 115 76 417 70 156 callgsubr
          hintmask 10001000
          594 -152 -33 callgsubr
          30 hlineto
          hintmask 01110100
          1 callgsubr
          hintmask 11011000
          -35 -25 -56 -54 -52 -44 callgsubr
          rrcurveto
          -161 327 rmoveto
          -109 -131 0 -4 -59 -44 41 49 vhcurveto
          hintmask 00000100
          75 94 52 144 9 vhcurveto
          endchar
        </CharString>
        <CharString name="aogonekacute">
          646 -204 79 115 76 417 70 98 -21 104 -20 156 callgsubr
          hintmask 10000010
          594 -152 -33 callgsubr
          30 hlineto
          hintmask 01100101
          1 callgsubr
          hintmask 11000110
          -35 -25 -56 -54 -52 -44 callgsubr
          rrcurveto
          -161 327 rmoveto
          -109 -131 0 -4 -59 -44 41 49 vhcurveto
          hintmask 00000001
          75 94 52 144 9 vhcurveto
          hintmask 00011000
          80 428 -93 callsubr
        </CharString>
        <CharString name="aring">
          11 callgsubr
          66 27 50 27 134 callgsubr
          hintmask 11001001
          -107 callsubr
          hintmask 00110110
          -35 379 -46 callsubr
        </CharString>
        <CharString name="aringacute">
          11 callgsubr
          66 136 callsubr
          134 callgsubr
          hintmask 1100010010000000
          -107 callsubr
          hintmask 0011101100000000
          -35 379 -68 callsubr
          20 179 rmoveto
          -105 callgsubr
        </CharString>
        <CharString name="asciicircum">
          556 583 -21 123 59 hstem
          -5 566 vstem
          561 584 rmoveto
          -283 160 -283 -160 11 -22 271 123 272 -123 rlineto
          endchar
        </CharString>
        <CharString name="asciitilde">
          556 221 43 -25 43 -8 43 -25 43 hstemhm
          hintmask 10010000
          555 318 61 callgsubr
          hintmask 01000000
          42 callsubr
          hintmask 00100000
          20 10 20 11 17 14 rrcurveto
          endchar
        </CharString>
        <CharString name="asciitilde.low">
          556 0 43 -25 43 -8 43 -25 43 hstemhm
          0 555 hintmask 10010000
          555 97 61 callgsubr
          hintmask 01001000
          42 callsubr
          hintmask 00101000
          20 10 20 11 17 14 rrcurveto
          endchar
        </CharString>
        <CharString name="asterisk">
          688 247 123 callgsubr
          hstem
          88 511 vstem
          599 390 rmoveto
          24 -11 16 -24 8 vhcurveto
          -176 57 175 57 rlineto
          11 3 25 9 36 vvcurveto
          35 -29 26 -27 -13 -8 -4 -10 -12 vhcurveto
          -146 -118 34 173 rlineto
          1 3 1 8 3 vvcurveto
          28 -28 20 -28 -32 -25 -22 -26 -4 0 -2 3 -13 vhcurveto
          33 -168 -147 118 rlineto
          9 -12 -5 5 -15 hhcurveto
          -27 -29 -26 -35 -24 11 -16 24 -8 hvcurveto
          176 -57 -175 -57 rlineto
          -11 -3 -25 -9 -36 vvcurveto
          -35 29 -26 27 13 8 4 10 12 vhcurveto
          146 118 -34 -173 rlineto
          -1 -3 -1 -8 -3 vvcurveto
          -28 28 -20 28 32 25 22 26 4 0 2 -3 13 vhcurveto
          -33 168 147 -118 rlineto
          -9 12 5 -5 15 hhcurveto
          27 29 26 35 hvcurveto
          endchar
        </CharString>
        <CharString name="asterisk.math">
          688 31 123 callgsubr
          hstem
          598 397 rmoveto
          23 -5 -22 25 -28 hhcurveto
          -21 -16 -17 -11 -15 hvcurveto
          -127 -103 28 145 3 15 6 18 -3 17 rlinecurve
          26 -6 -26 13 -22 hhcurveto
          -39 -25 -27 -44 10 hvcurveto
          2 -10 3 -11 2 -9 25 -133 rcurveline
          -117 94 rlineto
          15 -20 -17 22 -26 hhcurveto
          -37 -23 -42 -31 7 hvcurveto
          7 -32 28 -3 33 -12 41 -13 41 -11 40 -16 7 -2 6 -1 6 -4 -17 -2 -14 -7 -15 -5 -40 -14 -42 -12 -41 -14 -31 -9 -16 -21 7 -33 rrcurveto
          -22 4 21 -26 31 hhcurveto
          21 15 17 12 15 hvcurveto
          126 102 -7 -49 -11 -47 -9 -48 rlinecurve
          -3 -15 -7 -18 3 -17 rrcurveto
          -27 6 27 -13 23 hhcurveto
          37 24 26 40 -8 hvcurveto
          -6 28 -7 46 -10 48 -10 46 rlinecurve
          -42 51 94 -89 35 hhcurveto
          38 22 42 32 -7 hvcurveto
          -4 22 -16 8 -20 7 -29 9 rcurveline
          -139 46 132 43 36 12 31 9 17 21 -7 33 rlinecurve
          endchar
        </CharString>
        <CharString name="at">
          917 -10 76 52 76 306 76 52 76 hstem
          76 124 120 124 272 124 vstem
          840 91 -49 callsubr
          -44 hlineto
          -16 -2 0 -7 -21 hvcurveto
          -28 -82 -71 -4 -39 hhcurveto
          -199 -138 135 146 155 152 126 179 40 61 -9 -57 39 hvcurveto
          14 -47 -31 0 -13 hhcurveto
          -147 -113 -105 -124 -123 113 -106 147 121 139 79 160 206 -77 141 -230 -259 -198 -166 -191 -191 197 -166 260 88 108 20 71 108 hvcurveto
          0 3 5 5 vvcurveto
          -124 256 rmoveto
          -86 -63 -67 -73 -73 -63 67 86 86 63 67 73 73 63 -67 -86 vhcurveto
          endchar
        </CharString>
        <CharString name="atilde">
          11 callgsubr
          72 143 callgsubr
          hintmask 11001100
          -107 callsubr
          hintmask 00010000
          77 430 -96 callgsubr
        </CharString>
        <CharString name="b">
          681 -10 76 406 76 146 -20 hstemhm
          77 146 -46 146 165 146 hintmask 01101000
          99 callgsubr
          165 -52 callsubr
          hintmask 10010100
          -96 callsubr
          -606 46 callsubr
          hintmask 10001000
          -51 -39 -61 -9 -30 hhcurveto
          hintmask 01010100
          65 callsubr
        </CharString>
        <CharString name="backslash">
          575 750 -20 hstem
          510 -219 rmoveto
          6 -1 1 -5 13 vhcurveto
          -377 919 rlineto
          17 -7 -5 13 -21 hhcurveto
          -14 -16 -11 -20 -6 1 -1 5 -13 hvcurveto
          377 -919 rlineto
          -15 6 6 -15 21 hhcurveto
          14 16 11 20 hvcurveto
          endchar
        </CharString>
        <CharString name="baht">
          903 0 104 214 76 186 104 hstem
          101 157 143 84 6 84 96 155 vstem
          826 196 rmoveto
          94 -141 53 -110 16 vhcurveto
          81 15 131 43 85 vvcurveto
          98 -144 74 -158 9 vhcurveto
          64 159 callsubr
          -11 vhcurveto
          -43 hlineto
          -11 -10 -9 -12 hvcurveto
          -63 -256 vlineto
          -96 callsubr
          -596 -56 callsubr
          256 -63 hlineto
          -12 10 -9 11 vhcurveto
          43 hlineto
          11 9 9 12 hvcurveto
          63 6 vlineto
          175 160 85 111 hvcurveto
          -192 304 rmoveto
          -49 -69 -37 -80 -14 vhcurveto
          175 vlineto
          68 -8 81 -22 -45 vvcurveto
          -233 -106 rmoveto
          -143 186 143 hlineto
          270 -383 rmoveto
          -56 -102 -30 -84 -6 vhcurveto
          209 vlineto
          109 -13 77 -48 -56 vvcurveto
          -270 -93 rmoveto
          -143 214 143 hlineto
          endchar
        </CharString>
        <CharString name="bar">
          319 750 -20 hstem
          129 61 vstem
          190 -206 rmoveto
          34 callsubr
          endchar
        </CharString>
        <CharString name="bigcircle">
          684 149 callgsubr
          hstem
          149 callgsubr
          vstem
          -55 callgsubr
          endchar
        </CharString>
        <CharString name="blanksymbol">
          681 -10 76 406 76 0 76 70 -20 hstemhm
          31 146 -100 146 -46 146 165 146 hintmask 00111000
          99 callgsubr
          32 vlineto
          96 75 9 7 2 13 -7 9 rlinecurve
          -26 34 -8 9 -13 2 -9 -7 rlinecurve
          -44 -35 rlineto
          26 -52 callsubr
          hintmask 00000100
          -96 callsubr
          -139 vlineto
          -69 -54 -9 -7 -2 -13 7 -9 rlinecurve
          hintmask 00001000
          27 -34 7 -9 13 -1 9 7 rlinecurve
          hintmask 10000101
          17 13 rlineto
          -360 46 callsubr
          hintmask 10000010
          -51 -39 -61 -9 -30 hhcurveto
          hintmask 01000101
          65 callsubr
        </CharString>
        <CharString name="braceleft">
          92 callgsubr
          -232 rmoveto
          13 -5 4 -12 1 vhcurveto
          -84 5 -37 35 -12 36 rrcurveto
          -3 10 0 8 17 vvcurveto
          237 vlineto
          -1 42 -32 51 -86 23 rrcurveto
          119 32 0 69 45 vvcurveto
          210 vlineto
          22 0 29 39 29 vhcurveto
          11 7 29 18 52 3 rrcurveto
          14 1 8 0 17 vvcurveto
          18 -9 0 -22 -142 -90 -50 -77 -1 vhcurveto
          -206 vlineto
          -62 0 -21 -33 -29 vhcurveto
          -23 -21 -35 -14 -41 -2 rrcurveto
          -14 -1 -8 0 -17 vvcurveto
          -13 5 -4 12 -1 vhcurveto
          90 -5 36 -45 9 -36 rrcurveto
          2 -8 0 -2 -37 vvcurveto
          -210 vlineto
          -128 166 -11 67 22 9 0 18 vhcurveto
          endchar
        </CharString>
        <CharString name="braceright">
          92 callgsubr
          250 rmoveto
          13 -5 4 -12 1 vhcurveto
          -64 3 -52 26 -17 55 rrcurveto
          -3 8 0 2 39 vvcurveto
          210 vlineto
          123 -152 16 -82 -21 -10 0 -18 -13 5 -4 12 -1 vhcurveto
          81 -4 41 -33 12 -39 rrcurveto
          3 -10 0 -8 -17 vvcurveto
          -237 vlineto
          1 -42 31 -50 87 -24 rrcurveto
          -119 -32 0 -68 -46 vvcurveto
          -210 vlineto
          -23 0 -26 -37 -29 vhcurveto
          -10 -7 -31 -20 -54 -3 rrcurveto
          -14 -1 -8 0 -17 vvcurveto
          -18 10 0 21 150 83 54 73 1 vhcurveto
          206 vlineto
          65 0 17 34 31 vhcurveto
          11 11 33 22 53 3 rrcurveto
          14 1 8 0 17 vvcurveto
          endchar
        </CharString>
        <CharString name="bracketleft">
          417 -208 76 820 76 hstem
          119 143 vstem
          386 -170 rmoveto
          38 -25 0 -19 vhcurveto
          -80 820 80 hlineto
          19 25 0 38 38 -25 0 -19 hvcurveto
          -179 -85 callsubr
          -884 -56 callsubr
          179 44 callgsubr
        </CharString>
        <CharString name="bracketright">
          417 -208 76 820 76 hstem
          154 143 vstem
          297 -164 rmoveto
          884 -95 callsubr
          -179 8 callsubr
          80 -820 -80 8 callsubr
          179 -94 callsubr
          endchar
        </CharString>
        <CharString name="breve">
          688 623 118 callgsubr
          710 -90 callsubr
        </CharString>
        <CharString name="breve.cap">
          688 609 118 callgsubr
          696 -90 callsubr
        </CharString>
        <CharString name="breve.ts1">
          840 666 731 rmoveto
          18 -15 14 -23 -13 -8 -5 -5 -6 vhcurveto
          -30 -15 -95 10 -71 hhcurveto
          -85 -80 10 11 -17 hvcurveto
          5 -7 -8 4 -10 hhcurveto
          -23 -16 -14 -18 -77 112 -10 134 135 111 10 77 hvcurveto
          endchar
        </CharString>
        <CharString name="brokenbar">
          319 750 -20 hstem
          129 61 vstem
          190 341 rmoveto
          365 vlineto
          14 0 30 -30 -31 0 -29 -15 vhcurveto
          -365 vlineto
          -21 11 -21 20 19 11 21 21 vhcurveto
          -547 vmoveto
          365 vlineto
          21 -11 21 -19 -20 -11 -21 -21 vhcurveto
          -365 47 callgsubr
          endchar
        </CharString>
        <CharString name="bullet">
          1069 139 348 hstem
          361 348 46 callgsubr
          endchar
        </CharString>
        <CharString name="c">
          144 callgsubr
          hstem
          46 146 vstem
          -79 callsubr
          endchar
        </CharString>
        <CharString name="cacute">
          144 callgsubr
          98 -21 104 -20 97 callsubr
          hintmask 11001000
          -79 callsubr
          hintmask 00110000
          -46 653 -93 callsubr
        </CharString>
        <CharString name="caron">
          687 50 callsubr
          557 720 -101 callsubr
        </CharString>
        <CharString name="caron.cap">
          687 620 85 callsubr
          557 689 -101 callsubr
        </CharString>
        <CharString name="caron.ts1">
          840 633 -21 145 -20 hstem
          633 742 rmoveto
          -1 6 -7 7 -7 1 rrcurveto
          -44 hlineto
          -18 -14 -11 -8 -14 hvcurveto
          -95 -52 rlineto
          -3 -4 -6 -5 -6 hhcurveto
          -13 2 -20 14 -13 8 -67 37 rcurveline
          8 -16 -14 11 -17 -6 -6 -1 -6 -5 -5 1 -5 hhcurveto
          -4 -4 -1 -1 -3 hvcurveto
          -6 -2 -1 -6 1 -5 2 -12 17 -9 11 -8 42 -32 rcurveline
          58 -44 rlineto
          -10 14 13 -15 18 5 5 1 5 hhcurveto
          64 hlineto
          21 15 18 12 18 hvcurveto
          32 24 30 25 33 23 9 7 16 8 -2 12 rrcurveto
          endchar
        </CharString>
        <CharString name="ccaron">
          144 callgsubr
          98 -21 104 -20 97 callsubr
          hintmask 11001000
          -79 callsubr
          hintmask 00110000
          -22 653 -101 callsubr
        </CharString>
        <CharString name="ccedilla">
          144 callgsubr
          97 callsubr
          40 146 -132 146 14 146 hintmask 11110100
          -79 callsubr
          -166 -125 -24 callgsubr
          -13 -11 159 callgsubr
          hintmask 00001100
          -6 callsubr
          54 hlineto
          20 1 1 13 12 hvcurveto
          59 69 rlineto
          14 16 0 151 callgsubr
        </CharString>
        <CharString name="ccircumflex">
          144 callgsubr
          98 -21 104 -20 97 callsubr
          hintmask 11001000
          -79 callsubr
          hintmask 00110000
          -23 577 -98 callgsubr
        </CharString>
        <CharString name="cdotaccent">
          144 callgsubr
          98 63 97 callsubr
          63 161 hintmask 11010000
          -79 callsubr
          hintmask 00101000
          -156 615 -102 callgsubr
        </CharString>
        <CharString name="cedilla">
          611 -143 120 hstem
          193 188 vstem
          381 -37 -39 callsubr
        </CharString>
        <CharString name="cedilla.dup">
          611 -143 120 hstem
          193 188 vstem
          381 -37 -39 callsubr
        </CharString>
        <CharString name="cent">
          611 46 146 102 84 vstem
          572 67 rmoveto
          9 -6 59 -1 9 vhcurveto
          8 -2 -4 5 -8 hhcurveto
          -5 -2 0 -18 -18 hvcurveto
          -49 -47 -55 -17 -44 -4 rrcurveto
          402 vlineto
          60 -4 33 -17 46 -35 rrcurveto
          -11 13 2 0 5 hhcurveto
          11 1 8 14 3 hvcurveto
          10 54 157 callsubr
          2 3 vvcurveto
          9 -7 4 0 vhcurveto
          -12 6 -62 34 -105 4 rrcurveto
          50 vlineto
          11 -9 9 -12 vhcurveto
          -42 hlineto
          -12 -9 -9 -11 hvcurveto
          -53 vlineto
          -160 -26 -88 -131 -123 vvcurveto
          -132 101 -120 147 -23 vhcurveto
          -57 vlineto
          -12 9 -9 12 vhcurveto
          42 hlineto
          12 9 9 12 hvcurveto
          54 vlineto
          53 4 66 15 72 45 rrcurveto
          2 3 1 5 4 vvcurveto
          -278 11 rmoveto
          -55 21 -47 58 113 vvcurveto
          74 20 93 82 28 vhcurveto
          endchar
        </CharString>
        <CharString name="cent.oldstyle">
          611 -10 79 -71 79 397 79 97 callsubr
          hintmask 10000000
          572 67 rmoveto
          9 -6 59 -1 9 vhcurveto
          8 -2 -4 5 -8 hhcurveto
          -5 -2 0 -18 -18 hvcurveto
          -59 -62 -70 -11 -47 hhcurveto
          hintmask 01110000
          -16 -17 3 5 -16 hvcurveto
          123 390 36 -8 26 -16 34 -26 rlinecurve
          -11 13 2 0 5 hhcurveto
          11 1 8 14 3 hvcurveto
          10 54 157 callsubr
          2 3 vvcurveto
          9 -7 4 0 vhcurveto
          -9 5 -38 20 -65 12 18 57 rcurveline
          10 3 -7 10 -10 hhcurveto
          -47 hlineto
          -12 -11 -8 -12 -4 hvcurveto
          -15 -49 rlineto
          -8 hlineto
          -197 -109 -147 -137 -100 57 -92 92 -50 hvcurveto
          -29 -91 rlineto
          -10 -3 7 -10 10 hhcurveto
          47 hlineto
          12 11 8 12 4 hvcurveto
          19 62 rlineto
          hintmask 10010000
          -5 23 25 -3 25 hhcurveto
          57 79 10 55 87 hvcurveto
          2 3 1 5 4 vvcurveto
          -237 406 rmoveto
          -108 -341 rlineto
          -21 31 -14 45 62 vvcurveto
          85 26 109 117 9 vhcurveto
          endchar
        </CharString>
        <CharString name="centigrade">
          1184 -20 84 316 91 123 91 -63 84 1 -20 hstemhm
          hintmask 10010000
          1108 36 rmoveto
          10 8 -6 73 -5 26 -2 7 -4 8 -10 1 rrcurveto
          -3 hlineto
          -11 -18 -20 -10 -11 hvcurveto
          -45 -57 -57 -20 -97 hhcurveto
          -111 -145 68 153 -33 hvcurveto
          190 -40 161 147 179 hhcurveto
          74 69 -26 -61 57 hvcurveto
          -5 5 7 -6 7 hhcurveto
          22 9 134 0 hvcurveto
          hintmask 00001000
          32 -7 -175 17 -84 hhcurveto
          hintmask 10010000
          -7 -7 0 -1 -7 hvcurveto
          -157 -16 -140 -54 -83 -125 -40 -63 -21 -80 18 -84 25 -118 100 -95 116 -50 rrcurveto
          -30 70 76 -11 71 hhcurveto
          84 72 10 33 76 hvcurveto
          10 4 11 4 9 5 rrcurveto
          -805 518 rmoveto
          hintmask 01100000
          67 -14 -60 64 -88 hhcurveto
          -11 hlineto
          -83 -9 -63 -74 19 -90 rrcurveto
          -63 14 56 -69 91 hhcurveto
          11 hlineto
          85 8 63 75 -20 91 rrcurveto
          -91 -5 rmoveto
          -40 5 -32 -38 -40 hhcurveto
          -24 -21 13 30 -6 hvcurveto
          40 -5 33 40 40 hhcurveto
          19 25 -12 -26 6 hvcurveto
          endchar
        </CharString>
        <CharString name="circumflex">
          18 callsubr
        </CharString>
        <CharString name="circumflex.cap">
          149 callsubr
          104 -20 hstem
          557 613 -98 callgsubr
        </CharString>
        <CharString name="circumflex.dup">
          18 callsubr
        </CharString>
        <CharString name="colon">
          382 0 15 callgsubr
          -85 vlineto
          -27 2 -2 27 vhcurveto
          85 hlineto
          26 2 2 26 hvcurveto
          endchar
        </CharString>
        <CharString name="colonmonetary">
          879 -21 83 14 83 463 83 hstem
          76 160 205 84 vstem
          65 callgsubr
          -15 560 10 hlineto
          33 callgsubr
          -15 84 hlineto
          12 -9 9 -11 vhcurveto
          -43 hlineto
          -12 -9 -9 -12 hvcurveto
          -92 vlineto
          -226 -36 -139 -158 -161 vvcurveto
          -159 137 -160 228 -36 vhcurveto
          -92 vlineto
          -12 9 -9 12 vhcurveto
          43 hlineto
          11 9 9 12 hvcurveto
          84 16 vlineto
          126 callgsubr
          -367 25 rmoveto
          -128 39 -77 113 114 vvcurveto
          122 84 107 121 37 vhcurveto
          endchar
        </CharString>
        <CharString name="comma">
          382 -101 -21 122 105 callsubr
          28 rmoveto
          86 -82 callsubr
          -1 -4 -10 -29 -8 -23 rrcurveto
          -15 -40 -3 -8 -4 vvcurveto
          -14 13 0 15 vhcurveto
          15 hlineto
          21 1 1 17 10 hvcurveto
          56 94 rlineto
          11 19 0 2 17 vvcurveto
          endchar
        </CharString>
        <CharString name="copyleft">
          684 149 callgsubr
          hstem
          149 callgsubr
          vstem
          -55 callgsubr
          -71 hmoveto
          87 -86 85 -134 -29 -19 -2 -1 -6 vhcurveto
          -29 -4 -32 -9 -2 -1 rrcurveto
          0 -3 -2 -4 vvcurveto
          0 0 -2 1 -4 vhcurveto
          8 -47 rlineto
          -6 1 1 -4 5 hhcurveto
          4 1 1 3 2 hvcurveto
          27 25 28 16 46 hhcurveto
          81 61 -61 -72 -67 -56 -66 -88 -52 -22 11 30 -35 hvcurveto
          5 -5 -1 0 -2 hhcurveto
          -6 0 -5 -2 -1 hvcurveto
          -1 -7 -2 -31 -6 vvcurveto
          0 0 -5 1 -1 vhcurveto
          -28 54 46 0 25 hhcurveto
          136 85 86 86 hvcurveto
          endchar
        </CharString>
        <CharString name="copyright">
          684 149 callgsubr
          hstem
          149 callgsubr
          vstem
          -55 callgsubr
          -112 -138 rmoveto
          6 -3 31 7 vvcurveto
          2 -1 0 5 -6 hhcurveto
          -2 -1 0 -5 -6 hvcurveto
          -30 -34 -22 -11 -52 hhcurveto
          -88 -56 66 67 72 62 61 80 45 28 -16 -27 26 hvcurveto
          -3 2 1 -1 4 hhcurveto
          5 1 4 6 1 hvcurveto
          8 47 rlineto
          1 4 0 2 0 vvcurveto
          4 -3 2 0 vhcurveto
          -2 1 -32 9 -29 4 rrcurveto
          1 -6 -19 2 -29 hhcurveto
          -134 -85 -85 -87 -86 84 -86 136 25 46 0 28 54 hvcurveto
          1 1 0 5 0 vvcurveto
          endchar
        </CharString>
        <CharString name="copyright.alt">
          927 -194 77 144 77 -68 77 542 77 hstemhm
          0 77 109 113 551 77 hintmask 10111010
          927 269 rmoveto
          284 -179 179 -285 -284 -179 -179 -284 -284 179 -179 284 285 179 179 284 vhcurveto
          -77 hmoveto
          -237 -150 -149 -237 -237 -149 149 237 237 149 149 237 237 150 -149 -237 vhcurveto
          -146 -233 rmoveto
          9 -4 46 -2 10 vhcurveto
          4 -1 8 -9 vhcurveto
          hintmask 01000100
          -3 -1 -1 -8 -8 hvcurveto
          -45 -51 -34 -15 -77 hhcurveto
          -132 -83 98 100 107 91 91 121 68 41 -23 -40 39 hvcurveto
          -5 2 3 -2 5 hhcurveto
          7 2 7 8 1 hvcurveto
          13 71 rlineto
          1 6 0 3 0 vvcurveto
          6 -5 3 0 vhcurveto
          -3 2 -47 13 -44 5 rrcurveto
          2 -8 -29 3 -43 hhcurveto
          -201 -127 -127 -130 -128 126 -129 203 37 69 0 42 81 hvcurveto
          hintmask 00100000
          1 2 1 5 2 vvcurveto
          endchar
        </CharString>
        <CharString name="currency">
          1069 -26 90 428 90 hstem
          231 90 428 90 vstem
          858 -47 rmoveto
          33 33 -33 32 -8 8 -71 71 rcurveline
          38 51 22 62 68 vvcurveto
          68 -22 62 -38 50 vhcurveto
          71 72 17 16 18 28 -27 27 rlinecurve
          -32 33 -33 -33 -7 -7 -71 -71 rcurveline
          37 -51 -62 22 -67 hhcurveto
          -68 -62 -22 -38 -51 hvcurveto
          -71 72 -7 7 -34 33 -32 -32 rlinecurve
          -32 -32 32 -33 8 -7 72 -72 rcurveline
          -37 -50 -22 -63 -67 vvcurveto
          -67 22 -63 37 -50 vhcurveto
          -72 -73 -17 -16 -18 -28 27 -27 rlinecurve
          32 -33 33 33 7 7 72 72 rcurveline
          -37 51 62 -22 68 hhcurveto
          67 62 22 37 51 hvcurveto
          71 -71 7 -7 33 -34 32 32 rlinecurve
          -109 325 rmoveto
          -118 -96 -96 -118 -118 -96 96 118 118 96 96 118 118 96 -96 -118 vhcurveto
          endchar
        </CharString>
        <CharString name="cwm">
          0 endchar
        </CharString>
        <CharString name="cwmascender">
          0 endchar
        </CharString>
        <CharString name="cwmcapital">
          0 endchar
        </CharString>
        <CharString name="d">
          681 -10 81 callsubr
          265 146 hintmask 10111100
          -60 callgsubr
          hintmask 01000100
          endchar
        </CharString>
        <CharString name="dagger">
          511 388 111 203 -20 hstemhm
          200 111 -32 111 hintmask 10010000
          447 443 rmoveto
          155 callgsubr
          -33 -16 -9 -2 -13 -3 3 28 7 23 9 27 rrcurveto
          hintmask 11100000
          11 36 11 37 33 vvcurveto
          49 -37 10 -18 -22 -34 -13 -46 -33 11 -36 10 -32 vhcurveto
          10 -33 7 -23 3 -27 -10 2 -11 3 -19 9 rrcurveto
          12 -24 -29 14 -27 113 callgsubr
          33 16 9 2 13 3 -3 -27 -10 -28 -7 -20 rrcurveto
          -21 -64 0 -15 -43 vvcurveto
          -129 10 -130 16 -128 vhcurveto
          2 -16 4 -28 3 -4 rrcurveto
          -7 3 8 0 9 hhcurveto
          hintmask 00010000
          11 10 0 11 3 hvcurveto
          hintmask 00100000
          2 12 30 208 211 vvcurveto
          46 0 12 -23 70 vhcurveto
          -7 21 -8 25 -3 23 10 -2 11 -3 19 -9 rrcurveto
          hintmask 10010000
          -12 24 29 -14 27 hhcurveto
          41 16 30 25 hvcurveto
          endchar
        </CharString>
        <CharString name="daggerdbl">
          511 -32 111 323 111 -92 110 171 -20 hstemhm
          200 111 hintmask 00100000
          447 476 rmoveto
          28 -19 27 -37 vhcurveto
          hintmask 01011000
          -18 -23 -6 -12 -24 hvcurveto
          -32 -15 -6 -2 -17 -4 3 18 1 8 13 33 rrcurveto
          13 34 10 31 28 vvcurveto
          44 -34 14 -21 -26 -30 -16 -42 -31 14 -36 10 -27 vhcurveto
          12 -33 1 -6 3 -19 -15 4 -6 1 -19 9 rrcurveto
          hintmask 00101000
          12 -24 -28 13 -28 hhcurveto
          -37 -19 -27 -28 -13 6 -42 51 13 16 0 24 49 hvcurveto
          20 10 5 1 16 4 -3 -18 -1 -8 -13 -33 rrcurveto
          -13 -34 -10 -31 -28 vvcurveto
          -44 34 -14 21 26 30 16 42 vhcurveto
          hintmask 01001000
          31 -14 36 -10 27 vhcurveto
          -12 33 -1 6 -3 19 15 -4 6 -1 19 -9 rrcurveto
          hintmask 10101000
          -21 42 17 -4 20 hhcurveto
          51 6 42 13 hvcurveto
          -453 vmoveto
          155 callgsubr
          -28 -13 -12 -4 -14 -4 3 20 1 6 16 44 rrcurveto
          14 36 6 25 21 vvcurveto
          44 -34 14 -21 -26 -30 -16 -42 -28 11 -31 11 -30 vhcurveto
          14 -37 1 -7 3 -19 -13 3 -11 4 -15 8 rrcurveto
          12 -26 -28 13 -26 113 callgsubr
          22 10 16 7 16 4 -3 -20 -1 -6 -16 -44 rrcurveto
          -14 -36 -6 -25 -21 vvcurveto
          -44 34 -14 21 26 30 16 42 28 -11 31 -11 30 vhcurveto
          -14 37 -1 7 -3 19 18 -5 15 -7 23 -10 rrcurveto
          -9 18 24 -9 21 hhcurveto
          41 16 30 25 hvcurveto
          endchar
        </CharString>
        <CharString name="dblbracketleft">
          554 -207 91 790 91 hstem
          522 -148 rmoveto
          19 -4 -14 13 -27 hhcurveto
          -69 286 hlineto
          -1 455 rlineto
          26 2 -8 24 19 5 5 -1 4 hhcurveto
          53 hlineto
          23 23 6 54 -11 hvcurveto
          30 -6 -28 1 -18 hhcurveto
          -289 hlineto
          -35 -3 -5 -64 hvcurveto
          -1 -830 1 -14 -2 -14 3 -14 rlinecurve
          -26 6 24 -5 20 hhcurveto
          297 hlineto
          35 2 32 27 -6 hvcurveto
          -206 32 122 callsubr
        </CharString>
        <CharString name="dblbracketright">
          554 -207 91 790 91 hstem
          410 -149 rmoveto
          537 vlineto
          309 vlineto
          11 1 13 -3 12 vhcurveto
          25 -5 -23 7 -22 hhcurveto
          -297 hlineto
          -37 2 -35 -25 5 hvcurveto
          -21 5 18 -10 23 hhcurveto
          68 hlineto
          1 -790 rlineto
          -84 hlineto
          -37 1 -36 -23 5 hvcurveto
          -15 3 13 -17 26 hhcurveto
          306 hlineto
          39 -8 34 24 hvcurveto
          -92 33 122 callsubr
        </CharString>
        <CharString name="dblgrave.ts1">
          688 630 105 -104 105 hstemhm
          hintmask 01000000
          305 646 rmoveto
          -3 17 -22 28 -11 17 rrcurveto
          9 callgsubr
          229 hmoveto
          -3 17 -22 28 -11 17 rrcurveto
          hintmask 01000000
          9 callgsubr
          endchar
        </CharString>
        <CharString name="dblverticalbar">
          589 750 -20 hstem
          129 61 209 61 vstem
          190 -206 rmoveto
          34 callsubr
          270 hmoveto
          34 callsubr
          endchar
        </CharString>
        <CharString name="dcaron">
          681 -10 76 0 76 330 76 -70 -21 110 127 97 callsubr
          265 146 hintmask 10101110
          -60 callgsubr
          hintmask 01011010
          325 159 -104 callgsubr
        </CharString>
        <CharString name="dcroat">
          681 -10 76 0 76 330 76 -58 84 0 84 36 -20 97 callsubr
          80 146 39 146 hintmask 0000110110000000
          700 605 rmoveto
          22 vlineto
          17 -14 14 -17 vhcurveto
          -66 113 callsubr
          -156 hlineto
          30 callgsubr
          156 hlineto
          hintmask 0001000000000000
          -84 vlineto
          hintmask 1010101110000000
          39 -43 -52 19 -56 hhcurveto
          -140 -122 -120 -159 -158 118 -121 137 68 52 32 38 36 hvcurveto
          -44 0 -16 44 -47 callsubr
          530 66 vlineto
          137 callsubr
          hvcurveto
          -243 -463 rmoveto
          -16 0 -13 -39 -25 vhcurveto
          -18 -28 -27 -4 -20 hhcurveto
          -30 -53 10 46 -35 hvcurveto
          -29 40 -4 57 48 vvcurveto
          52 5 53 31 41 vhcurveto
          47 36 57 12 37 hhcurveto
          37 36 -14 -25 26 hvcurveto
          hintmask 0100000010000000
          endchar
        </CharString>
        <CharString name="ddotbelow">
          681 -10 81 callsubr
          67 161 37 146 hintmask 10111010
          -60 callgsubr
          hintmask 01000010
          hintmask 00000100
          -37 -602 -102 callgsubr
        </CharString>
        <CharString name="degree">
          516 302 90 202 90 hstem
          67 90 202 90 vstem
          449 493 rmoveto
          105 -86 86 -105 -106 -85 -86 -105 -105 85 -86 106 105 86 86 105 vhcurveto
          -90 hmoveto
          -56 -45 -45 -56 -56 -45 45 56 56 45 45 56 56 45 -45 -56 vhcurveto
          endchar
        </CharString>
        <CharString name="diameter">
          1069 -160 90 696 90 hstem
          96 90 696 90 vstem
          992 691 rmoveto
          25 -20 20 -25 -12 -12 -5 -8 -8 vhcurveto
          -105 -105 rlineto
          61 -75 -96 37 -105 hhcurveto
          -242 -196 -196 -242 -105 37 -96 61 -76 hvcurveto
          -105 -105 rlineto
          -8 -8 -5 -12 -12 vvcurveto
          -25 20 -20 25 12 12 5 8 8 vhcurveto
          105 106 rlineto
          -61 76 95 -37 105 hhcurveto
          242 196 196 242 105 -37 96 -61 75 hvcurveto
          105 105 rlineto
          8 8 5 12 12 vvcurveto
          -110 -413 rmoveto
          -192 -156 -156 -192 -80 -73 27 45 -59 vhcurveto
          488 488 rlineto
          45 -59 27 -73 -80 vvcurveto
          -136 276 rmoveto
          -487 -489 rlineto
          -46 59 -27 74 80 vvcurveto
          192 156 156 192 80 74 -27 -45 58 vhcurveto
          endchar
        </CharString>
        <CharString name="died">
          688 347 111 -110 111 -104 96 hstem
          cntrmask 11100000
          643 388 rmoveto
          -1 12 2 14 -3 13 rrcurveto
          14 -3 -11 18 -26 -62 -60 -8 -62 hhcurveto
          119 vlineto
          1 11 2 14 -3 13 rrcurveto
          23 -5 -20 10 -21 hhcurveto
          -68 hlineto
          -20 -16 -7 -27 3 hvcurveto
          -28 vlineto
          -80 vlineto
          -1 -16 -1 -16 2 -16 rrcurveto
          -61 -63 2 5 -62 hvcurveto
          -4 -5 1 -4 hhcurveto
          -28 1 -23 -17 -12 -2 -14 3 -13 hvcurveto
          -14 3 11 -19 25 62 62 8 62 hhcurveto
          -1 -106 4 -108 -4 -105 rrcurveto
          -7 0 -6 2 -7 vhcurveto
          -24 5 22 -8 23 11 10 1 11 9 10 -1 10 hhcurveto
          39 -5 28 30 1 hvcurveto
          2 92 -5 93 3 91 rrcurveto
          12 1 13 -1 12 vhcurveto
          61 63 -2 -5 62 hvcurveto
          4 4 -1 4 hhcurveto
          28 -1 23 18 1 hvcurveto
          endchar
        </CharString>
        <CharString name="dieresis">
          688 654 57 hstem
          139 50 callgsubr
          vstem
          -43 callgsubr
          endchar
        </CharString>
        <CharString name="dieresis.cap">
          688 599 57 hstem
          115 40 callsubr
          vstem
          -10 callsubr
          endchar
        </CharString>
        <CharString name="dieresis.dup">
          688 654 57 hstem
          139 50 callgsubr
          vstem
          -43 callgsubr
          endchar
        </CharString>
        <CharString name="dieresis.ts1">
          688 673 63 hstem
          555 705 rmoveto
          17 -4 -14 14 -26 hhcurveto
          -80 hlineto
          -5 -4 0 -1 -4 hvcurveto
          -15 -3 -7 -15 3 -14 rrcurveto
          -16 126 callsubr
          -267 hmoveto
          20 -5 -19 11 -21 hhcurveto
          -79 hlineto
          -5 -5 0 -1 -4 hvcurveto
          -15 -3 -6 -13 3 -14 rrcurveto
          -18 126 callsubr
          endchar
        </CharString>
        <CharString name="discount">
          688 22 -21 30 173 359 170 31 -20 21 -20 hstemhm
          hintmask 00001000
          611 721 rmoveto
          24 -6 -25 20 -24 hhcurveto
          hintmask 11110000
          -3 -1 -1 -3 hhcurveto
          -23 -3 -9 -23 -10 -16 -74 -111 rcurveline
          -292 -442 -44 -68 -10 -16 -16 -14 5 -24 rlinecurve
          -24 5 24 -22 26 hhcurveto
          27 10 24 18 12 hvcurveto
          313 475 101 153 14 21 3 8 2 11 -2 10 rlinecurve
          -76 -634 rmoveto
          -48 3 -24 -7 -32 hhcurveto
          -18 hlineto
          -10 -10 -1 -11 hhcurveto
          -25 -36 8 37 -8 hvcurveto
          -2 11 0 11 11 vvcurveto
          43 vlineto
          31 6 18 28 3 vhcurveto
          64 hlineto
          27 38 -5 -41 8 hvcurveto
          3 -10 -2 -9 1 -10 rrcurveto
          -210 534 rmoveto
          -78 1 -1 -22 -48 hhcurveto
          -54 hlineto
          -27 -35 8 37 -8 hvcurveto
          -4 20 2 28 1 22 -1 24 2 29 29 2 rrcurveto
          1 5 6 0 6 hhcurveto
          54 hlineto
          26 36 -6 -39 9 hvcurveto
          1 -8 0 -9 -9 vvcurveto
          endchar
        </CharString>
        <CharString name="divide">
          1069 -29 142 120 91 121 142 hstem
          463 142 vstem
          992 279 27 callsubr
          -387 194 rmoveto
          24 callgsubr
          -474 vmoveto
          22 callsubr
        </CharString>
        <CharString name="divorced">
          688 -134 -21 22 -21 866 -20 21 -20 hstemhm
          hintmask 00010000
          966 329 rmoveto
          107 -23 -93 113 -148 -5 -3 -1 -5 hhcurveto
          -35 -4 -32 -7 -30 -14 -105 -48 -67 -116 27 -128 rrcurveto
          -134 28 123 -88 118 hhcurveto
          168 117 156 164 -35 hvcurveto
          -727 hmoveto
          132 -28 -125 88 -117 hhcurveto
          -6 -7 0 -1 -5 hvcurveto
          -155 -20 -111 -131 36 -169 rrcurveto
          -104 22 91 -114 149 hhcurveto
          167 125 150 169 -36 hvcurveto
          179 313 rmoveto
          -1 11 2 13 -2 13 rrcurveto
          24 -5 -21 10 -26 hhcurveto
          hintmask 10100000
          -9 -7 -1 -8 hhcurveto
          -32 hlineto
          -6 -7 0 -1 -6 hvcurveto
          -25 -4 5 -29 -1 -21 rrcurveto
          -744 vlineto
          1 -11 -2 -12 3 -12 rrcurveto
          -23 5 19 -10 26 hhcurveto
          hintmask 01000000
          8 9 1 8 hhcurveto
          hintmask 10000000
          11 11 -1 11 hhcurveto
          45 -8 27 28 1 hvcurveto
          165 vlineto
          439 256 rmoveto
          -93 11 -33 -106 -128 hhcurveto
          -53 -54 25 73 -16 hvcurveto
          -2 9 rlineto
          92 -12 21 115 131 hhcurveto
          54 63 -27 -75 16 hvcurveto
          1 -4 1 -5 -4 vvcurveto
          -751 2 rmoveto
          -91 11 -25 -110 -124 hhcurveto
          -59 -61 31 76 -16 hvcurveto
          104 -22 57 103 113 hhcurveto
          55 54 -25 -73 15 hvcurveto
          1 -5 1 -5 -5 vvcurveto
          endchar
        </CharString>
        <CharString name="dlinebelow">
          681 -213 90 113 81 callsubr
          265 146 hintmask 01011110
          -60 callgsubr
          hintmask 00100010
          hintmask 10000000
          132 -618 -90 callgsubr
        </CharString>
        <CharString name="dollar">
          688 -48 -21 59 86 540 87 61 -20 hstem
          76 110 120 76 119 110 vstem
          611 214 rmoveto
          89 -67 106 -162 26 vhcurveto
          184 vlineto
          27 -3 61 -5 71 -58 rrcurveto
          -12 13 2 0 4 hhcurveto
          11 2 8 13 2 hvcurveto
          11 59 rlineto
          2 8 110 callgsubr
          11 -6 2 -21 10 vhcurveto
          -44 21 -51 21 -84 5 rrcurveto
          17 vlineto
          19 0 25 -38 -38 0 -25 -19 vhcurveto
          -18 vlineto
          -130 -14 -100 -88 -106 vvcurveto
          -61 38 -114 192 -33 vhcurveto
          -211 vlineto
          -90 11 -65 43 -35 35 rrcurveto
          17 -18 -1 1 -5 hhcurveto
          -12 -2 -10 -7 -1 hvcurveto
          -3 -15 -13 -65 -11 vvcurveto
          -9 1 -1 28 -15 vhcurveto
          72 -35 74 -18 70 -5 rrcurveto
          -39 0 -21 38 38 0 25 19 vhcurveto
          17 vlineto
          142 19 87 99 104 vvcurveto
          -305 235 rmoveto
          -33 5 -87 20 59 vvcurveto
          46 63 33 57 6 vhcurveto
          195 -443 rmoveto
          -53 -62 -38 -57 -8 vhcurveto
          196 vlineto
          67 -10 52 -38 -49 vvcurveto
          endchar
        </CharString>
        <CharString name="dollar.oldstyle">
          840 -9 84 -82 82 -82 84 hstem
          287 78 109 78 cntrmask 11100000
          759 245 rmoveto
          -19 90 -88 49 -83 28 -17 4 rcurveline
          192 vlineto
          49 -10 52 -23 44 -26 rrcurveto
          -3 6 6 -4 5 hhcurveto
          17 11 80 13 -3 hvcurveto
          -4 18 -35 5 -16 6 -43 14 -46 13 -43 5 rrcurveto
          40 vlineto
          22 -1 -22 7 -18 hhcurveto
          -25 -14 -16 -15 2 hvcurveto
          -30 vlineto
          2 -22 -15 -1 -7 hhcurveto
          -24 -17 0 -2 -24 hvcurveto
          -1 10 1 20 0 vvcurveto
          24 -21 8 -19 -23 -15 -6 -35 vhcurveto
          -34 vlineto
          -23 -5 -21 -6 -19 -8 -82 -35 -85 -65 22 -103 21 -100 107 -41 80 -21 rrcurveto
          -215 vlineto
          -62 17 -63 25 -54 41 rrcurveto
          4 -6 -6 5 -7 hhcurveto
          -2 hlineto
          -11 -1 -2 -13 -1 -9 -4 -26 -12 -42 4 -18 6 -26 147 -37 73 -10 rrcurveto
          -39 vlineto
          -21 1 23 -9 17 hhcurveto
          22 15 11 18 hvcurveto
          32 vlineto
          -2 13 14 0 13 hhcurveto
          69 2 rlineto
          -29 vlineto
          -21 1 22 -11 18 hhcurveto
          21 17 14 22 -1 hvcurveto
          39 vlineto
          103 19 131 91 -27 128 rrcurveto
          -285 188 rmoveto
          -109 20 rlineto
          162 vlineto
          0 29 6 35 15 16 0 -2 14 vhcurveto
          176 -430 rmoveto
          12 -55 -68 -25 -42 -15 rrcurveto
          162 vlineto
          33 -11 55 -12 10 -44 rrcurveto
          -363 278 rmoveto
          -33 8 -57 9 -8 39 -11 53 84 22 25 6 rrcurveto
          187 -524 rmoveto
          0 -41 -5 -23 -17 -28 2 0 vhcurveto
          214 vlineto
          109 -21 rlineto
          endchar
        </CharString>
        <CharString name="dong">
          681 -84 84 hstem
          665 609 rmoveto
          21 vlineto
          17 -13 13 -16 vhcurveto
          -63 hlineto
          26 -2 -9 8 -31 hhcurveto
          -53 hlineto
          -30 -10 -6 -28 -2 hvcurveto
          -148 hlineto
          -16 -14 -13 -17 hvcurveto
          -21 vlineto
          -16 14 -13 16 vhcurveto
          148 -80 hlineto
          37 -41 -49 18 -53 hhcurveto
          -133 -116 -114 -151 -150 112 -115 130 65 49 31 36 34 hvcurveto
          -42 0 -15 42 vhcurveto
          55 hlineto
          32 10 7 35 hvcurveto
          503 63 vlineto
          16 13 13 16 hvcurveto
          -672 vmoveto
          145 callsubr
          -580 hlineto
          -11 -9 -9 -12 hvcurveto
          -42 vlineto
          -12 9 -9 11 vhcurveto
          580 hlineto
          12 9 9 12 hvcurveto
          -231 233 rmoveto
          -16 0 -12 -37 -24 vhcurveto
          -17 -27 -25 -4 -19 hhcurveto
          -29 -50 10 44 -33 hvcurveto
          -28 38 -4 54 45 vvcurveto
          50 5 50 30 39 vhcurveto
          45 34 54 11 35 hhcurveto
          35 34 -13 -24 25 hvcurveto
          endchar
        </CharString>
        <CharString name="dotaccent">
          382 651 63 hstem
          116 callsubr
          682 -102 callgsubr
        </CharString>
        <CharString name="dotaccent.alt">
          382 580 63 hstem
          116 callsubr
          611 -102 callgsubr
        </CharString>
        <CharString name="dotaccent.cap">
          382 614 63 hstem
          116 callsubr
          645 -102 callgsubr
        </CharString>
        <CharString name="dotlessi">
          72 callgsubr
          hstem
          77 144 vstem
          -74 callgsubr
          endchar
        </CharString>
        <CharString name="dotlessj">
          337 538 -20 hstem
          115 144 vstem
          -64 callgsubr
          endchar
        </CharString>
        <CharString name="e">
          8 callgsubr
          hstem
          38 141 278 131 vstem
          -105 callsubr
          endchar
        </CharString>
        <CharString name="eacute">
          -65 callsubr
          47 382 -93 callsubr
        </CharString>
        <CharString name="ebreve">
          8 callgsubr
          70 89 30 -93 callgsubr
          62 372 -90 callsubr
        </CharString>
        <CharString name="ecaron">
          -65 callsubr
          70 382 -101 callsubr
        </CharString>
        <CharString name="ecircumflex">
          -65 callsubr
          70 306 -98 callgsubr
        </CharString>
        <CharString name="ecircumflexacute">
          89 callgsubr
          244 -93 callgsubr
          70 306 -107 callgsubr
          -41 217 rmoveto
          -105 callgsubr
        </CharString>
        <CharString name="ecircumflexdotbelow">
          89 callgsubr
          104 -20 104 callgsubr
          hintmask 11111101
          -105 callsubr
          70 306 28 callsubr
          -813 -102 callgsubr
        </CharString>
        <CharString name="ecircumflexgrave">
          -65 callsubr
          70 306 -107 callgsubr
          -40 152 -70 callsubr
        </CharString>
        <CharString name="ecircumflexhookabove">
          89 callgsubr
          334 -93 callgsubr
          70 306 -107 callgsubr
          30 235 -106 callgsubr
        </CharString>
        <CharString name="ecircumflextilde">
          89 callgsubr
          174 110 callsubr
          38 141 278 131 hintmask 11100011
          -105 callsubr
          hintmask 00010100
          70 306 -48 callgsubr
        </CharString>
        <CharString name="edblgrave">
          -65 callsubr
          48 306 -100 callsubr
        </CharString>
        <CharString name="edieresis">
          8 callgsubr
          101 57 hstemhm
          38 141 -70 50 callgsubr
          -63 131 hintmask 11101001
          -105 callsubr
          hintmask 00010110
          -203 344 -58 callsubr
        </CharString>
        <CharString name="edotaccent">
          70 callgsubr
          63 104 callgsubr
          hintmask 11101010
          -105 callsubr
          hintmask 00010100
          -64 344 -102 callgsubr
        </CharString>
        <CharString name="edotbelow">
          627 -10 76 215 57 139 76 104 callgsubr
          hintmask 11110100
          -105 callsubr
          hintmask 00001000
          -64 -507 -102 callgsubr
        </CharString>
        <CharString name="egrave">
          -65 callsubr
          -48 306 rmoveto
          -65 callgsubr
        </CharString>
        <CharString name="ehookabove">
          8 callgsubr
          80 -21 200 -93 callgsubr
          -22 389 -106 callgsubr
        </CharString>
        <CharString name="eight">
          688 90 callgsubr
          76 141 253 141 -133 152 hintmask 10111000
          630 -15 callsubr
        </CharString>
        <CharString name="eight.oldstyle">
          777 90 callgsubr
          102 107 callgsubr
          675 -17 callsubr
        </CharString>
        <CharString name="eight.prop">
          777 90 callgsubr
          121 141 253 141 -133 152 hintmask 10111000
          675 -15 callsubr
        </CharString>
        <CharString name="eight.taboldstyle">
          688 90 callgsubr
          57 107 callgsubr
          630 -17 callsubr
        </CharString>
        <CharString name="ellipsis">
          914 0 142 hstem
          120 142 124 142 124 142 cntrmask 01110000
          262 28 rmoveto
          24 callgsubr
          266 hmoveto
          24 callgsubr
          266 hmoveto
          22 callsubr
        </CharString>
        <CharString name="emacron">
          8 callgsubr
          84 90 hstemhm
          38 141 278 131 hintmask 11101100
          -105 callsubr
          hintmask 00010000
          105 327 -90 callgsubr
        </CharString>
        <CharString name="emdash">
          1375 294 76 hstem
          0 1374 vstem
          1374 332 rmoveto
          38 -25 0 -19 vhcurveto
          -1286 8 callsubr
          1286 44 callgsubr
        </CharString>
        <CharString name="emdash.alt">
          917 295 77 hstem
          916 341 rmoveto
          -1 4 rlineto
          16 -7 -16 11 -17 hhcurveto
          -843 hlineto
          -5 -4 0 -1 -4 hvcurveto
          -20 -3 -3 -24 4 -19 rrcurveto
          -19 5 17 -11 19 hhcurveto
          839 hlineto
          20 25 3 43 -9 hvcurveto
          endchar
        </CharString>
        <CharString name="endash">
          688 294 76 hstem
          0 687 vstem
          687 332 rmoveto
          38 -25 0 -19 vhcurveto
          -599 8 callsubr
          599 44 callgsubr
        </CharString>
        <CharString name="eng">
          681 472 76 48 callgsubr
          hintmask 10110000
          -41 callsubr
          hintmask 01000000
          -38 callsubr
          hintmask 10110000
          97 77 42 66 88 5 -50 -41 vhcurveto
          -337 vlineto
          -30 -15 -28 -22 -16 vhcurveto
          -23 -16 -24 -20 -28 vvcurveto
          -22 24 -13 25 4 vhcurveto
          98 15 83 61 93 vvcurveto
          endchar
        </CharString>
        <CharString name="eogonek">
          627 -204 79 -27 57 85 -11 callgsubr
          102 callgsubr
          hintmask 1010111100000000
          32 callsubr
          hintmask 0100000100000000
          112 callgsubr
          hintmask 1000000010000000
          -11 -28 -25 -6 -24 hhcurveto
          hintmask 0111011010000000
          22 callgsubr
          hintmask 0001100001000000
          20 24 0 39 hvcurveto
          -131 18 rmoveto
          -270 hlineto
          74 18 56 65 72 hhcurveto
          87 32 -67 -72 5 hvcurveto
          endchar
        </CharString>
        <CharString name="eogonekacute">
          627 -204 79 -27 57 85 -11 callgsubr
          98 -21 104 -20 102 callgsubr
          hintmask 1010100111000000
          32 callsubr
          hintmask 0100000001000000
          112 callgsubr
          hintmask 1000000000100000
          -11 -28 -25 -6 -24 hhcurveto
          hintmask 0111000110100000
          22 callgsubr
          hintmask 0001100000010000
          20 24 0 39 hvcurveto
          -131 18 rmoveto
          -270 hlineto
          74 18 56 65 72 hhcurveto
          87 32 -67 -72 5 hvcurveto
          hintmask 0000011000000000
          47 382 -93 callsubr
        </CharString>
        <CharString name="equal">
          1069 97 91 179 91 hstem
          76 916 vstem
          992 413 27 callsubr
          -271 vmoveto
          46 -46 0 -11 vhcurveto
          -802 hlineto
          -11 -46 0 -46 -29 20 -16 36 hvcurveto
          804 hlineto
          157 callgsubr
        </CharString>
        <CharString name="ereversed">
          8 callgsubr
          hstem
          38 131 278 141 vstem
          588 272 rmoveto
          148 -125 133 -171 -197 -57 -136 -97 -39 24 0 20 vhcurveto
          365 hlineto
          -147 -93 -68 -82 -27 -85 5 70 -74 vhcurveto
          9 -10 137 callgsubr
          -12 -1 -7 -28 -3 hvcurveto
          -1 -11 -3 -27 -10 vvcurveto
          -3 1 -7 2 -3 vhcurveto
          -45 66 79 -23 80 hhcurveto
          178 136 129 153 hvcurveto
          -149 66 rmoveto
          -270 hlineto
          72 5 32 67 87 hhcurveto
          72 56 -65 -74 18 hvcurveto
          endchar
        </CharString>
        <CharString name="estimated">
          939 -9 77 257 57 241 77 hstem
          893 422 rmoveto
          -20 94 -48 81 -102 54 rrcurveto
          41 -77 -90 8 -76 hhcurveto
          -145 -134 -53 -98 -87 hvcurveto
          -57 -65 -36 -91 21 -97 20 -94 72 -83 88 -53 85 -50 95 -21 90 -4 rrcurveto
          18 hlineto
          125 126 18 37 112 hvcurveto
          26 9 -6 43 -7 34 -1 4 rcurveline
          8 -2 -8 6 -8 hhcurveto
          -11 -2 -9 -8 -11 -3 rrcurveto
          -44 -100 -108 -25 -117 hhcurveto
          -107 -166 49 171 -36 hvcurveto
          -3 12 -2 13 -1 12 rrcurveto
          670 hlineto
          47 -11 55 42 -9 hvcurveto
          -146 -40 rmoveto
          -547 hlineto
          138 20 130 103 148 hhcurveto
          97 113 -36 -145 31 hvcurveto
          3 -13 2 -16 0 -15 3 -16 rlinecurve
          endchar
        </CharString>
        <CharString name="eth">
          688 0 callsubr
          125 -30 126 -80 96 vhcurveto
          -18 21 -19 19 -21 17 104 34 rcurveline
          17 5 7 14 13 vvcurveto
          18 -13 18 -20 -4 -4 -1 -1 -4 vhcurveto
          -158 -51 rlineto
          39 -76 -87 18 -88 hhcurveto
          -17 2 -14 -14 -17 vvcurveto
          -22 vlineto
          -17 14 -13 17 -4 vhcurveto
          41 42 -5 -9 39 hvcurveto
          -110 -36 rlineto
          -17 -5 -7 -14 -13 vvcurveto
          -18 13 -18 20 4 4 1 1 4 vhcurveto
          190 62 48 -28 39 -39 24 -52 rlinecurve
          22 -43 -49 13 -53 35 callsubr
          87 76 32 50 55 hvcurveto
          54 50 34 70 74 56 callsubr
        </CharString>
        <CharString name="etilde">
          8 callgsubr
          72 75 -35 75 -95 callgsubr
          hintmask 00001000
          44 384 -77 callsubr
        </CharString>
        <CharString name="eturned">
          -14 callgsubr
        </CharString>
        <CharString name="exclam">
          392 0 142 108 -21 465 -20 hstem
          119 callgsubr
          267 664 rmoveto
          30 1 -5 0 -24 hhcurveto
          -85 hlineto
          -24 -6 0 -29 1 hvcurveto
          13 -407 rlineto
          -29 1 4 0 24 hhcurveto
          58 hlineto
          27 0 1 27 1 hvcurveto
          14 -213 rmoveto
          54 -95 callsubr
          -54 -85 callsubr
          -54 -56 callsubr
          54 -94 callsubr
          endchar
        </CharString>
        <CharString name="exclamdown">
          392 -118 -21 466 -20 107 142 hstem
          119 callgsubr
          267 458 rmoveto
          54 -95 callsubr
          -54 -85 callsubr
          -54 -56 callsubr
          54 -94 callsubr
          -569 vmoveto
          -13 409 rlineto
          29 -1 -4 0 -24 hhcurveto
          -58 hlineto
          -27 0 -1 -27 -1 hvcurveto
          -14 -409 rlineto
          -29 -1 6 0 24 hhcurveto
          85 hlineto
          23 6 0 28 -1 hvcurveto
          endchar
        </CharString>
        <CharString name="f">
          -18 callgsubr
        </CharString>
        <CharString name="f_f">
          802 63 callsubr
          237 144 vstem
          477 611 rmoveto
          55 vlineto
          26 -1 1 -41 6 vhcurveto
          5 -36 -33 0 -9 hhcurveto
          -28 -71 0 -35 -68 hvcurveto
          -71 -36 0 -42 -22 vvcurveto
          -31 -32 callgsubr
          88 vlineto
          19 25 0 38 38 -25 0 -19 hvcurveto
          -90 63 callgsubr
          11 hhcurveto
          38 29 -8 -28 29 hvcurveto
          -4 3 5 -5 7 hhcurveto
          60 callgsubr
          381 hmoveto
          55 vlineto
          26 -1 1 -41 6 vhcurveto
          5 -36 -33 0 -9 hhcurveto
          -28 -71 0 -35 -68 hvcurveto
          -71 -36 0 -42 -22 vvcurveto
          -525 -76 callsubr
          418 88 vlineto
          19 25 0 38 38 -25 0 -19 hvcurveto
          -90 63 callgsubr
          11 hhcurveto
          38 29 -8 -28 29 hvcurveto
          -4 3 5 -5 7 hhcurveto
          60 callgsubr
          endchar
        </CharString>
        <CharString name="f_f_i">
          1104 21 -21 462 76 -44 76 31 94 -76 76 -67 76 hstemhm
          119 144 238 144 237 144 hintmask 0000100000000000
          1027 121 callsubr
          hvcurveto
          hintmask 0011000010000000
          -35 7 -12 37 vhcurveto
          122 callgsubr
          hintmask 0100000000000000
          -88 callsubr
          -56 hlineto
          hintmask 1010000010000000
          -96 callsubr
          -450 -76 callsubr
          -240 456 rmoveto
          hintmask 0100010000000000
          38 -25 0 -19 vhcurveto
          -99 148 callgsubr
          50 39 16 -21 -18 11 vhcurveto
          -3 1 4 -6 8 hhcurveto
          60 callgsubr
          61 vlineto
          26 -1 1 -32 4 vhcurveto
          4 -27 -23 0 -7 hhcurveto
          hintmask 1010000100000000
          -94 -101 -41 -93 hvcurveto
          -526 -76 callsubr
          hintmask 0100010100000000
          418 97 vlineto
          19 25 0 38 hvcurveto
          -347 111 111 callgsubr
          hintmask 0010001000000000
          -97 -118 -37 -97 hvcurveto
          hintmask 1100101000000000
          -32 -32 callgsubr
          97 vlineto
          19 25 0 38 38 -25 0 -19 hvcurveto
          -99 46 hlineto
          19 0 7 21 9 vhcurveto
          hintmask 0000010000000000
          81 callgsubr
          endchar
        </CharString>
        <CharString name="f_f_l">
          1104 63 callsubr
          238 144 237 144 vstem
          439 611 111 callgsubr
          -97 -118 -37 -97 hvcurveto
          -32 -32 callgsubr
          97 vlineto
          19 25 0 38 38 -25 0 -19 hvcurveto
          -99 46 hlineto
          19 0 7 21 9 vhcurveto
          81 callgsubr
          587 -567 -57 callsubr
          -240 456 rmoveto
          38 -25 0 -19 vhcurveto
          -99 148 callgsubr
          50 36 17 -17 -18 12 vhcurveto
          -5 4 3 -5 7 hhcurveto
          60 callgsubr
          55 vlineto
          25 -1 1 -30 6 vhcurveto
          6 -28 -23 0 -10 hhcurveto
          -86 -107 -38 -96 hvcurveto
          -526 -76 callsubr
          418 97 vlineto
          19 25 0 38 hvcurveto
          endchar
        </CharString>
        <CharString name="f_i">
          722 21 -21 462 76 -44 76 -70 76 52 76 hstemhm
          119 144 -2 144 95 144 hintmask 00100001
          645 121 callsubr
          -35 7 -12 37 hvcurveto
          122 callgsubr
          hintmask 01000000
          -88 callsubr
          -56 hlineto
          hintmask 10100001
          -96 callsubr
          -450 -76 callsubr
          -239 456 rmoveto
          hintmask 01001010
          38 -25 0 -19 vhcurveto
          -100 148 callgsubr
          50 33 19 -14 -26 13 vhcurveto
          hintmask 00011010
          -6 3 4 -6 8 hhcurveto
          60 callgsubr
          62 vlineto
          25 0 1 -31 6 vhcurveto
          6 -29 -20 0 -12 hhcurveto
          hintmask 00100100
          -90 -104 -40 -94 hvcurveto
          hintmask 01000100
          -32 -38 vlineto
          hintmask 00010000
          -19 -25 0 -38 hvcurveto
          hintmask 11000100
          -38 25 0 19 vhcurveto
          38 -418 hlineto
          -86 callsubr
          418 98 vlineto
          hintmask 00010010
          19 25 0 38 hvcurveto
          endchar
        </CharString>
        <CharString name="f_k">
          1074 100 callgsubr
          122 -78 144 hintmask 01000010
          1018 19 rmoveto
          7 -1 0 -9 12 vhcurveto
          -229 289 206 174 rlineto
          6 5 6 6 8 vvcurveto
          18 -17 0 -14 vhcurveto
          -84 hlineto
          -22 -13 -1 -18 -22 hvcurveto
          -203 -172 rlineto
          303 -95 callsubr
          hintmask 00000001
          -34 hlineto
          hintmask 00000010
          -96 callsubr
          -606 vlineto
          hintmask 11010101
          -78 callgsubr
          33 -94 callsubr
          149 vlineto
          67 57 183 -231 rlineto
          -19 15 15 0 18 hhcurveto
          66 hlineto
          14 19 0 19 hvcurveto
          -613 481 3 callgsubr
          hintmask 00000100
          19 25 0 38 hvcurveto
          endchar
        </CharString>
        <CharString name="f_l">
          722 100 callgsubr
          144 hintmask 01010100
          405 500 3 callgsubr
          hintmask 10000110
          19 25 0 38 hvcurveto
          239 -456 -57 callsubr
          endchar
        </CharString>
        <CharString name="five">
          688 -21 80 314 77 161 83 hstem
          103 144 vstem
          618 216 44 callsubr
          182 282 91 callsubr
          40 -19 2 -25 hvcurveto
          -381 hlineto
          -31 -13 -6 -39 hvcurveto
          -312 vlineto
          -46 callgsubr
        </CharString>
        <CharString name="five.oldstyle">
          776 133 callgsubr
          159 138 callsubr
          674 77 44 callsubr
          192 282 91 callsubr
          40 -19 2 -25 hvcurveto
          hintmask 00010100
          -381 hlineto
          hintmask 00001000
          -31 -13 -6 -39 hvcurveto
          -322 vlineto
          hintmask 11100110
          -46 callgsubr
        </CharString>
        <CharString name="five.prop">
          776 -21 80 314 77 161 83 hstem
          159 144 vstem
          674 216 44 callsubr
          182 282 91 callsubr
          40 -19 2 -25 hvcurveto
          -381 hlineto
          -31 -13 -6 -39 hvcurveto
          -312 vlineto
          -46 callgsubr
        </CharString>
        <CharString name="five.taboldstyle">
          688 133 callgsubr
          103 138 callsubr
          618 77 44 callsubr
          192 282 91 callsubr
          40 -19 2 -25 hvcurveto
          hintmask 00010100
          -381 hlineto
          hintmask 00001000
          -31 -13 -6 -39 hvcurveto
          -322 vlineto
          hintmask 11100110
          -46 callgsubr
        </CharString>
        <CharString name="florin">
          -18 callgsubr
        </CharString>
        <CharString name="four">
          688 21 -21 157 81 466 -20 hstem
          396 126 vstem
          649 3 callsubr
        </CharString>
        <CharString name="four.oldstyle">
          713 -118 -21 139 80 496 -20 hstemhm
          406 129 -126 126 hintmask 11110000
          662 4 callgsubr
        </CharString>
        <CharString name="four.prop">
          713 21 -21 157 81 466 -20 hstem
          409 126 vstem
          662 3 callsubr
        </CharString>
        <CharString name="four.taboldstyle">
          688 -118 -21 139 80 496 -20 hstemhm
          393 129 -126 126 hintmask 11110000
          649 4 callgsubr
        </CharString>
        <CharString name="fraction">
          793 706 635 rmoveto
          29 25 -21 34 callgsubr
          9 hvcurveto
          endchar
        </CharString>
        <CharString name="fraction.alt">
          0 310 635 rmoveto
          29 25 -21 34 callgsubr
          9 hvcurveto
          endchar
        </CharString>
        <CharString name="g">
          12 callsubr
          94 callsubr
          hintmask 00010010
          120 callgsubr
          hintmask 00111100
          -96 callsubr
          -32 vlineto
          33 -23 -43 43 -73 hhcurveto
          -146 -128 -122 -156 -142 128 -103 139 95 37 80 28 11 hvcurveto
          hintmask 10000010
          1 -1 rlineto
          -121 vlineto
          -72 -61 -24 -60 -74 -66 15 32 -65 vhcurveto
          6 -12 -5 3 -5 hhcurveto
          hintmask 01000000
          -14 0 -14 -15 hvcurveto
          -43 vlineto
          -25 1 -1 29 -7 vhcurveto
          hintmask 10111010
          -10 39 66 -17 105 hhcurveto
          165 103 90 108 hvcurveto
          -144 293 rmoveto
          -3 0 -89 -22 -59 vhcurveto
          -42 -16 -28 -36 -50 hhcurveto
          -79 -72 71 98 115 79 87 87 40 31 -22 -34 20 hvcurveto
          hintmask 00000100
          10 -16 0 -1 -18 vvcurveto
          endchar
        </CharString>
        <CharString name="gacute">
          12 callsubr
          103 -21 104 133 callsubr
          hintmask 0001000010000000
          603 37 -87 callsubr
          hintmask 0000110000000000
          51 339 -93 callsubr
        </CharString>
        <CharString name="gbreve">
          12 callsubr
          75 89 30 133 callsubr
          hintmask 0001000010000000
          603 37 -87 callsubr
          hintmask 0000110000000000
          66 329 -90 callsubr
        </CharString>
        <CharString name="gcaron">
          12 callsubr
          103 -21 104 133 callsubr
          hintmask 0001000010000000
          603 37 -87 callsubr
          hintmask 0000110000000000
          75 339 -101 callsubr
        </CharString>
        <CharString name="gcedilla">
          12 callsubr
          57 127 110 133 callsubr
          hintmask 0001110010000000
          384 630 rmoveto
          77 vlineto
          25 -1 0 -32 vhcurveto
          1 4 9 26 7 21 rrcurveto
          13 36 3 7 4 vvcurveto
          12 -12 0 -13 vhcurveto
          -14 hlineto
          -18 -1 -1 -15 -9 hvcurveto
          -51 -85 rlineto
          -10 -17 0 -2 -15 vvcurveto
          -77 vlineto
          -24 1 -1 25 vhcurveto
          77 hlineto
          23 2 1 24 hvcurveto
          219 -593 -87 callsubr
          endchar
        </CharString>
</ttFont>
